/* XPM */
static char *_574442241596[] = {
/* columns rows colors chars-per-pixel */
"40 40 121 2 ",
"   c #0C0000",
".  c #100100",
"X  c #1D0000",
"o  c #230000",
"O  c #230100",
"+  c #250000",
"@  c #280000",
"#  c #2B0000",
"$  c #300000",
"%  c #320000",
"&  c #330000",
"*  c #350100",
"=  c #360000",
"-  c #310500",
";  c #350700",
":  c #370700",
">  c #380000",
",  c #390000",
"<  c #3C0000",
"1  c #3D0000",
"2  c #3E0000",
"3  c #3F0000",
"4  c #3E0100",
"5  c #390400",
"6  c #350800",
"7  c #410000",
"8  c #410100",
"9  c #420000",
"0  c #430000",
"q  c #410200",
"w  c #440000",
"e  c #450000",
"r  c #450100",
"t  c #460000",
"y  c #470000",
"u  c #440200",
"i  c #490100",
"p  c #4B0000",
"a  c #4A0100",
"s  c #490200",
"d  c #4A0200",
"f  c #4C0000",
"g  c #4E0000",
"h  c #4C0200",
"j  c #4D0200",
"k  c #4F0200",
"l  c #490400",
"z  c #4D0400",
"x  c #4E0500",
"c  c #420800",
"v  c #420900",
"b  c #420A00",
"n  c #440A00",
"m  c #400D00",
"M  c #4A0F00",
"N  c #500000",
"B  c #510000",
"V  c #530000",
"C  c #510300",
"Z  c #530200",
"A  c #550000",
"S  c #540300",
"D  c #570200",
"F  c #500500",
"G  c #510500",
"H  c #560400",
"J  c #560500",
"K  c #570600",
"L  c #5B0100",
"P  c #5C0000",
"I  c #5C0100",
"U  c #590600",
"Y  c #5A0600",
"T  c #5B0600",
"R  c #5D0500",
"E  c #5D0700",
"W  c #5A0900",
"Q  c #5B0A00",
"!  c #620300",
"~  c #660100",
"^  c #610500",
"/  c #640500",
"(  c #670600",
")  c #6B0500",
"_  c #680600",
"`  c #630800",
"'  c #620900",
"]  c #600A00",
"[  c #640A00",
"{  c #670B00",
"}  c #620E00",
"|  c #6B0900",
" . c #6B0D00",
".. c #730B00",
"X. c #641100",
"o. c #601400",
"O. c #6B1500",
"+. c #6C1700",
"@. c #6D1800",
"#. c #6C1E00",
"$. c #701000",
"%. c #711300",
"&. c #731300",
"*. c #771000",
"=. c #7B1000",
"-. c #751F00",
";. c #732500",
":. c #7F2800",
">. c #851300",
",. c #8D1300",
"<. c #8D1400",
"1. c #911E00",
"2. c #8E2B00",
"3. c #923000",
"4. c #953300",
"5. c #B02900",
"6. c #B03400",
"7. c #BD3000",
"8. c #BF4200",
"9. c #C94900",
"0. c None",
/* pixels */
"0.0.0.0.0.0.0.0.0.0.0.0.0.0.0.0.0.0.0.0.0.0.0.0.0.0.0.0.0.0.0.0.0.0.0.0.0.0.0.0.",
"0.0.0.0.0.0.0.0.0.0.0.0.0.0.0.0.0.0.0.0.0.0.0.0.0.0.0.0.0.0.0.0.0.0.0.0.0.0.0.0.",
"0.0.0.0.0.0.0.0.0.0.0.0.0.0.0.0.0.0.0.0.0.0.0.0.0.0.0.0.0.0.0.0.0.0.0.0.0.0.0.0.",
"0.0.0.0.0.0.0.0.0.0.0.0.0.0.0.0.0.0.0.0.0.0.0.0.0.0.0.0.0.0.0.0.0.0.0.0.0.0.0.0.",
"0.0.0.0.0.0.0.0.0.0.0.0.0.0.0.0.0.0.0.0.0.0.0.0.0.0.0.0.0.0.0.0.0.0.0.0.0.0.0.0.",
"0.0.0.0.0.0.0.0.0.0.0.0.0.0.0.0.0.0.0.0.0.0.0.0.0.0.0.0.0.0.0.0.0.0.0.0.0.0.0.0.",
"0.0.0.0.0.0.0.0.0.0.0.0.0.0.0.0.0.0.0.0.0.0.0.0.0.0.0.0.0.0.0.0.0.0.0.0.0.0.0.0.",
"0.0.0.0.0.0.0.0.0.0.0.0.0.0.0.0.0.0.0.0.0.0.0.0.0.0.0.0.0.0.0.0.0.0.0.0.0.0.0.0.",
"0.0.0.0.0.0.0.0.0.0.0.0.0.0.0.0.0.0.0.0.0.0.0.0.0.0.0.0.0.0.0.0.0.0.0.0.0.0.0.0.",
"0.0.0.0.0.0.0.0.0.0.0.0.0.0.0.0.0.0.0.0.0.0.U / 8 0.0.0.0.0.0.0.0.0.0.0.0.0.0.0.",
"0.0.0.0.0.0.0.0.0.0.0.0.0.0.0.0.0.0.0.0.0.0.E [ S 0.0.0.0.0.0.0.0.0.0.0.0.0.0.0.",
"0.0.0.0.0.0.0.0.0.0.0.0.0.0.0.0.0.0.0.0.0.u 8 u Q 0.0.0.0.0.0.0.0.0.0.0.0.0.0.0.",
"0.0.0.0.0.0.0.0.0.0.0.0.0.0.0.0.0.0.0.0.0.Q F g s 0.0.0.0.0.0.0.0.0.0.0.0.0.0.0.",
"0.0.0.0.0.0.0.0.0.0.0.0.0.0.0.0.0.8 0.0.0.} &.' z 0.#.O.0.0.0.0.0.0.0.0.0.0.0.0.",
"0.0.0.0.0.0.0.0.0.0.0.0.0.0.o o 5 H V S g 0.0.z 3 0.0.U 0.0.0.0.0.0.0.0.0.0.0.0.",
"0.0.0.0.0.0.0.0.0.0.0.0.g = o n ;.3.,.~ 0.0.0.0.0.# 0.0.0.0.0.0.0.0.0.0.0.0.0.0.",
"0.0.0.0.0.0.0.V F 0.0.V  .l X n 2.9.7.~ 0.0.0.0.0.0.0.0.0.0.0.0.0.0.0.0.0.0.0.0.",
"0.0.0.0.0.0.0.H U 0.0.S &.@.5 ; 4.9.5.I 0.0.0.0.0.0.0.0.0.0.0.0.0.0.0.0.0.0.0.0.",
"0.0.0.0.0.0.0.0.3 0.0.8 U E 8 - :.6.>.V 0.0.0.0.0.0.0.0.0.0.0.0.0.0.0.0.0.0.0.0.",
"0.0.0.0.0.0.0.0.0.8 3 3 u 8 u % H *.0.0.0.0.0.0.0.0.0.0.0.0.0.0.0.0.0.0.0.0.0.0.",
"0.0.0.0.0.0.0.0.0.0.u 0.0.c U L &.X.0.0.0.0.0.0.0.0.0.0.0.0.0.0.0.0.0.0.0.0.0.0.",
"0.0.0.0.0.0.0.0.0.0.0.0.0.0.s 8 o.0.0.0.0.0.0.8 0.0.0.0.0.0.0.0.0.0.0.0.0.0.0.0.",
"0.0.0.0.0.0.0.0.0.0.0.0.0.0.0.0.0.0.0.3 S s 0. .,.I 0.0.0.0.0.0.0.0.0.0.0.0.0.0.",
"0.0.0.0.0.0.0.0.0.0.0.0.0.0.0.8 0.0.0.g I s 0.-.1.) 0.0.0.0.0.0.0.0.0.0.0.0.0.0.",
"0.0.0.0.0.0.0.0.0.0.0.0.0.0.0.s 0.0.0.u = # m @...=./ 0.0.0.0.0.0.0.0.0.0.0.0.0.",
"0.0.0.0.0.0.0.0.0.0.0.0.0.0.0.3 0.0.0.c ;   . = s  .^ 0.0.0.0.0.0.0.0.0.0.0.0.0.",
"0.0.0.0.0.0.0.0.0.0.0.0.0.0.0.0.0.0.0.0.M % + % < 0.0.0.0.0.0.0.0.0.0.0.0.0.0.0.",
"0.0.0.0.0.0.0.0.0.0.0.0.0.0.0.0.u 0.0.0.0.' E s 8 < 0.0.0.0.0.0.0.0.0.0.0.0.0.0.",
"0.0.0.0.0.0.0.0.0.0.0.0.0.0.0.0.s g 0.0.0.F g u V 8 0.0.0.0.0.0.0.0.0.0.0.0.0.0.",
"0.0.0.0.0.0.0.0.0.0.0.0.0.0.0.0.0.u 0.0.0.0.0.0.u < 0.0.0.0.0.0.0.0.0.0.0.0.0.0.",
"0.0.0.0.0.0.0.0.0.0.0.0.0.0.0.0.0.0.0.0.0.0.0.0.0.0.0.0.0.0.0.0.0.0.0.0.0.0.0.0.",
"0.0.0.0.0.0.0.0.0.0.0.0.0.0.0.0.0.0.0.0.0.0.0.0.0.0.0.0.0.0.0.0.0.0.0.0.0.0.0.0.",
"0.0.0.0.0.0.0.0.0.0.0.0.0.0.0.0.0.0.0.0.0.0.0.0.0.0.0.0.0.0.0.0.0.0.0.0.0.0.0.0.",
"0.0.0.0.0.0.0.0.0.0.0.0.0.0.0.0.0.0.0.0.0.0.0.0.0.0.0.0.0.0.0.0.0.0.0.0.0.0.0.0.",
"0.0.0.0.0.0.0.0.0.0.0.0.0.0.0.0.0.0.0.0.0.0.0.0.0.0.0.0.0.0.0.0.0.0.0.0.0.0.0.0.",
"0.0.0.0.0.0.0.0.0.0.0.0.0.0.0.0.0.0.0.0.0.0.0.0.0.0.0.0.0.0.0.0.0.0.0.0.0.0.0.0.",
"0.0.0.0.0.0.0.0.0.0.0.0.0.0.0.0.0.0.0.0.0.0.0.0.0.0.0.0.0.0.0.0.0.0.0.0.0.0.0.0.",
"0.0.0.0.0.0.0.0.0.0.0.0.0.0.0.0.0.0.0.0.0.0.0.0.0.0.0.0.0.0.0.0.0.0.0.0.0.0.0.0.",
"0.0.0.0.0.0.0.0.0.0.0.0.0.0.0.0.0.0.0.0.0.0.0.0.0.0.0.0.0.0.0.0.0.0.0.0.0.0.0.0.",
"0.0.0.0.0.0.0.0.0.0.0.0.0.0.0.0.0.0.0.0.0.0.0.0.0.0.0.0.0.0.0.0.0.0.0.0.0.0.0.0."
};
