/* XPM */
static char *_574442230981[] = {
/* columns rows colors chars-per-pixel */
"40 40 222 2 ",
"   c #030000",
".  c #0B0000",
"X  c #0E0000",
"o  c #120000",
"O  c #130000",
"+  c #150100",
"@  c #170000",
"#  c #190100",
"$  c #1D0000",
"%  c #210000",
"&  c #210100",
"*  c #220200",
"=  c #240000",
"-  c #260000",
";  c #270000",
":  c #2A0000",
">  c #2B0000",
",  c #2C0000",
"<  c #2D0000",
"1  c #2E0000",
"2  c #2F0000",
"3  c #2F0100",
"4  c #300000",
"5  c #310000",
"6  c #300100",
"7  c #330000",
"8  c #370000",
"9  c #370100",
"0  c #340200",
"q  c #330500",
"w  c #340600",
"e  c #380000",
"r  c #390000",
"t  c #3A0000",
"y  c #3B0000",
"u  c #390300",
"i  c #3C0000",
"p  c #3E0000",
"a  c #3F0000",
"s  c #3C0400",
"d  c #3F0600",
"f  c #340D00",
"g  c #400000",
"h  c #410000",
"j  c #410300",
"k  c #470000",
"l  c #460200",
"z  c #410500",
"x  c #470600",
"c  c #480000",
"v  c #490000",
"b  c #490100",
"n  c #4B0000",
"m  c #4A0300",
"M  c #4C0000",
"N  c #4C0100",
"B  c #4E0100",
"V  c #4C0200",
"C  c #4E0300",
"Z  c #4F0300",
"A  c #480400",
"S  c #4B0500",
"D  c #480600",
"F  c #4A0600",
"G  c #4D0500",
"H  c #4C0600",
"J  c #4E0600",
"K  c #470900",
"L  c #480800",
"P  c #4F0B00",
"I  c #4C0C00",
"U  c #4C0D00",
"Y  c #4C0E00",
"T  c #520000",
"R  c #520100",
"E  c #540000",
"W  c #550000",
"Q  c #540300",
"!  c #550300",
"~  c #560300",
"^  c #530400",
"/  c #510700",
"(  c #520600",
")  c #540600",
"_  c #5B0300",
"`  c #5C0300",
"'  c #580500",
"]  c #590500",
"[  c #5D0400",
"{  c #5C0500",
"}  c #5F0500",
"|  c #500900",
" . c #540900",
".. c #540B00",
"X. c #500D00",
"o. c #5B0900",
"O. c #590A00",
"+. c #5C0900",
"@. c #5F0900",
"#. c #590C00",
"$. c #5C0C00",
"%. c #481000",
"&. c #4A1000",
"*. c #4D1100",
"=. c #4E1400",
"-. c #541100",
";. c #511700",
":. c #5C1200",
">. c #5D1200",
",. c #5A1500",
"<. c #501800",
"1. c #620200",
"2. c #640200",
"3. c #650200",
"4. c #600500",
"5. c #610600",
"6. c #660400",
"7. c #650700",
"8. c #6B0300",
"9. c #6D0300",
"0. c #680500",
"q. c #680600",
"w. c #680700",
"e. c #610B00",
"r. c #660A00",
"t. c #670B00",
"y. c #610C00",
"u. c #660C00",
"i. c #690B00",
"p. c #6E0B00",
"a. c #690D00",
"s. c #6B0D00",
"d. c #6A0E00",
"f. c #6B0E00",
"g. c #6A0F00",
"h. c #6F0F00",
"j. c #700300",
"k. c #730500",
"l. c #710600",
"z. c #7D0600",
"x. c #750A00",
"c. c #7A0B00",
"v. c #7B0B00",
"b. c #790D00",
"n. c #780F00",
"m. c #7C0E00",
"M. c #661300",
"N. c #611400",
"B. c #621400",
"V. c #691100",
"C. c #6C1100",
"Z. c #6D1300",
"A. c #601A00",
"S. c #621A00",
"D. c #611D00",
"F. c #661D00",
"G. c #681800",
"H. c #6B1B00",
"J. c #6E1B00",
"K. c #6A1D00",
"L. c #711300",
"P. c #761300",
"I. c #711400",
"U. c #741500",
"Y. c #761600",
"T. c #791300",
"R. c #7D1100",
"E. c #7F1000",
"W. c #7D1200",
"Q. c #7B1600",
"!. c #741800",
"~. c #751A00",
"^. c #761B00",
"/. c #701C00",
"(. c #701E00",
"). c #7A1900",
"_. c #7B1B00",
"`. c #7D1B00",
"'. c #7E1D00",
"]. c #502B00",
"[. c #6E2400",
"{. c #6F2500",
"}. c #722800",
"|. c #820600",
" X c #811300",
".X c #811400",
"XX c #8C1700",
"oX c #801800",
"OX c #801C00",
"+X c #811D00",
"@X c #811F00",
"#X c #8A1800",
"$X c #881C00",
"%X c #891D00",
"&X c #8A1E00",
"*X c #8C1C00",
"=X c #941900",
"-X c #822200",
";X c #832200",
":X c #822600",
">X c #842800",
",X c #952700",
"<X c #9A2300",
"1X c #992400",
"2X c #902800",
"3X c #942E00",
"4X c #9F2800",
"5X c #9E3500",
"6X c #A62200",
"7X c #A72600",
"8X c #A82700",
"9X c #CA3E00",
"0X c #9B4000",
"qX c #A44300",
"wX c #AB4000",
"eX c #AC4100",
"rX c #A94400",
"tX c #CE4D00",
"yX c #D54800",
"uX c #D45800",
"iX c #DA5900",
"pX c None",
/* pixels */
"pXpXpXpXpXpXpXpXpXpXpXpXpXpXpXpXpXpXpXpXpXpXpXpXpXpXpXpXpXpXpXpXpXpXpXpXpXpXpXpX",
"pXpXpXpXpXpXpXpXpXpXpXpXpXpXpXpXpXpXpXpXpXpXpXpXpXpXpXpXpXpXpXpXpXpXpXpXpXpXpXpX",
"pXpXpXpXpXpXpXpXpXpXpXpXpXpXpXpXpXpXpXpXpXpXpXpXpXpXpXpXpXpXpXpXpXpXpXpXpXpXpXpX",
"pXpXpXpXpXpXpXpXpXpXpXpXpXpXpXpXpXpXpXpXpXpXpXpXpXpXpXpXpXpXpXpXpXpXpXpXpXpXpXpX",
"pXpXpXpXpXpXpXpXpXpXpXpXpXpXpXpXpXpXpXpXpXpXpXpXpXpXpXpXpXpXpXpXpXpXpXpXpXpXpXpX",
"pXpXpXpXpXpXpXpXpXpXpXpXpXpXpXpXpXpXpXpXpXpXpXpXpXpXpXpXpXpXpXpXpXpXpXpXpXpXpXpX",
"pXpXpXpXpXpXpXpXpXpXpXpXpXpXpXpXpXpXpXpXpXpXpXpXpXpXpXpXpXpXpXpXpXpXpXpXpXpXpXpX",
"pXpXpXpXpXpXpXpXpXpXpXpXpXpXpXpXpXpXpXpXpXpXpXpXpXpXpXpXpXpXpXpXpXpXpXpXpXpXpXpX",
"pXpXpXpXpXpXpXpXpXpXpXpXpXpXpXpXpXpXpXpXpXpXpX{ g pXpXpXpXpXpXpXpXpXpXpXpXpXpXpX",
"pXpXpXpXpXpXpXpXpXpXpXpXpXpXpXpXpXpXpXpXpXpXs..X] pXpXpXpX% : pXpXpXpXpXpXpXpXpX",
"pXpXpXpXpXpXpXpXpXpXpXpXpXpXpXpXpXpXpXpXpXpXt._.M.pXpXpXpX: 1 : pXpXpXpXpXpXpXpX",
"pXpXpXpXpXpXpXpXpXpXpXpXpXpXpXpXpXpXpXpXpX+.Z ( !.K.pXpXpX5 5 pXpXpXpXpXpXpXpXpX",
"pXpXpXpXpXpXpXpXpXpXpXpXpXpXpXpXpXpXpXpX .!.V.4.( % D.>.pXpXpXpXpXpXpXpXpXpXpXpX",
"pXpXpXpXpXpXpXpXpXpXpXpXpXpXpX: 5 c c pX+.-X,X&X .O {.2XpXpXpXpXpXpXpXpXpXpXpXpX",
"pXpXpXpXpXpXpXpXpXpXpXpXc 7 5 s L e.3.j.W.Z.I.-XV.5 D OXpXpXpXpXpXpXpXpXpXpXpXpX",
"pXpXpXpXpXpXpXpXc pXpXs.W.) 5 }.0XrX8X|.1.pX%.<.( g r pXpXpXpXpXpXpXpXpXpXpXpXpX",
"pXpXpXpXpXpXpXY.h.H pX!.<XQ.d K.rXiXyXW.i pXpX].pXr i pXpXpXpXpXpXpXpXpXpXpXpXpX",
"pXpXpXpXpXpXo.OXY.( pX(.3X5XJ.>.5XiX9Xc.pXpXpXpXpXpXpXpXpXpXpXpXpXpXpXpXpXpXpXpX",
"pXpXpXpXpXpXpX..o.r ; $.OX$Xt.N.qXtX8X6.pXpXpXpXpXpXpXpXpXpXpXpXpXpXpXpXpXpXpXpX",
"pXpXpXpXpXpXpXpXX.W c _ s.V.8.4.`.<Xs.r =.pXpXpXpXpXpXpXpXpXpXpXpXpXpXpXpXpXpXpX",
"pXpXpXpXpXpXpXpXpXZ W R A.K._.W.$XP.H U pXpXpXpXpXpXpXr pXpXpXpXpXpXpXpXpXpXpXpX",
"pXpXpXpXpXpXpXpXpXpXpXpXpX-.`.p.>XA.L y.pXpXr ] k.c $ 1 r pXpXpXpXpXpXpXpXpXpXpX",
"pXpXpXpXpXpXpXz pXpXpXpXpXpXi.4.x + ; 6. X(.g `.6X8.pXpXpXpXpXpXpXpXpXpXpXpXpXpX",
"pXpXpXpXpXpXpX*.D pXpXpXpXpX( D ;   q P.m.L.,.>X4Xz.W pXpXpXpXpXpXpXpXpXpXpXpXpX",
"pXpXpXpXpXpXpXpXpXpXpXpXpXpXH ] i X U s.R #.[.-X$X=Xv.pXpXpXpXpXpXpXpXpXpXpXpXpX",
"pXpXpXpXpXpXpXpXpXpXpXpXpXpXpXH 5 O d N.U 1 r _ k.XXv.pXpXpXpXpXpXpXpXpXpXpXpXpX",
"pXpXpXpXpXpXpXpXpXpXpXpXpXpXpX7 ; . # ;.G.{ k Z 8.Z pXpXpXpXpXpXpXpXpXpXpXpXpXpX",
"pXpXpXpXpXpXpXpXpXpXpXpXpXpXpXL ( r # # U *XT.W c r pXpXpXpXpXpXpXpXpXpXpXpXpXpX",
"pXpXpXpXpXpXpXpXpXpXpXpXpX5 f w { 9.c % &.Z.t.` W k pXpXpXpXpXpXpXpXpXpXpXpXpXpX",
"pXpXpXpXpXpXpXpXpXpXpXpXpXpXpXpXR 3.W pXpXpXpXc Z g pXpXpXpXpXpXpXpXpXpXpXpXpXpX",
"pXpXpXpXpXpXpXpXpXpXpXpXpXpXpXpXpXpXpXpXpXpXpXpX1 pXpXpXpXpXpXpXpXpXpXpXpXpXpXpX",
"pXpXpXpXpXpXpXpXpXpXpXpXpXpXpXpXpXpXpXpXpXpXpXpXpXpXpXpXpXpXpXpXpXpXpXpXpXpXpXpX",
"pXpXpXpXpXpXpXpXpXpXpXpXpXpXpXpXpXpXpXpXpXpXpXpXpXpXpXpXpXpXpXpXpXpXpXpXpXpXpXpX",
"pXpXpXpXpXpXpXpXpXpXpXpXpXpXpXpXpXpXpXpXpXpXpXpXpXpXpXpXpXpXpXpXpXpXpXpXpXpXpXpX",
"pXpXpXpXpXpXpXpXpXpXpXpXpXpXpXpXpXpXpXpXpXpXpXpXpXpXpXpXpXpXpXpXpXpXpXpXpXpXpXpX",
"pXpXpXpXpXpXpXpXpXpXpXpXpXpXpXpXpXpXpXpXpXpXpXpXpXpXpXpXpXpXpXpXpXpXpXpXpXpXpXpX",
"pXpXpXpXpXpXpXpXpXpXpXpXpXpXpXpXpXpXpXpXpXpXpXpXpXpXpXpXpXpXpXpXpXpXpXpXpXpXpXpX",
"pXpXpXpXpXpXpXpXpXpXpXpXpXpXpXpXpXpXpXpXpXpXpXpXpXpXpXpXpXpXpXpXpXpXpXpXpXpXpXpX",
"pXpXpXpXpXpXpXpXpXpXpXpXpXpXpXpXpXpXpXpXpXpXpXpXpXpXpXpXpXpXpXpXpXpXpXpXpXpXpXpX",
"pXpXpXpXpXpXpXpXpXpXpXpXpXpXpXpXpXpXpXpXpXpXpXpXpXpXpXpXpXpXpXpXpXpXpXpXpXpXpXpX"
};
