/* XPM */
static char *_fdd19d308ca43bca6e2d46bfe762062[] = {
/* columns rows colors chars-per-pixel */
"40 40 179 2 ",
"   c None",
".  c #030000",
"X  c #0F0000",
"o  c #160000",
"O  c #1D0000",
"+  c #250000",
"@  c #2B0000",
"#  c #340100",
"$  c #3D0100",
"%  c #430000",
"&  c #4B0100",
"*  c #4D0C00",
"=  c #540200",
"-  c #5B0300",
";  c #540A00",
":  c #5D0C00",
">  c #431B00",
",  c #4F1800",
"<  c #511200",
"1  c #5B1100",
"2  c #640200",
"3  c #6B0500",
"4  c #640900",
"5  c #6B0B00",
"6  c #730500",
"7  c #7E0700",
"8  c #720C00",
"9  c #7A0B00",
"0  c #631300",
"q  c #6D1400",
"w  c #661800",
"e  c #6B1900",
"r  c #761400",
"t  c #7B1200",
"y  c #721A00",
"u  c #7D1D00",
"i  c #5F2400",
"p  c #5B2F00",
"a  c #672700",
"s  c #6E2200",
"d  c #662B00",
"f  c #6F2E00",
"g  c #712700",
"h  c #7D2200",
"j  c #732900",
"k  c #7E3200",
"l  c #820C00",
"z  c #851200",
"x  c #8E1600",
"c  c #821A00",
"v  c #8B1B00",
"b  c #921600",
"n  c #951D00",
"m  c #9C1B00",
"M  c #A31C00",
"N  c #A91C00",
"B  c #B01B00",
"V  c #852100",
"C  c #8E2400",
"Z  c #8B2C00",
"A  c #942200",
"S  c #9F2300",
"D  c #962D00",
"F  c #992E00",
"G  c #8B3C00",
"H  c #953500",
"J  c #9A3200",
"K  c #963C00",
"L  c #9B3A00",
"P  c #A52300",
"I  c #AB2200",
"U  c #A72A00",
"Y  c #AD2C00",
"T  c #B12600",
"R  c #B42C00",
"E  c #B92900",
"W  c #A73400",
"Q  c #AA3400",
"!  c #A43D00",
"~  c #AD3900",
"^  c #B43400",
"/  c #BB3500",
"(  c #B53900",
")  c #BC3900",
"_  c #C32D00",
"`  c #CB2E00",
"'  c #C43100",
"]  c #C33C00",
"[  c #CA3E00",
"{  c #D03400",
"}  c #854200",
"|  c #8F4B00",
" . c None",
".. c #A64300",
"X. c #AB4500",
"o. c #A24A00",
"O. c #AE4E00",
"+. c #B64300",
"@. c #BC4100",
"#. c #B24D00",
"$. c #BD4D00",
"%. c #AC5C00",
"&. c #BC5500",
"*. c #BB5C00",
"=. c #B35400",
"-. c #B76500",
";. c #BF6A00",
":. c #BE7700",
">. c #C54200",
",. c #CF4500",
"<. c #C34C00",
"1. c #CB4B00",
"2. c #D04600",
"3. c #D54D00",
"4. c #DE4D00",
"5. c #C35300",
"6. c #CB5400",
"7. c #C45B00",
"8. c #CC5B00",
"9. c #D45400",
"0. c #DD5600",
"q. c #D25C00",
"w. c #DB5C00",
"e. c #E25A00",
"r. c #C56300",
"t. c #CE6500",
"y. c #C56B00",
"u. c #CF6E00",
"i. c #D36400",
"p. c #DC6500",
"a. c #D46B00",
"s. c #DC6D00",
"d. c #C97B00",
"f. c #D77000",
"g. c #DC7300",
"h. c #DC7A00",
"j. c #E46400",
"k. c #E96400",
"l. c #E36D00",
"z. c #EB6B00",
"x. c #F46700",
"c. c #E27300",
"v. c #EB7400",
"b. c #E27A00",
"n. c #EB7C00",
"m. c #F87600",
"M. c #F17B00",
"N. c #CA8300",
"B. c #DE8C00",
"V. c #E68200",
"C. c #EB8100",
"Z. c #E68900",
"A. c #EB8900",
"S. c #F38300",
"D. c #F38C00",
"F. c #FE8E00",
"G. c #FA8400",
"H. c #E79500",
"J. c #EB9200",
"K. c #ED9E00",
"L. c #F49300",
"P. c #FB9200",
"I. c #F49D00",
"U. c #FB9E00",
"Y. c #EDA300",
"T. c #F3A400",
"R. c #FBA500",
"E. c #F4AE00",
"W. c #FBAC00",
"Q. c #FBB300",
"!. c #F7B800",
"~. c #FCBB00",
"^. c #F7C300",
"/. c #FDC300",
"(. c #FDCA00",
"). c #FED300",
"_. c #FCDA00",
"`. c #FFE500",
"'. c #FFEC00",
/* pixels */
"                                                                                ",
"                                                                                ",
"                                                                                ",
"                                                                                ",
"                                                                                ",
"                                      #           # % % % =                     ",
"                                      $ $ 4 4 % ; * + @ - - =                   ",
"                                        4 c 5 : q 0 @ @ : 4 % % =               ",
"                  4                     y c c c 5 0 % # : 4 $ % 2 -             ",
"    = & #     ; t U x                 Z Z +.$.) l $ $ = y r - % % -             ",
"    = $ #       h ~ P x 4 c L       Z 7.i.n.C.c.1.h = 4 c v l = + % &           ",
"    # #         y L n N I <.g.@.A u r.E.J.n.p.s.A.h.v z n x 7 2 % % &           ",
"      + O       : J ( 9.e.l.L.$.u V &.J.E.J.w.j.p.a.a.q.@.A z 7 6 3 =           ",
"        . X @ % q =.b.R.D.p.a.X.h C Q 8.W.Q.n.S.q.+.E.Q.$.t 3 9 7 6 =           ",
"      $ O o & U 6.i.b.T.P.z.<.r.y.&.9.k.~./.R.W.g.U h.E.X.- % & = &             ",
"      % & 4 +.M.S.g.5.g.D.F.I.!.!.I.D.m.n.V.W.Q.b.M I ] 9 &                     ",
"      < t +.S.D.C.s.7.g.D.R.(.(.~.Q.F.x.j.Z._.(.7.m T N R v                     ",
"      , L s.D.J.g.q.i.g.A.(.`.(.Q.R.G.k.E._.(.Y.&.V ( / 2.^                     ",
"        #.g.L.J.l.9.3.f.A.L.W.~.Q.U.G.v.(.`.H.$.A u ! +.6.^ 6                   ",
"        L 7.f.a.8.3.,.l.n.v.Q./.~.W.R.Q.'.^.f.^ x v &.8.7.A 3                   ",
"        s  .o.-.&.@.0.n.b.A.~.~.(.W.!.'.`.J.W v I >.Z.n.1.A =                   ",
"        q g f y.6.] q.J.T./.).W./.T.Y._./.E.! q R ` ,.[ I A :                   ",
"        0 w f +.2._ A *.K.T.I.L.n.a.V.L.T.!.h.$.0.{ _ [ Y z &                   ",
"        * w H 5.>.M 2 r 5.i.C.n.j.6.s.n.n.c.p.w.j.e.3.Y c 6 2                   ",
"        s G -.s.>.P 9 t K H t.p.,.W r.b.s.g.c.k.j.G.e.A % 4 3                   ",
"      1  .#.r.i.R n 5 c X.o.f.9./ R t.Y.E.T.L.z.M.P.x.T                         ",
"      a } J X.~ l 4 * J <.t.t.&.P E 3.T.(.U.M.w.p.z.0.m                         ",
"          4 q r     | B.s.*.O.X.^ >.w.R.R.n.0.>.<.) m l                         ",
"                    } N.;.%.%.#.<.p.A.Q.W.l.9./ P 6 =                           ",
"                      1 k :.d.&.q.z.A.K.A.j.3.] P 6 =                           ",
"                      @ $ j K 6.9.1.] ( 6.9.( m b 7 %                           ",
"                        # @ % Z A 6 5 5 Z K D 9 2                               ",
"                        ; & % @ % &     d a q r -                               ",
"                        * 5 2 & & %                                             ",
"                        p h 9 8 =                                               ",
"                        > ; 5 8 -                                               ",
"                                                                                ",
"                                                                                ",
"                                                                                ",
"                                                                                "
};
