/* XPM */
static char *_0de256007754231c7636014a2b085fd[] = {
/* columns rows colors chars-per-pixel */
"40 40 184 2 ",
"   c None",
".  c #0D0000",
"X  c #110000",
"o  c #1E0000",
"O  c #240100",
"+  c #2B0000",
"@  c #330100",
"#  c #3C0100",
"$  c #3E0C00",
"%  c #430100",
"&  c #4C0200",
"*  c #460A00",
"=  c #4F0D00",
"-  c #520200",
";  c #5D0200",
":  c #520D00",
">  c #5D0A00",
",  c #451400",
"<  c #551300",
"1  c #5C1200",
"2  c #5D1B00",
"3  c #630200",
"4  c #6C0200",
"5  c #640A00",
"6  c #6D0E00",
"7  c #730200",
"8  c #7B0300",
"9  c #730D00",
"0  c #7C0C00",
"q  c #661600",
"w  c #6C1600",
"e  c #631800",
"r  c #6D1800",
"t  c #751500",
"y  c #7B1400",
"u  c #741A00",
"i  c #7B1C00",
"p  c #532100",
"a  c #5D2500",
"s  c #463900",
"d  c #4A3D00",
"f  c #672200",
"g  c #6E2200",
"h  c #6B2900",
"j  c #702100",
"k  c #7E2400",
"l  c #792900",
"z  c #733700",
"x  c #7F3600",
"c  c #634800",
"v  c #7D4D00",
"b  c #715B00",
"n  c #830400",
"m  c #8A0100",
"M  c #860B00",
"N  c #890E00",
"B  c #821300",
"V  c #8B1300",
"C  c #8B1B00",
"Z  c #841D00",
"A  c #951400",
"S  c #991300",
"D  c #951B00",
"F  c #9C1A00",
"G  c #A21500",
"H  c #AB1D00",
"J  c #872200",
"K  c #892300",
"L  c #8C2A00",
"P  c #962400",
"I  c #9A2300",
"U  c #9C2B00",
"Y  c #823000",
"T  c #8D3400",
"R  c #8B3800",
"E  c #993000",
"W  c #933900",
"Q  c #993A00",
"!  c #A32300",
"~  c #AD2700",
"^  c #A52900",
"/  c #A92C00",
"(  c #B52A00",
")  c #A33400",
"_  c #AB3500",
"`  c #A53B00",
"'  c #AF3900",
"]  c #B33E00",
"[  c #BF3A00",
"{  c #BA3500",
"}  c #C23500",
"|  c #C73800",
" . c None",
".. c #954100",
"X. c #9F4100",
"o. c #924C00",
"O. c #8A5500",
"+. c #A64400",
"@. c #A34800",
"#. c #AF4F00",
"$. c #B54200",
"%. c #BE4100",
"&. c #BC4C00",
"*. c #AF5300",
"=. c #AC5900",
"-. c #A35B00",
";. c #B05100",
":. c #BF5300",
">. c #BB6600",
",. c #BB6A00",
"<. c #AF7400",
"1. c #CC4500",
"2. c #CC4B00",
"3. c #D04700",
"4. c #D14F00",
"5. c #DC4F00",
"6. c #C85000",
"7. c #D45300",
"8. c #DA5300",
"9. c #DE5B00",
"0. c #E45A00",
"q. c #C56300",
"w. c #CA6200",
"e. c #C66900",
"r. c #C96A00",
"t. c #D46500",
"y. c #DE6400",
"u. c #D46A00",
"i. c #DC6B00",
"p. c #C57300",
"a. c #CF7400",
"s. c #CD7B00",
"d. c #C37D00",
"f. c #D77300",
"g. c #D87000",
"h. c #D37800",
"j. c #DF7E00",
"k. c #E36300",
"l. c #E46C00",
"z. c #EC6C00",
"x. c #EB7300",
"c. c #EC7B00",
"v. c #E47C00",
"b. c #F47D00",
"n. c #C68000",
"m. c #DD8D00",
"M. c #DC8500",
"N. c #E38100",
"B. c #EB8300",
"V. c #EB8C00",
"C. c #F48300",
"Z. c #FA8400",
"A. c #F48B00",
"S. c #FA8C00",
"D. c #E69400",
"F. c #ED9300",
"G. c #E69800",
"H. c #EF9800",
"J. c #F49200",
"K. c #F99400",
"L. c #F59D00",
"P. c #FC9C00",
"I. c #E5A700",
"U. c #EDA700",
"Y. c #E8AC00",
"T. c #F6A600",
"R. c #FCA400",
"E. c #F2AB00",
"W. c #FDAB00",
"Q. c #EEBE00",
"!. c #F3B100",
"~. c #FDB300",
"^. c #FDBB00",
"/. c #F4BB00",
"(. c #F7C700",
"). c #FEC400",
"_. c #F7CC00",
"`. c #FECC00",
"'. c #FFD400",
"]. c #FFDC00",
"[. c #FFE400",
"{. c #FFEB00",
"}. c #FFF300",
"|. c #FFFC00",
/* pixels */
"                                                                                ",
"                                                                                ",
"                                                                                ",
"                                                    & %                         ",
"                                                  - 4 ; ; 4 ;                 % ",
"                                    # & Z B ; > = # # % 3 7 4                 # ",
"                                      u ] / t l j # + & t 0 3 - &               ",
"                                      T _ U y u k : @ % t C 3 ; 7 M 3           ",
"    9 4 >         C A               r Q U U U U 6 # # & w y 7 4 8 F 0           ",
"  q J B 5 :     X.i.7.I I D 0     k +.:.t.F.F.z.! # % w K D N 4 ; 8 8           ",
"  e i 6 - #   Y w.v.9.3.k.V.M.7.` r.F.L.^.).W.P.y.P - B _ { G 4 - 3 7 -         ",
"  & > 1 - #   q ;.f.c.Z.P.].{.F.6.m.'.{.].^.^.`.`.D.P A ~ ( G m 3 & 4 -         ",
"    * * % # # % ) N.~.W.~.{.{.F.$.h.'.|.{.`.R.~.{.'.N.8.} D n m 8 ; 3           ",
"    @ + + O - V t._.[.`.].{.'.H.u.j./.[.}.[.^.W.).].[.E.1.V ; 4 8 7 3           ",
"    $ : @ # ! z.).}.[.`.[.[.`.).E.F.W.[.}.{.].[.~.~.|.[.2.B 3 & ; 3 &           ",
"    < r t _ C.~.'.[.`.^.].{.{.}.{.].'.].}.[.}.|.~.c.!.^.9.^ 3 @ % - %           ",
"      < ` c.~.^.'.'.^.J.).{.|.|.|.|.{.`.[.{.|.{.B. .2.z.b.9.V                   ",
"    s O.M.R.^.^.`.^.T.J.~.{.|.|.{.}.{.[.|.|.|.].c.2.2.k.C.0.D                   ",
"    d v M.~.`.].`.~.P.R.).[.|.}.{.{.|.|.|.|.].R.x.i.l.V.B.7.} 9                 ",
"      f >.E.).'.`.W.R.W.).[.|.|.|.{.}.|.|.|.).K.S.W./.'.T.2.D 7                 ",
"        p.`.`.`.`.^.W.W.'.}.|.|.|.|.|.|.|.}.^.P.P.).}.`.J.k.V ;                 ",
"        e.D.Y.).'.).'.].}.{.}.}.}.|.|.|.|.}.~.W.W.~.`.~.b.8.A &                 ",
"      2 W *.e.D.~.~.'.{.{.[.{.[.[.{.{.{.{.{.T.R.~.S.C.P.R.7.G 3                 ",
"      , x @.:.y.C.C.A.).).'.].'.].'.`.'.`.^.K.P.^.R.S.z.x. .S                   ",
"      2 =.a.a.V.K.z.0.S.E.).`.^.'.'.].{.'.).~.R.).W.K.1.$.^ 7                   ",
"      g ,.E.!.!.L.x.A.~.).'.'.L.~.^.`.|.|.{.`.R.).^.P.8.N >                     ",
"      h <.m.E.~.c.l.~.].].'.).W.W.P.).}.|.].~.W.).W.K.0.F                       ",
"        z L &.u.2.k.T.{.}./.B.A.J.K.).[.}.'.P.P.W.S.0. .S                       ",
"            & * * E e.I.Q.U.U.A.S.^.].{.'.W.S.Z.b.2.H 7 -                       ",
"        + @ X . X , g ..n.I./.T.~.'.{.[.`.R.Z.z.1.G 8 &                         ",
"        # % @ o O $ 2 a o.d.f.L.^.L.~./.~.~.Z.8.| H 7                           ",
"          % % +     $ f k K ^ [ 7.y.z.B.L.W.x.} G 0                             ",
"                      j K D n 8 ^ [ ' =.s.u.$.^ 0                               ",
"                      a R _ A n 8 9     R K t Z 6                               ",
"                    d b -.$.^ H C 3                                             ",
"                      c g K U ` D >                                             ",
"                          & 5 6 5 %                                             ",
"                                                                                ",
"                                                                                ",
"                                                                                "
};
