/* XPM */
static char *e2c349c4fc7c41d8bbc79788746b41a5[] = {
/* columns rows colors chars-per-pixel */
"40 40 99 2 ",
"   c None",
".  c #010000",
"X  c #0D0000",
"o  c #150000",
"O  c #1C0200",
"+  c #230000",
"@  c #2C0000",
"#  c #2D0800",
"$  c #340100",
"%  c #3C0100",
"&  c #300800",
"*  c #3F0C00",
"=  c #440100",
"-  c #4C0200",
";  c #430B00",
":  c #4C0900",
">  c #530200",
",  c #5C0200",
"<  c #540B00",
"1  c #5B0B00",
"2  c #461000",
"3  c #4D1400",
"4  c #561200",
"5  c #5D1300",
"6  c #5E1B00",
"7  c #640300",
"8  c #690400",
"9  c #630A00",
"0  c #6A0C00",
"q  c #720B00",
"w  c #7A0C00",
"e  c #611400",
"r  c #6D1400",
"t  c #621900",
"y  c #6B1F00",
"u  c #741400",
"i  c #7A1300",
"p  c #731C00",
"a  c #7B1A00",
"s  c #572600",
"d  c #612000",
"f  c #6A2100",
"g  c #722200",
"h  c #792700",
"j  c #7A2C00",
"k  c #753B00",
"l  c #794400",
"z  c #850D00",
"x  c #890900",
"c  c #811400",
"v  c #8D1000",
"b  c #841B00",
"n  c #8C1A00",
"m  c #931400",
"M  c #9D1500",
"N  c #961D00",
"B  c #842200",
"V  c #8E2300",
"C  c #842B00",
"Z  c #8D2B00",
"A  c #942300",
"S  c #9E2200",
"D  c #952900",
"F  c #9B2D00",
"G  c #843000",
"H  c #8B3100",
"J  c #8B3A00",
"K  c #903300",
"L  c #9D3700",
"P  c #953B00",
"I  c #993D00",
"U  c #A52400",
"Y  c #A42A00",
"T  c #B32C00",
"R  c #A43300",
"E  c #AB3400",
"W  c #A73C00",
"Q  c #B53500",
"!  c #B53B00",
"~  c #BC3B00",
"^  c #C33700",
"/  c #9B4400",
"(  c #A84000",
")  c #AD4B00",
"_  c #B04500",
"`  c #B84100",
"'  c #B34B00",
"]  c #B94800",
"[  c #B15000",
"{  c #C34000",
"}  c #C25200",
"|  c #C45A00",
" . c None",
".. c #DC5500",
"X. c #E55700",
"o. c #E15E00",
"O. c #C36100",
"+. c #EA6700",
"@. c #EB6F00",
/* pixels */
"                                                                                ",
"                                                                                ",
"                                                                                ",
"                                                                                ",
"                                                                                ",
"                                                                                ",
"                                                                                ",
"                                                $                               ",
"                                            9 0 >         @                     ",
"                                            b S q         $ $ $                 ",
"                  -                       0 b D a       $ % % @                 ",
"                  - >                 & r V 9 9 Z h   - = = = + +               ",
"                    -       = : % - % o t L V i 9 $ p b - @ $ +                 ",
"                        , - < : % , , > C W ! ! r + P ` 9                       ",
"                      9 0 > 1 5 t u z m ~ R D ' D > i R r                       ",
"              i i - $ B U b 1 / | | ^ M c 1 g J r > = %                         ",
"          @ h E D > $ C ! E B /  .@.X.M , % k l % : , = $                       ",
"          > D ( V 1 < Z ' } ) I ] @...M 7 = 5 6 + + > , $                       ",
"          1 p p a > - h W R n / | o.{ n u y < @ o . + % >                       ",
"              ; t q 8 c V A w n E ~ N 0 / j $ X . . o @ $                       ",
"                2 1 w c C H F U E D u y t # + @ O o 4 9 >                       ",
"              % @     1 y h ] E ' C e A u t ; 0 w > % - >                       ",
"              1 >         t L V r $ < S E [ g B T x > =                         ",
"            3 f 0 $         u 0 - o 4 F A E J Z E M c                           ",
"            3 < :           5 0 > + t B q C / F Y Q S                           ",
"                            : 9 % + 5 C p 9 a c S Q U                           ",
"            =                 : = + $ j L n w 8 i q 9                           ",
"                        1 > * 6 w 8 - < C Q N 9 , - %                           ",
"                        4 < s 3 i v w y j D V w 7 >                             ",
"                          % 2 % e n q 9 < 1 1 0 7 -                             ",
"                              $ - 8         $ % % %                             ",
"                                              +                                 ",
"                                                                                ",
"                            %                                                   ",
"                            %                                                   ",
"                                                                                ",
"                                                                                ",
"                                                                                ",
"                                                                                ",
"                                                                                "
};
