/* XPM */
static char *_67d5d873bf54039a8ba92a05f676f2d[] = {
/* columns rows colors chars-per-pixel */
"40 40 187 2 ",
"   c None",
".  c #010000",
"X  c #0B0000",
"o  c #1F0000",
"O  c #240000",
"+  c #2E0100",
"@  c #330000",
"#  c #3B0200",
"$  c #3C0900",
"%  c #381300",
"&  c #430000",
"*  c #4B0000",
"=  c #4F0E00",
"-  c #410A00",
";  c #550100",
":  c #5C0000",
">  c #5F0D00",
",  c #441600",
"<  c #571000",
"1  c #650200",
"2  c #6C0300",
"3  c #600900",
"4  c #750200",
"5  c #7A0200",
"6  c #7C0C00",
"7  c #760B00",
"8  c #671B00",
"9  c #7C1300",
"0  c #701500",
"q  c #582700",
"w  c #5C3500",
"e  c #6E2000",
"r  c #602400",
"t  c #742400",
"y  c #7F2000",
"u  c #7C2900",
"i  c #673100",
"p  c #6D3100",
"a  c #763D00",
"s  c #5A4600",
"d  c #6C4200",
"f  c #7F6100",
"g  c #820200",
"h  c #8B0500",
"j  c #850B00",
"k  c #8B0C00",
"l  c #910C00",
"z  c #9A0D00",
"x  c #980300",
"c  c #8D1A00",
"v  c #831B00",
"b  c #961200",
"n  c #9C1000",
"m  c #941D00",
"M  c #9D1A00",
"N  c #A11500",
"B  c #AB1C00",
"V  c #A81300",
"C  c #BB1D00",
"Z  c #8C2400",
"A  c #862D00",
"S  c #812600",
"D  c #952A00",
"F  c #992700",
"G  c #943900",
"H  c #953200",
"J  c #AA2500",
"K  c #A22A00",
"L  c #A92E00",
"P  c #B42A00",
"I  c #BB2C00",
"U  c #B72200",
"Y  c #A63300",
"T  c #AD3400",
"R  c #B63300",
"E  c #BA3400",
"W  c #BA3C00",
"Q  c #B13E00",
"!  c #C42300",
"~  c #C33300",
"^  c #C93D00",
"/  c #C33800",
"(  c #8E5000",
")  c #805A00",
"_  c #9D5800",
"`  c #AA4400",
"'  c #A54C00",
"]  c #A54500",
"[  c #B74700",
"{  c #B85900",
"}  c #8C6400",
"|  c #9A6500",
" . c #987000",
".. c None",
"X. c #AC6B00",
"o. c #A56D00",
"O. c #BE6700",
"+. c #B36100",
"@. c #AD7100",
"#. c #A27900",
"$. c #C64B00",
"%. c #CC4700",
"&. c #D74700",
"*. c #C45300",
"=. c #C95C00",
"-. c #C95600",
";. c #DF5100",
":. c #D55B00",
">. c #DC5D00",
",. c #E14900",
"<. c #E45200",
"1. c #E15C00",
"2. c #CA6700",
"3. c #D46C00",
"4. c #D76500",
"5. c #D47400",
"6. c #EB6800",
"7. c #EC7600",
"8. c #F37300",
"9. c #F47B00",
"0. c #F87F00",
"q. c #9A8900",
"w. c #A58F00",
"e. c #BB8B00",
"r. c #BEA900",
"t. c #DF8A00",
"y. c #D29C00",
"u. c #EA8000",
"i. c #EC8E00",
"p. c #E28300",
"a. c #F28A00",
"s. c #F58700",
"d. c #ED9C00",
"f. c #EE9100",
"g. c #F49F00",
"h. c #FB9C00",
"j. c #F99300",
"k. c #DCA700",
"l. c #D0B700",
"z. c #DFBA00",
"x. c #ECA400",
"c. c #EFAE00",
"v. c #F2A300",
"b. c #FDA500",
"n. c #FEAA00",
"m. c #F2B600",
"M. c #FFB200",
"N. c #FBBA00",
"B. c #EAC800",
"V. c #FFC300",
"C. c #FDCC00",
"Z. c #ECD400",
"A. c #F4D500",
"S. c #FFD400",
"D. c #FEDC00",
"F. c #F4E300",
"G. c #FEE300",
"H. c #FFEB00",
"J. c #FFF400",
"K. c #FFFE00",
"L. c #FFFF0B",
"P. c #FFFF12",
"I. c #FFFF1B",
"U. c #FFFF24",
"Y. c #FFFF36",
"T. c #FFFF3F",
"R. c #FFFF44",
"E. c #FFFF4B",
"W. c #FFFF5C",
"Q. c #FFFF53",
"!. c #FFFF63",
"~. c #FFFF7D",
"^. c #FFFF75",
"/. c #FFFF88",
"(. c #FFFF90",
"). c #FFFF9E",
"_. c #FFFFA2",
"`. c #FFFFAF",
"'. c #FFFFB5",
"]. c #FFFFBC",
"[. c #FFFFC4",
"{. c #FFFFD5",
"}. c #FFFFD8",
"|. c #FFFFE4",
" X c #FFFFED",
".X c #FFFFF5",
"XX c #FFFFFE",
/* pixels */
"                                                                                ",
"                                                                                ",
"                                                                                ",
"                                              * 2 k j 7         o               ",
"                                g 6 v 8     O @ 3 c N x 2                       ",
"                            y W ~ E *.' t + . X < Z z x 4 ;   +                 ",
"                          A 5.h.9.>.2.{ G $ . X = D M h 5 5 5 2                 ",
"                6 0       O.N.V.n.7.$.Q H - . . # Z K l g l J J 6               ",
"            T I J ` G A { c.S.V.n.b.u.6.E 3 # # = S Z n z n R %.m               ",
"          A 2.:.$.3.u.f.N.S.D.S.C.D.S.M.s.4.$.~ D H F K M j c R m               ",
"          ' =.-.4.g.n.M.S.G.J.H.H.K.K.G.V.C.M.9.1.$.P B l 1 * 7 6               ",
"        t ] [ [ d.V.V.D.J.K.K.K.K.K.K.K.J.J.J.S.b.9.<.B h 1 + + &               ",
"        8 u ` t.C.S.G.K.K.K.K.K.K.K.K.K.K.K.K.K.D.h.8.I g 1 o X O               ",
"        = q +.d.N.D.J.K.K.K.K.K.K.K.K.K.K.K.K.K.J.C.h./ 4 : @ O #               ",
"        % w @.d.v.C.J.K.K.K.K.K.K.K.K.K.K.K.K.K.J.D.n.&.4 ; # # *               ",
"        , w @.x.x.C.J.K.K.K.K.K.K.I.L.K.K.K.K.K.K.H.V.8.N 1 & @                 ",
"            X.c.C.H.K.K.K.K.K.K.U.].!././.R.'.R.L.K.H.V.<.C 4 #                 ",
"            X.m.D.K.K.K.K.K.K.Y.!.].}..XXX.XXX|.E.K.K.G.7.,.P ;                 ",
"            ( k.H.K.K.K.K.K.L.E.[. XXXXXXXXX}.R.L.K.K.D.>.^ I                   ",
"            } Z.K.K.K.K.K.T.).}..XXXXXXXXX.X!.L.L.K.K.G.:.n z                   ",
"          s q.F.K.K.K.K.K._.XXXXXXXXXXXXXX|.Y.~.U.K.K.G.7.k 7                   ",
"            ..Z.K.L.I.K.L._.XXXX.X{.|.XXXX].P.I.K.K.K.C.6.V k                   ",
"              z.K.P.E.K.K.R.'.|.|.E.^..XXXR.K.K.K.K.J.C.s.! k                   ",
"              e.J.K.L.R.I.K.P.W..X X(.E.^.L.K.K.K.K.K.S.7.l ;                   ",
"              _ Z.K.K.R.U.K.K.L.Q.'.W.K.K.K.K.K.K.K.D.h.^ 2                     ",
"              i e.F.K.K.K.K.K.K.K.P.L.K.K.K.K.K.J.H.n.&.k ;                     ",
"              q | k.A.J.K.K.K.K.K.K.K.K.K.K.K.J.H.D.j.C 2                       ",
"                a y.D.K.K.K.K.K.K.K.K.K.K.K.K.H.G.V.8.C h                       ",
"                i y.H.K.K.K.K.K.K.K.K.K.K.K.K.H.D.b.<.! h                       ",
"                q o.B.J.K.K.K.K.K.K.K.K.K.K.J.G.C.9.I N                         ",
"                d ..l.F.H.K.K.K.K.K.K.K.K.K.J.S.i.L                             ",
"                f w.y.y.d.N.S.G.H.K.K.K.H.G.N.s.[ ;                             ",
"                  f #._ [ -.p.i.g.x.m.v.u.5.*.T 6 *                             ",
"                      e 9 6 F T Y c F P N 6 9 1                                 ",
"                                                                                ",
"                                                                                ",
"                                                                                ",
"                                                                                ",
"                                                                                ",
"                                                                                "
};
