/* XPM */
static char * nave1_060g_xpm[] = {
"28 28 30 1",
" 	c None",
".	c #8D0909",
"+	c #7E1E1E",
"@	c #791010",
"#	c #9D1515",
"$	c #971010",
"%	c #890C0C",
"&	c #801F1F",
"*	c #980B0B",
"=	c #970B0B",
"-	c #920B0B",
";	c #900909",
">	c #8B0E0E",
",	c #930A0A",
"'	c #8D0A0A",
")	c #8C0909",
"!	c #940B0B",
"~	c #910A0A",
"{	c #950B0B",
"]	c #940A0A",
"^	c #8D0B0B",
"/	c #900A0A",
"(	c #8E0A0A",
"_	c #930B0B",
":	c #900B0B",
"<	c #960B0B",
"[	c #990B0B",
"}	c #8F0A0A",
"|	c #950A0A",
"1	c #910B0B",
"                            ",
"                            ",
"                            ",
"                            ",
"                            ",
"                            ",
"                 .+@        ",
"               #$%&%        ",
"              *=-;>         ",
"             ==,')!~        ",
"           ={]{^/(!         ",
"          *=~{_-/:<[        ",
"        [***==-__(~         ",
"      *****==*__~(}         ",
"      ********=*|-1}        ",
"    ************[*<         ",
"  [***[************         ",
"  *** [[      *****         ",
"              [****         ",
"               ****         ",
"               [***         ",
"                ***         ",
"                ***         ",
"                [**         ",
"                 **         ",
"                 **         ",
"                            ",
"                            "};
