/* XPM */
static char * nave1_280g_xpm[] = {
"28 28 28 1",
" 	c None",
".	c #980B0B",
"+	c #990B0B",
"@	c #970B0B",
"#	c #940B0B",
"$	c #960B0B",
"%	c #950B0B",
"&	c #920A0A",
"*	c #900A0A",
"=	c #920B0B",
"-	c #910B0B",
";	c #8E0A0A",
">	c #910A0A",
",	c #930B0B",
"'	c #8F0A0A",
")	c #8D0A0A",
"!	c #900B0B",
"~	c #8A0909",
"{	c #990E0E",
"]	c #900909",
"^	c #910909",
"/	c #9B1414",
"(	c #880C0C",
"_	c #841616",
":	c #870E0E",
"<	c #811B1B",
"[	c #831B1B",
"}	c #740A0A",
"                            ",
"                            ",
"                            ",
"                            ",
"                   ...      ",
"                   ..       ",
"                 ....       ",
"   ..           +....       ",
"   ....         ....        ",
"    +..+       +....        ",
"     ....    ......         ",
"     ..............+        ",
"      +............         ",
"       ........@...         ",
"        ...+.#@$%$          ",
"        +@$&#*=$&$          ",
"         --;>%#,#$          ",
"          '''-)!@.          ",
"           %=;*&$           ",
"           +%!~*{           ",
"            &#]^/           ",
"             (_:            ",
"             ~<[            ",
"               }            ",
"                            ",
"                            ",
"                            ",
"                            "};
