/* XPM */
static char * nave2_320g_xpm[] = {
"28 28 78 1",
" 	c None",
".	c #331EBA",
"+	c #3C1CAB",
"@	c #351DB6",
"#	c #371CB2",
"$	c #311EBE",
"%	c #2E1EC2",
"&	c #311EBD",
"*	c #301EC0",
"=	c #2F1EC2",
"-	c #301EBF",
";	c #2E1EC3",
">	c #321EBC",
",	c #2E1EC1",
"'	c #2E1EBD",
")	c #2E1EBF",
"!	c #2F1EC0",
"~	c #331EB4",
"{	c #2E1EBE",
"]	c #2E1FBE",
"^	c #311FB8",
"/	c #2E1EC0",
"(	c #2F1FBA",
"_	c #2F1FB9",
":	c #2F1EB7",
"<	c #3021B1",
"[	c #2F20B7",
"}	c #2F22AE",
"|	c #2F20B0",
"1	c #2F1FB3",
"2	c #2F1EBE",
"3	c #3021AF",
"4	c #2F21B0",
"5	c #2E1FB1",
"6	c #2E1FB4",
"7	c #311EBF",
"8	c #301EC1",
"9	c #301EBE",
"0	c #311EBB",
"a	c #301EBC",
"b	c #2F1EC1",
"c	c #2E1EBC",
"d	c #3121AF",
"e	c #3223A2",
"f	c #2F21AA",
"g	c #2F21A6",
"h	c #2F20A4",
"i	c #3020A8",
"j	c #3020B5",
"k	c #2E1FBD",
"l	c #2E1FBC",
"m	c #301FBA",
"n	c #321FB7",
"o	c #301EB9",
"p	c #2E1FBA",
"q	c #2E20B0",
"r	c #3023A0",
"s	c #3021A6",
"t	c #2F21A8",
"u	c #30239D",
"v	c #30229D",
"w	c #3021A9",
"x	c #311FBB",
"y	c #30229C",
"z	c #3021A4",
"A	c #2F20AA",
"B	c #30239F",
"C	c #312293",
"D	c #301EB6",
"E	c #31229C",
"F	c #3122A6",
"G	c #311FB1",
"H	c #2F1FA8",
"I	c #30219B",
"J	c #3221A6",
"K	c #2F1F9E",
"L	c #331EB1",
"M	c #3320A5",
"                            ",
"                            ",
"            .+              ",
"            @#              ",
"            $%&             ",
"            *==             ",
"           -**;;            ",
"            >%;;            ",
"            =;;%-           ",
"            %%%;=           ",
"            *,')!~          ",
"           %%;{;]^          ",
"           %%;{/(_          ",
"         $=;;;-:<[          ",
"    ;;;%;%;=,!$(}|1         ",
" &$&&-;;%=%2'/23456         ",
" 7890%,=ab,2c'defghi        ",
"      jklmnopqrstuvw        ",
"          >7xsyzABChD       ",
"              EFGHHIJ       ",
"                 K LM       ",
"                            ",
"                            ",
"                            ",
"                            ",
"                            ",
"                            ",
"                            "};
