/* XPM */
static char * nave1_220g_xpm[] = {
"28 28 29 1",
" 	c None",
".	c #980B0B",
"+	c #990B0B",
"@	c #910B0B",
"#	c #950B0B",
"$	c #8F0A0A",
"%	c #930A0A",
"&	c #960A0A",
"*	c #900A0A",
"=	c #960B0B",
"-	c #900B0B",
";	c #940B0B",
">	c #970B0B",
",	c #930B0B",
"'	c #910A0A",
")	c #8D0A0A",
"!	c #8D0B0B",
"~	c #880D0D",
"{	c #910909",
"]	c #8B0909",
"^	c #940A0A",
"/	c #880E0E",
"(	c #801D1D",
"_	c #8A0E0E",
":	c #761010",
"<	c #841A1A",
"[	c #8A0808",
"}	c #9A1313",
"|	c #9C1414",
"                            ",
"             ..             ",
"             .+             ",
"            .+              ",
"            ++.             ",
"            ...             ",
"            ...             ",
"           ...+             ",
"           ...+             ",
"          .....             ",
"          ....+             ",
"         @#.....            ",
"         $@%+.....          ",
"        &*$*==........+     ",
"        .$-;$;.>........+.  ",
"        #$-;,#=>>.........  ",
"       ',)*!,#%.......      ",
"       ~{]*,=%^>...         ",
"      /(_%=>> +             ",
"      :<[}|                 ",
"                            ",
"                            ",
"                            ",
"                            ",
"                            ",
"                            ",
"                            ",
"                            "};
