/* XPM */
static char * nave1_250g_xpm[] = {
"28 28 31 1",
" 	c None",
".	c #980B0B",
"+	c #990B0B",
"@	c #950B0B",
"#	c #970B0B",
"$	c #8F0A0A",
"%	c #900B0B",
"&	c #900A0A",
"*	c #930B0B",
"=	c #960B0B",
"-	c #920B0B",
";	c #910B0B",
">	c #950A0A",
",	c #8D0A0A",
"'	c #940B0B",
")	c #920A0A",
"!	c #8E0A0A",
"~	c #8F0B0B",
"{	c #940A0A",
"]	c #910A0A",
"^	c #8E0808",
"/	c #960A0A",
"(	c #861111",
"_	c #8C0D0D",
":	c #950D0D",
"<	c #9C1414",
"[	c #8A0A0A",
"}	c #7D2424",
"|	c #881010",
"1	c #771313",
"2	c #8F0C0C",
"                            ",
"                            ",
"        .                   ",
"       ..                   ",
"        .                   ",
"       ..++                 ",
"        ...                 ",
"        +..                 ",
"        ...+           +.   ",
"        .....       .+...   ",
"        .....  . +......    ",
"         ....+.........     ",
"        ..............      ",
"         @#..#.......       ",
"        $%$&@*#=#...        ",
"         &$-*;==...         ",
"         >,-'*@)@.          ",
"         .*$!~={.           ",
"         '-,&*##            ",
"         ]*^$/.             ",
"          (_:<              ",
"         [}|                ",
"          12                ",
"                            ",
"                            ",
"                            ",
"                            ",
"                            "};
