/* XPM */
static char * nave2_190g_xpm[] = {
"28 28 82 1",
" 	c None",
".	c #301EC0",
"+	c #311EBE",
"@	c #321EBB",
"#	c #301EBE",
"$	c #2F1FB8",
"%	c #2E1EC0",
"&	c #301EBF",
"*	c #2F1FBC",
"=	c #2F1FBD",
"-	c #2E1EC2",
";	c #2E1EC3",
">	c #2E1FBD",
",	c #2E1EC4",
"'	c #351EB2",
")	c #301EBD",
"!	c #311EBD",
"~	c #311EBB",
"{	c #2F1FBA",
"]	c #2F1EC2",
"^	c #3021A5",
"/	c #2F1FB4",
"(	c #2E1FBA",
"_	c #2F1EBD",
":	c #2E1EC1",
"<	c #3122A6",
"[	c #3122A0",
"}	c #30229D",
"|	c #2F21AC",
"1	c #2E1EBB",
"2	c #2E1EBD",
"3	c #2E1EBE",
"4	c #301FA6",
"5	c #3020AE",
"6	c #2F21A6",
"7	c #3122A3",
"8	c #3122A7",
"9	c #331EB3",
"0	c #2F20AC",
"a	c #2F1EAA",
"b	c #3022A3",
"c	c #2F20A9",
"d	c #2F21A7",
"e	c #3223A5",
"f	c #2F1EC1",
"g	c #3221A9",
"h	c #30209B",
"i	c #312294",
"j	c #302499",
"k	c #3022A0",
"l	c #2F20AD",
"m	c #3022AB",
"n	c #2F1EC0",
"o	c #331EA4",
"p	c #3321A7",
"q	c #2F1FAE",
"r	c #3122A2",
"s	c #2F21A0",
"t	c #2F21A4",
"u	c #2E1FB3",
"v	c #2F22AE",
"w	c #2F20B3",
"x	c #2E1EB7",
"y	c #2E1FB4",
"z	c #2F20A8",
"A	c #2E1FB2",
"B	c #2F20B1",
"C	c #3021B1",
"D	c #2E1EBF",
"E	c #321EBD",
"F	c #361DB8",
"G	c #301EB4",
"H	c #2F20B5",
"I	c #3020B7",
"J	c #2F1FBB",
"K	c #2E1FBF",
"L	c #321EB6",
"M	c #301EC1",
"N	c #341DB8",
"O	c #321EBC",
"P	c #3A1CAE",
"Q	c #361DB5",
"                            ",
"                            ",
"                            ",
"                   .+       ",
"                  @#+       ",
"                $%&@        ",
"               *=-.;        ",
"              >=-,-         ",
"            .'>)--          ",
"           !~{-];           ",
"          ^/(_:;]           ",
"        <[}|123;]           ",
"       45678:%:,;           ",
"     90abcde#&f;-;          ",
"     ghijklm{+;;;n          ",
"    opqrstuvwx2%:f-         ",
"       yzqABC{,D2-,EF       ",
"          GHIJK:%;;f.&      ",
"              L-];;;&M      ",
"                & ;;;]NO    ",
"                    @,PQ    ",
"                       P    ",
"                            ",
"                            ",
"                            ",
"                            ",
"                            ",
"                            "};
