/* XPM */
static char * nave2_110g_xpm[] = {
"28 28 80 1",
" 	c None",
".	c #331EA4",
"+	c #3222A3",
"@	c #331EB3",
"#	c #331EB0",
"$	c #3021A1",
"%	c #3020A5",
"&	c #2F1FAA",
"*	c #2E1FB7",
"=	c #3021A2",
"-	c #302198",
";	c #2F1EAA",
">	c #301FAB",
",	c #2E1FB1",
"'	c #30229F",
")	c #302497",
"!	c #3022A2",
"~	c #3020AC",
"{	c #3122A6",
"]	c #3020A4",
"^	c #2F20A3",
"/	c #2F21A7",
"(	c #2F20A8",
"_	c #31229F",
":	c #30229A",
"<	c #2F1EB5",
"[	c #2E1FB0",
"}	c #2E20AF",
"|	c #3122A3",
"1	c #3023A0",
"2	c #3021A5",
"3	c #301FB3",
"4	c #2F1FB2",
"5	c #2E20AE",
"6	c #2F21B0",
"7	c #3123A8",
"8	c #3222A8",
"9	c #2F20B2",
"0	c #301EBC",
"a	c #301EBE",
"b	c #2F20B7",
"c	c #2F21B3",
"d	c #301FBA",
"e	c #2F1EC0",
"f	c #2E1EC0",
"g	c #2E1EBC",
"h	c #2F1FBB",
"i	c #311FB8",
"j	c #351EB1",
"k	c #3020B7",
"l	c #3021B2",
"m	c #2F1FB7",
"n	c #311EBE",
"o	c #301EC0",
"p	c #2E1FBD",
"q	c #2E1FBC",
"r	c #2E1EC2",
"s	c #2E1EBB",
"t	c #2F1EC2",
"u	c #2F1EC1",
"v	c #2F1EC3",
"w	c #2F1EBD",
"x	c #2F1FBC",
"y	c #3020B3",
"z	c #321EB8",
"A	c #2E1EC3",
"B	c #2E1EBF",
"C	c #2E1EBE",
"D	c #2E1EC1",
"E	c #311DBA",
"F	c #321EBB",
"G	c #301EBF",
"H	c #301EC1",
"I	c #351DB8",
"J	c #331EBB",
"K	c #3E1BA7",
"L	c #381CB0",
"M	c #331EBC",
"N	c #3B1CAE",
"O	c #341DB8",
"                            ",
"                            ",
"                            ",
"                            ",
"           .                ",
"           +@               ",
"          #$%&              ",
"          *=-;>             ",
"          ,')!~{            ",
"          ]^'/(_:           ",
"          <[}/|123          ",
"          456789*0a         ",
"          b6cdefghij        ",
"          klmnofgefpq       ",
"          qrsrtrurvawxy     ",
"         zfAfAAAAAArrtB     ",
"         trgCArA ntAAtDE    ",
"         oADDur      uuFGH  ",
"         rAAAu          an  ",
"         AAAt               ",
"         AuuI               ",
"        JueG                ",
"         Ao                 ",
"        KLM                 ",
"        NO                  ",
"                            ",
"                            ",
"                            "};
