/* XPM */
static char * nave2_030g_xpm[] = {
"28 28 83 1",
" 	c None",
".	c #3020B6",
"+	c #301EB5",
"@	c #2F1FAF",
"#	c #2E20B3",
"$	c #301EB6",
"%	c #3420A9",
"&	c #331EA4",
"*	c #381CB1",
"=	c #3E1BA8",
"-	c #2E1EC3",
";	c #311EBE",
">	c #2F1EC2",
",	c #2E1EC2",
"'	c #2E1EC1",
")	c #2F1FBB",
"!	c #2F1FB9",
"~	c #2F20B3",
"{	c #2E1FB2",
"]	c #2F20AC",
"^	c #2F21A2",
"/	c #31229E",
"(	c #30209D",
"_	c #3122A1",
":	c #331FAC",
"<	c #331EBB",
"[	c #371DB3",
"}	c #311EBD",
"|	c #2F1EC1",
"1	c #2E1EC0",
"2	c #2F1FBC",
"3	c #2F21B1",
"4	c #2F22AD",
"5	c #2E1FB3",
"6	c #2F21A7",
"7	c #30239D",
"8	c #312395",
"9	c #301FA1",
"0	c #3020AE",
"a	c #301EC0",
"b	c #2E1EBF",
"c	c #2E1EBC",
"d	c #2E1EB9",
"e	c #2F1FB8",
"f	c #3021B3",
"g	c #3022AD",
"h	c #3021A4",
"i	c #3022A2",
"j	c #2F1EA8",
"k	c #341DB9",
"l	c #301EBA",
"m	c #3223A5",
"n	c #3022A6",
"o	c #2F20A9",
"p	c #3020AC",
"q	c #301FAC",
"r	c #2F1EC0",
"s	c #3020B2",
"t	c #3123A0",
"u	c #3121A1",
"v	c #3122A5",
"w	c #2E1EBE",
"x	c #2E1FB9",
"y	c #2F21A6",
"z	c #30229B",
"A	c #2E1EC4",
"B	c #2E1EBD",
"C	c #2E1FBA",
"D	c #2F1FB6",
"E	c #301EC1",
"F	c #2F1EBE",
"G	c #301EB9",
"H	c #311EBF",
"I	c #2F1FBE",
"J	c #321EB8",
"K	c #301EBE",
"L	c #2E1FBD",
"M	c #351EB2",
"N	c #2E1FBC",
"O	c #301EBF",
"P	c #3020B8",
"Q	c #301EBD",
"R	c #331DB6",
"                            ",
"                            ",
"                            ",
"                            ",
"                            ",
"                            ",
"                            ",
"                            ",
"                            ",
"              . + @#$%&     ",
"  *=-;--->,')!.~{]^/(_:     ",
"  <[},|---11-234567890      ",
"    ;aa|--bc'defg6hij       ",
"      ;k--','|;lmnopq       ",
"         |a,->r,stuv        ",
"          -,-,1wxyz         ",
"            A-BBCD]         ",
"            E-'FGH          ",
"            |--IJE          ",
"            ->KLM           ",
"            --FN            ",
"            ,-I             ",
"           -O'P             ",
"           OKQ              ",
"            KR              ",
"          ;;a               ",
"           ;                ",
"                            "};
