/* XPM */
static char * nave2_340g_xpm[] = {
"28 28 83 1",
" 	c None",
".	c #331EBA",
"+	c #3B1CAC",
"@	c #321EBD",
"#	c #381CB0",
"$	c #2E1EC3",
"%	c #311EBE",
"&	c #2E1EC2",
"*	c #311EBF",
"=	c #301EC1",
"-	c #2F1EC0",
";	c #2E1EC4",
">	c #301EBF",
",	c #301EC0",
"'	c #2E1EC1",
")	c #301EBC",
"!	c #2E1EC0",
"~	c #2E1EBC",
"{	c #2F1FBC",
"]	c #311FB9",
"^	c #2E1EBE",
"/	c #2F1FB8",
"(	c #3020B6",
"_	c #2E1FB7",
":	c #3021B1",
"<	c #2F20B7",
"[	c #2F1FB2",
"}	c #301EBE",
"|	c #2F22AE",
"1	c #2E20AE",
"2	c #2F1FB3",
"3	c #301EB4",
"4	c #301FBA",
"5	c #3022AE",
"6	c #2E1FB5",
"7	c #2E20AD",
"8	c #3020A4",
"9	c #2E1FB1",
"0	c #2F1EC2",
"a	c #3120B2",
"b	c #3023A6",
"c	c #2F21A9",
"d	c #2F22A0",
"e	c #2F21A0",
"f	c #3021AA",
"g	c #2E1EBD",
"h	c #3222A4",
"i	c #3022A5",
"j	c #2F20A8",
"k	c #30239E",
"l	c #312394",
"m	c #30219A",
"n	c #301FAE",
"o	c #351EAD",
"p	c #2F1EC1",
"q	c #2F1EBD",
"r	c #2E1FBA",
"s	c #2E1FB4",
"t	c #3023A1",
"u	c #3121A3",
"v	c #2F20A9",
"w	c #3021A7",
"x	c #2F1EA9",
"y	c #2F20A1",
"z	c #3122A1",
"A	c #331FA4",
"B	c #2E1FBE",
"C	c #321FB7",
"D	c #311EB9",
"E	c #311EBD",
"F	c #301FB2",
"G	c #30219F",
"H	c #31229D",
"I	c #3021A8",
"J	c #311FAE",
"K	c #2F1FA2",
"L	c #331EB4",
"M	c #311EBC",
"N	c #2F1FBE",
"O	c #2E1FBD",
"P	c #2E1FBC",
"Q	c #2F20B0",
"R	c #331DB6",
"                            ",
"                            ",
"                            ",
"        .+                  ",
"        @#$                 ",
"         %&*                ",
"         =-$;               ",
"         >,$$&              ",
"          @$$$,             ",
"          -;&'$)            ",
"          $&!~'{]           ",
"           ,&^$!/(          ",
"          $&$'~_:<[         ",
"           &$$}/|123        ",
"           ;$-}456789       ",
"         ,00!!&abcdef       ",
"        $$$&ggghijklmno     ",
"     ;p$$pp&qrstuvwxyzA     ",
"     %-$$qBCDEFGHIJK L      ",
"  E%}M!N4OP , Q             ",
"   , R                      ",
"                            ",
"                            ",
"                            ",
"                            ",
"                            ",
"                            ",
"                            "};
