/* XPM */
static char * nave2_020g_xpm[] = {
"28 28 80 1",
" 	c None",
".	c #3B1CAE",
"+	c #3E1BA7",
"@	c #331EBB",
"#	c #341DB8",
"$	c #381CB0",
"%	c #2E1EC3",
"&	c #2F1EC1",
"*	c #2E1EC2",
"=	c #301EC0",
"-	c #2F1EC2",
";	c #321EB8",
">	c #331EBC",
",	c #2F1EC0",
"'	c #2E1EC0",
")	c #2E1FBC",
"!	c #3020B7",
"~	c #2F20B7",
"{	c #2F1FB2",
"]	c #2F1EB5",
"^	c #3020A4",
"/	c #2E1FB1",
"(	c #2E1FB7",
"_	c #331EB0",
":	c #301EBF",
"<	c #2E1EC1",
"[	c #2E1EBC",
"}	c #3021B2",
"|	c #2F21B0",
"1	c #2E20AE",
"2	c #2E1FB0",
"3	c #2F20A3",
"4	c #30229F",
"5	c #3021A2",
"6	c #3021A1",
"7	c #3222A3",
"8	c #331EA4",
"9	c #351DB8",
"0	c #2E1EBE",
"a	c #2E1EBB",
"b	c #2F1FB7",
"c	c #2F21B3",
"d	c #2E20AF",
"e	c #302497",
"f	c #302198",
"g	c #3020A5",
"h	c #331EB3",
"i	c #311EBE",
"j	c #301FBA",
"k	c #3123A8",
"l	c #2F21A7",
"m	c #3022A2",
"n	c #2F1EAA",
"o	c #2F1FAA",
"p	c #3222A8",
"q	c #3122A3",
"r	c #2F20A8",
"s	c #3020AC",
"t	c #301FAB",
"u	c #2F20B2",
"v	c #3023A0",
"w	c #31229F",
"x	c #3122A6",
"y	c #3021A5",
"z	c #30229A",
"A	c #2F1FBB",
"B	c #301EBC",
"C	c #301FB3",
"D	c #2F1EC3",
"E	c #311FB8",
"F	c #301EBE",
"G	c #2E1FBD",
"H	c #351EB1",
"I	c #2F1EBD",
"J	c #2F1FBC",
"K	c #2E1EBF",
"L	c #3020B3",
"M	c #321EBB",
"N	c #311DBA",
"O	c #301EC1",
"                            ",
"                            ",
"                            ",
"                            ",
"                            ",
"                            ",
"                            ",
"                            ",
"   .+ @                     ",
"   #$%&%%*=-;               ",
"    >=,&%%%*')!~{]^/(_      ",
"      :&%%<[%*}|12345678    ",
"       9-%<0'abc|d4efgh     ",
"         &&%%*ijkllmno      ",
"          **%-=,pqrst       ",
"           %%*''uvwx        ",
"            %&[[(yz         ",
"           i%*,ABC          ",
"           -%D'EF           ",
"           %*FGH            ",
"           %*I)             ",
"          &--J              ",
"          &<KL              ",
"          MN                ",
"         F:                 ",
"         iO                 ",
"                            ",
"                            "};
