/* XPM */
static char * nave2_080g_xpm[] = {
"28 28 85 1",
" 	c None",
".	c #331DA4",
"+	c #341EAF",
"@	c #3321A7",
"#	c #3220A9",
"$	c #2E1FB9",
"%	c #3020A1",
"&	c #3020A8",
"*	c #2E1FB2",
"=	c #3122A4",
"-	c #312293",
";	c #2F1FA9",
">	c #2F1FA3",
",	c #3020A4",
"'	c #2F21A0",
")	c #302498",
"!	c #3021A5",
"~	c #301FA9",
"{	c #301EB4",
"]	c #2E1FB0",
"^	c #2F21A2",
"/	c #3022A1",
"(	c #2F21A9",
"_	c #3020AD",
":	c #3020B6",
"<	c #2F20B1",
"[	c #2E1FB1",
"}	c #2E20B1",
"|	c #2F21A7",
"1	c #2F20A8",
"2	c #3021A2",
"3	c #3122A1",
"4	c #2F1FB9",
"5	c #2F21B1",
"6	c #3022AE",
"7	c #3023AA",
"8	c #3223A1",
"9	c #3123A0",
"0	c #30229D",
"a	c #341EB2",
"b	c #2F1FBB",
"c	c #2F20B9",
"d	c #2F20B4",
"e	c #301EBA",
"f	c #2F21B0",
"g	c #2F21AB",
"h	c #3020AF",
"i	c #2F1EBF",
"j	c #2E1EC1",
"k	c #2E1EC3",
"l	c #2E1EBA",
"m	c #311EBE",
"n	c #301EBF",
"o	c #2E1EBD",
"p	c #2E1FBA",
"q	c #301EC0",
"r	c #2E1EBF",
"s	c #2E1EC0",
"t	c #2F1EC1",
"u	c #2E1EBC",
"v	c #2E1FBD",
"w	c #311EB9",
"x	c #2E1EC2",
"y	c #2E1EBE",
"z	c #2F1EC0",
"A	c #301FBB",
"B	c #351EB1",
"C	c #2E1FBC",
"D	c #2E1EC4",
"E	c #2F1EC2",
"F	c #301EBE",
"G	c #2F1FBC",
"H	c #301EC1",
"I	c #331DBB",
"J	c #3020B8",
"K	c #3E1BA8",
"L	c #321DBC",
"M	c #391CB1",
"N	c #361DB5",
"O	c #321EBD",
"P	c #341DB6",
"Q	c #331EBA",
"R	c #311EBC",
"S	c #321EBB",
"T	c #311EBD",
"                            ",
"                            ",
"                            ",
"                            ",
"                .           ",
"              +@#           ",
"              $%&           ",
"             *=-;>          ",
"             ,')!~          ",
"            {]^/(_          ",
"           :<[}|123         ",
"          4:5678900         ",
"         abcd4e4fgh         ",
"         ijklmnjopm         ",
"        qkrsrktsuvwn        ",
"        kxyykkkxizAB        ",
"      kkkkxjkxkkkkjCC       ",
"      kkxDkzt  qEEFG        ",
"     qkqHIE      kkEJ       ",
"    KLHqF        kkkr       ",
"    MNO           xnjP      ",
"    Q              tRS      ",
"                     n      ",
"                    Tmn     ",
"                     T      ",
"                            ",
"                            ",
"                            "};
