/* XPM */
static char * nave2_220g_xpm[] = {
"28 28 79 1",
" 	c None",
".	c #301EC0",
"+	c #311EBE",
"@	c #301EBE",
"#	c #331DB5",
"$	c #321DBA",
"%	c #2F1EC0",
"&	c #301EBF",
"*	c #2E1EBF",
"=	c #2F1EC1",
"-	c #2F1EBF",
";	c #2E1EC3",
">	c #2E1FBD",
",	c #301EBD",
"'	c #2F1EC2",
")	c #351EB5",
"!	c #301FBA",
"~	c #2E1EC2",
"{	c #311EBB",
"]	c #2F1FBB",
"^	c #2E1EC1",
"/	c #311FBA",
"(	c #301EBC",
"_	c #2E1FBC",
":	c #2E1EBD",
"<	c #2E1EC4",
"[	c #2F20AA",
"}	c #2E1FB3",
"|	c #2E1EBB",
"1	c #2E1EBE",
"2	c #2E1EC0",
"3	c #31229B",
"4	c #30229C",
"5	c #3023A4",
"6	c #2E1FBB",
"7	c #331DBB",
"8	c #3022A5",
"9	c #3121A3",
"0	c #3122A1",
"a	c #3222A7",
"b	c #301EC1",
"c	c #311EBF",
"d	c #361DB5",
"e	c #331EBB",
"f	c #3020AE",
"g	c #2F21A8",
"h	c #3023A7",
"i	c #3021B1",
"j	c #2F1FB9",
"k	c #2E1EB8",
"l	c #381CB1",
"m	c #3C1CAC",
"n	c #2F1FA3",
"o	c #3021A6",
"p	c #3023A0",
"q	c #3022A3",
"r	c #2F22AE",
"s	c #2F21B0",
"t	c #2F20B4",
"u	c #2F20AB",
"v	c #302199",
"w	c #302398",
"x	c #2F21A1",
"y	c #2E1FAF",
"z	c #2F20B6",
"A	c #3020B6",
"B	c #321EB7",
"C	c #331EB1",
"D	c #30219D",
"E	c #30209E",
"F	c #3122A2",
"G	c #3020A3",
"H	c #2F1FB1",
"I	c #301EB4",
"J	c #331FA4",
"K	c #3320A7",
"L	c #2F1FB8",
"M	c #2E1FB4",
"N	c #2E1FB1",
"                            ",
"             .+             ",
"             .@             ",
"            #+              ",
"            $%&             ",
"            *=%             ",
"            -;;             ",
"           >-;;             ",
"           >,';             ",
"          )!;~=             ",
"          {]^~;             ",
"         /(_:%<;            ",
"         [}|12;;~%          ",
"        3456^%;;;=;;7&.     ",
"        890a(+%2**~;~&bcde  ",
"        f[ghijk^2:~;;;;;lm  ",
"       nopq}rst^~~;~;;      ",
"       uvwxyyzA]B2&         ",
"      CDEFGHI A             ",
"      JKLMN                 ",
"                            ",
"                            ",
"                            ",
"                            ",
"                            ",
"                            ",
"                            ",
"                            "};
