/* XPM */
static char * nave2_290g_xpm[] = {
"28 28 80 1",
" 	c None",
".	c #341DB8",
"+	c #3B1CAE",
"@	c #331EBC",
"#	c #381CB0",
"$	c #3E1BA7",
"%	c #301EC0",
"&	c #2E1EC3",
"*	c #301EBF",
"=	c #2F1EC0",
"-	c #2F1EC1",
";	c #331EBB",
">	c #351DB8",
",	c #2F1EC2",
"'	c #311EBE",
")	c #301EBE",
"!	c #2E1EC2",
"~	c #301EC1",
"{	c #321EBB",
"]	c #2E1EC1",
"^	c #311DBA",
"/	c #2E1EBE",
"(	c #2E1EBC",
"_	c #2E1EBF",
":	c #2E1EC0",
"<	c #321EB8",
"[	c #3020B3",
"}	c #2F1FBC",
"|	c #2F1EBD",
"1	c #2F1EC3",
"2	c #2E1EBB",
"3	c #2E1FBC",
"4	c #2E1FBD",
"5	c #2F1FB7",
"6	c #3021B2",
"7	c #3020B7",
"8	c #351EB1",
"9	c #311FB8",
"0	c #2F1FBB",
"a	c #301FBA",
"b	c #2F21B3",
"c	c #2F21B0",
"d	c #2F20B7",
"e	c #301EBC",
"f	c #2E1FB7",
"g	c #2F20B2",
"h	c #3222A8",
"i	c #3123A8",
"j	c #2E20AE",
"k	c #2F1FB2",
"l	c #301FB3",
"m	c #3021A5",
"n	c #3023A0",
"o	c #3122A3",
"p	c #2F21A7",
"q	c #2E20AF",
"r	c #2E1FB0",
"s	c #2F1EB5",
"t	c #30229A",
"u	c #31229F",
"v	c #2F20A8",
"w	c #30229F",
"x	c #2F20A3",
"y	c #3020A4",
"z	c #3122A6",
"A	c #3020AC",
"B	c #3022A2",
"C	c #302497",
"D	c #2E1FB1",
"E	c #301FAB",
"F	c #2F1EAA",
"G	c #302198",
"H	c #3021A2",
"I	c #2F1FAA",
"J	c #3020A5",
"K	c #3021A1",
"L	c #331EB0",
"M	c #331EB3",
"N	c #3222A3",
"O	c #331EA4",
"                            ",
"                            ",
"                            ",
"                  .+        ",
"                 @#$        ",
"                 %&         ",
"                *=-;        ",
"               >--&         ",
"               ,&&&         ",
"  ')          -&&&!         ",
"  ~*{--      !-]]&%         ",
"    ^],&&,' &!&/(!,         ",
"     _,!!&&&&&&:&:<         ",
"     [}|)1!-!,!2!3          ",
"       34:=(:%'567          ",
"        890(:=abcd          ",
"         )efghicjk          ",
"          lmnopqrs          ",
"           tuvpwxy          ",
"            zABCwD          ",
"             EFGHf          ",
"              IJKL          ",
"               MN           ",
"                O           ",
"                            ",
"                            ",
"                            ",
"                            "};
