/* XPM */
static char * nave2_150g_xpm[] = {
"28 28 78 1",
" 	c None",
".	c #331FA6",
"+	c #331EB2",
"@	c #2F1FA1",
"#	c #3122A6",
"$	c #2F20B0",
"%	c #3221A5",
"&	c #30219C",
"*	c #2F1FA3",
"=	c #2F1FA9",
"-	c #3020AC",
";	c #2F21A6",
">	c #30229C",
",	c #3021A2",
"'	c #301FB8",
")	c #311EBC",
"!	c #321EB9",
"~	c #341EB3",
"{	c #2E1FBD",
"]	c #3020B8",
"^	c #311DBB",
"/	c #321DBA",
"(	c #301EC0",
"_	c #331EB0",
":	c #2E1FAE",
"<	c #312293",
"[	c #30249A",
"}	c #2F20A9",
"|	c #3122A1",
"1	c #2F22A8",
"2	c #2E1FB8",
"3	c #2F1FBA",
"4	c #2F1FBC",
"5	c #2E1EC0",
"6	c #2F1EBD",
"7	c #2F1EBF",
"8	c #2E1EC3",
"9	c #2E1EC2",
"0	c #2E1EC1",
"a	c #321EBC",
"b	c #301EBE",
"c	c #311EBE",
"d	c #2F20B1",
"e	c #3022A1",
"f	c #2F229E",
"g	c #3022A3",
"h	c #2F21A7",
"i	c #33239F",
"j	c #2E1FB9",
"k	c #2E1EBD",
"l	c #2F1EC0",
"m	c #2F1EC1",
"n	c #2E1FB4",
"o	c #3020A3",
"p	c #2E1FB1",
"q	c #3022AC",
"r	c #3121AF",
"s	c #2E1EBE",
"t	c #301EB3",
"u	c #2E20AF",
"v	c #3022AE",
"w	c #2E1EC4",
"x	c #2F1EC2",
"y	c #311EBF",
"z	c #2F1FB2",
"A	c #2F20B4",
"B	c #2F21B0",
"C	c #2F1FB7",
"D	c #301EBF",
"E	c #3020B7",
"F	c #3021B2",
"G	c #2E1FBC",
"H	c #321EB6",
"I	c #321EBD",
"J	c #3B1CAC",
"K	c #331EBA",
"L	c #3B1CAD",
"M	c #341EB9",
"                            ",
"                            ",
"                            ",
"                            ",
"                            ",
"                            ",
"                            ",
"                            ",
"      .+ @ #  $             ",
"      %&*=-;>,')!~{{]{^/((  ",
"      _:<[;}|1234567890abc  ",
"       defghijkkl8(88mm(    ",
"       no}pqrm5sm8888       ",
"        tnuv3cl9wxy         ",
"         zABCD889           ",
"          EFkk998           ",
"          3G8058m           ",
"           H9ks0(           ",
"            89989           ",
"            (888y           ",
"             889DI          ",
"             8wm(D          ",
"               8m           ",
"               mca          ",
"                JK          ",
"                LM          ",
"                            ",
"                            "};
