/* XPM */
static char * nave1_080g_xpm[] = {
"28 28 27 1",
" 	c None",
".	c #740808",
"+	c #900909",
"@	c #831B1B",
"#	c #7E1919",
"$	c #8A0808",
"%	c #841616",
"&	c #841212",
"*	c #9C1414",
"=	c #940B0B",
"-	c #8F0A0A",
";	c #8E0C0C",
">	c #900A0A",
",	c #960A0A",
"'	c #8B0909",
")	c #920B0B",
"!	c #930A0A",
"~	c #980B0B",
"{	c #910A0A",
"]	c #960B0B",
"^	c #950B0B",
"/	c #930B0B",
"(	c #8D0B0B",
"_	c #900B0B",
":	c #970B0B",
"<	c #940A0A",
"[	c #990B0B",
"                            ",
"                            ",
"                            ",
"                            ",
"                .           ",
"              +@#           ",
"              $%&           ",
"             *=-;>          ",
"             ,-')!          ",
"            ~={->]          ",
"           ]^/(-_=:         ",
"          :</=^=_-{         ",
"         ~:=]=>/-->         ",
"         ~~~]:/:<=/         ",
"        ~~~::~~~[~~~        ",
"        ~~~~~~~~~~~~        ",
"      ~~~~~~[~~~~~~~~       ",
"      ~~~~~~~  [~~~~        ",
"     ~~~~~[      ~~~~       ",
"    ~~~~~        [~~~       ",
"    ~~~           ~~~[      ",
"    ~              ~~[      ",
"                     ~      ",
"                    ~~~     ",
"                     ~      ",
"                            ",
"                            ",
"                            "};
