/* XPM */
static char * nave1_050g_xpm[] = {
"28 28 29 1",
" 	c None",
".	c #8A0808",
"+	c #821C1C",
"@	c #781313",
"#	c #9A0E0E",
"$	c #960E0E",
"%	c #8B0C0C",
"&	c #811C1C",
"*	c #880D0D",
"=	c #970B0B",
"-	c #960B0B",
";	c #930A0A",
">	c #8E0909",
",	c #900808",
"'	c #8C0D0D",
")	c #980B0B",
"!	c #950B0B",
"~	c #930B0B",
"{	c #900A0A",
"]	c #8D0A0A",
"^	c #8F0A0A",
"/	c #920A0A",
"(	c #940A0A",
"_	c #940B0B",
":	c #910B0B",
"<	c #920B0B",
"[	c #960A0A",
"}	c #8E0A0A",
"|	c #990B0B",
"                            ",
"                            ",
"                            ",
"                            ",
"                            ",
"                            ",
"                            ",
"                  .+@       ",
"                #$%&*       ",
"              =-;>,'        ",
"          ))-;!~{]^~/       ",
"        ))))!(_:]^:_        ",
"      )))))==-~__:<)        ",
"    ))))))))=)~{~^^[        ",
"  ))))))))))))-){}^         ",
"  ))))|))))))))))!:         ",
"      )    )))))))=         ",
"             ))))))         ",
"             )))))          ",
"              |)))          ",
"              ))))          ",
"              ))))          ",
"              |))           ",
"              |))           ",
"               ))           ",
"               ||           ",
"               ))           ",
"                            "};
