/* XPM */
static char * nave2_050g_xpm[] = {
"28 28 78 1",
" 	c None",
".	c #301EB6",
"+	c #3221A6",
"@	c #3320A5",
"#	c #3020A8",
"$	c #3021A9",
"%	c #2F20A4",
"&	c #30219B",
"*	c #331EB1",
"=	c #2F1FB3",
"-	c #2E1FB4",
";	c #30229D",
">	c #312293",
",	c #2F1FA8",
"'	c #331EB4",
")	c #311FB8",
"!	c #2F1FB9",
"~	c #2F20B7",
"{	c #2F20B0",
"]	c #2E1FB1",
"^	c #2F21A6",
"/	c #30239D",
"(	c #30239F",
"_	c #2F1F9E",
":	c #301EBF",
"<	c #2F1EC2",
"[	c #2F1EC0",
"}	c #2E1FBE",
"|	c #2F1FBA",
"1	c #3021B1",
"2	c #2F22AE",
"3	c #2F21B0",
"4	c #2F21AA",
"5	c #2F21A8",
"6	c #2F20AA",
"7	c #311FB1",
"8	c #2E1EC3",
"9	c #2E1EC2",
"0	c #2E1EBF",
"a	c #2E1EC0",
"b	c #2F1EB7",
"c	c #3021AF",
"d	c #3223A2",
"e	c #3021A6",
"f	c #3021A4",
"g	c #3122A6",
"h	c #311EBD",
"i	c #2E1EBD",
"j	c #2E1EBE",
"k	c #311EBE",
"l	c #2F1EBE",
"m	c #3121AF",
"n	c #3023A0",
"o	c #30229C",
"p	c #31229C",
"q	c #3C1CAB",
"r	c #371CB2",
"s	c #301EC0",
"t	c #2E1EC1",
"u	c #2E20B0",
"v	c #331EBA",
"w	c #351DB6",
"x	c #321EBC",
"y	c #2E1EBC",
"z	c #2E1FBA",
"A	c #311FBB",
"B	c #301EB9",
"C	c #311EBF",
"D	c #321FB7",
"E	c #2F1EC1",
"F	c #301FBA",
"G	c #301EBC",
"H	c #2E1FBC",
"I	c #2E1FBD",
"J	c #3020B5",
"K	c #311EBB",
"L	c #301EBE",
"M	c #301EC1",
"                            ",
"                            ",
"                            ",
"                            ",
"                            ",
"                            ",
"                            ",
"                  .+@       ",
"                #$%&*       ",
"              =-%;>,        ",
"          ')!~{]^/(,_       ",
"        :<[}|1234567        ",
"      889808ab|cdefg        ",
"    h<8889ijj:klmnop        ",
"  qr9<s989t888[aiue         ",
"  vwkssx<9s998tiyzA         ",
"      :    998<llBC         ",
"             <89tDx         ",
"             k9<EF          ",
"              89GH          ",
"              98<I          ",
"              88tJ          ",
"              8:9           ",
"              8hK           ",
"               hL           ",
"               kM           ",
"               hC           ",
"                            "};
