/* XPM */
static char * nave2_350g_xpm[] = {
"28 28 85 1",
" 	c None",
".	c #331EBA",
"+	c #391CB1",
"@	c #3E1BA8",
"#	c #361DB5",
"$	c #321DBC",
"%	c #301EC0",
"&	c #321EBD",
"*	c #301EC1",
"=	c #2E1EC3",
"-	c #301EBE",
";	c #2E1EC2",
">	c #331DBB",
",	c #2E1EC4",
"'	c #2F1EBF",
")	c #341EB2",
"!	c #2F1EC2",
"~	c #2E1EBE",
"{	c #2E1EBF",
"]	c #2E1EC1",
"^	c #2F1FBB",
"/	c #2F1FB9",
"(	c #2F1EC0",
"_	c #2E1EC0",
":	c #2F20B9",
"<	c #3020B6",
"[	c #2F1EC1",
"}	c #2E1EBA",
"|	c #2F20B4",
"1	c #2F21B1",
"2	c #2F20B1",
"3	c #301EB4",
"4	c #311EBE",
"5	c #3022AE",
"6	c #2E1FB1",
"7	c #2E1FB0",
"8	c #3020A4",
"9	c #2E1FB2",
"0	c #301EBF",
"a	c #301EBA",
"b	c #3023AA",
"c	c #2E20B1",
"d	c #2F21A2",
"e	c #2F21A0",
"f	c #3122A4",
"g	c #2E1FB9",
"h	c #341EAF",
"i	c #3223A1",
"j	c #2F21A7",
"k	c #3022A1",
"l	c #302498",
"m	c #312293",
"n	c #3020A1",
"o	c #3321A7",
"p	c #2E1EBC",
"q	c #2E1EBD",
"r	c #2F21B0",
"s	c #3123A0",
"t	c #2F20A8",
"u	c #2F21A9",
"v	c #3021A5",
"w	c #2F1FA9",
"x	c #3020A8",
"y	c #3220A9",
"z	c #331DA4",
"A	c #2E1FBD",
"B	c #2E1FBA",
"C	c #2F21AB",
"D	c #30229D",
"E	c #3021A2",
"F	c #3020AD",
"G	c #301FA9",
"H	c #2F1FA3",
"I	c #301FBB",
"J	c #311EB9",
"K	c #3020AF",
"L	c #3122A1",
"M	c #2F1FBC",
"N	c #2E1FBC",
"O	c #351EB1",
"P	c #311EBD",
"Q	c #311EBC",
"R	c #3020B8",
"S	c #321EBB",
"T	c #341DB6",
"                            ",
"                            ",
"                            ",
"                            ",
"      .+@                   ",
"       #$%                  ",
"       &*===                ",
"        %%==                ",
"        -*;==%              ",
"         >,=;=')            ",
"         !=;~{]^/           ",
"          (]~_=:<<          ",
"          [=={}|123         ",
"           ;==4/56789       ",
"           ==[0abcdefgh     ",
"          %=;_]/ijklmno     ",
"          !='pqrstuvwxyz    ",
"        ==!=(ABCDEFGH       ",
"       ;==-]IJ4KDL          ",
"      [0=!MNO0              ",
"    P Q]{R N                ",
"   P40ST                    ",
"    0                       ",
"                            ",
"                            ",
"                            ",
"                            ",
"                            "};
