/* XPM */
static char * nave1_010g_xpm[] = {
"28 28 28 1",
" 	c None",
".	c #980B0B",
"+	c #990B0B",
"@	c #960B0B",
"#	c #950B0B",
"$	c #920A0A",
"%	c #940B0B",
"&	c #970B0B",
"*	c #990E0E",
"=	c #9B1414",
"-	c #930B0B",
";	c #900B0B",
">	c #900A0A",
",	c #910909",
"'	c #870E0E",
")	c #831B1B",
"!	c #740A0A",
"~	c #920B0B",
"{	c #8D0A0A",
"]	c #8A0909",
"^	c #900909",
"/	c #841616",
"(	c #811B1B",
"_	c #910B0B",
":	c #8E0A0A",
"<	c #880C0C",
"[	c #910A0A",
"}	c #8F0A0A",
"                            ",
"                            ",
"                            ",
"                            ",
"                            ",
"                            ",
"    .                       ",
"    ....                    ",
"    ...... +                ",
"      ........              ",
"      ........@@@.          ",
"       +......#$%&@*=       ",
"         +...&@@-;$>,')!    ",
"          ....&~%{>]^/(     ",
"          ....%>#_:;%<]     ",
"           ....%[}~#$       ",
"           ...+$:}#+        ",
"           ....@_}          ",
"           ....&_           ",
"          .....+            ",
"         +....              ",
"        ....+               ",
"        ....                ",
"       ..+                  ",
"       ..                   ",
"                            ",
"                            ",
"                            "};
