/* XPM */
static char * nave1_310g_xpm[] = {
"28 28 29 1",
" 	c None",
".	c #980B0B",
"+	c #990B0B",
"@	c #970B0B",
"#	c #960B0B",
"$	c #930A0A",
"%	c #940A0A",
"&	c #940B0B",
"*	c #950B0B",
"=	c #8F0A0A",
"-	c #930B0B",
";	c #900A0A",
">	c #8D0B0B",
",	c #910B0B",
"'	c #900B0B",
")	c #9C1414",
"!	c #8D0A0A",
"~	c #8B0909",
"{	c #9A1313",
"]	c #960A0A",
"^	c #910909",
"/	c #8A0E0E",
"(	c #8A0808",
"_	c #910A0A",
":	c #880D0D",
"<	c #801D1D",
"[	c #841A1A",
"}	c #880E0E",
"|	c #761010",
"                            ",
"                            ",
"              ..            ",
"              +.            ",
"              ..            ",
"             +..            ",
"             ....           ",
"             ....           ",
"             ....           ",
"             .....          ",
"            ......          ",
"            ...@..          ",
"           ...@@.@          ",
" .+ ...++.+....#$%+         ",
" ..++........#&**$          ",
"   .+.......+#=--#@         ",
"       .....$;&&>-@         ",
"         ..*,='';;#)        ",
"           ,=;==!~${        ",
"             ].*-^/(        ",
"                _:<[        ",
"                  }|        ",
"                            ",
"                            ",
"                            ",
"                            ",
"                            ",
"                            "};
