/* XPM */
static char * nave2_140g_xpm[] = {
"28 28 78 1",
" 	c None",
".	c #3320A5",
"+	c #331EB1",
"@	c #2F1F9E",
"#	c #3221A6",
"$	c #30219B",
"%	c #2F1FA8",
"&	c #311FB1",
"*	c #3122A6",
"=	c #31229C",
"-	c #301EB6",
";	c #2F20A4",
">	c #312293",
",	c #30239F",
"'	c #2F20AA",
")	c #3021A4",
"!	c #30229C",
"~	c #3021A6",
"{	c #311FBB",
"]	c #311EBF",
"^	c #321EBC",
"/	c #3021A9",
"(	c #30229D",
"_	c #30239D",
":	c #2F21A8",
"<	c #3023A0",
"[	c #2E20B0",
"}	c #2E1FBA",
"|	c #301EB9",
"1	c #321FB7",
"2	c #301FBA",
"3	c #2E1FBC",
"4	c #2E1FBD",
"5	c #3020B5",
"6	c #3020A8",
"7	c #2F21A6",
"8	c #2F21AA",
"9	c #3223A2",
"0	c #3121AF",
"a	c #2E1EBD",
"b	c #2E1EBC",
"c	c #2F1EBE",
"d	c #2E1EC1",
"e	c #2F1EC1",
"f	c #301EBC",
"g	c #2F1EC2",
"h	c #2E1EC2",
"i	c #311EBB",
"j	c #301EBE",
"k	c #301EC1",
"l	c #2E1FB4",
"m	c #2E1FB1",
"n	c #2F21B0",
"o	c #3021AF",
"p	c #2E1EC0",
"q	c #2E1EC3",
"r	c #301EBF",
"s	c #311EBD",
"t	c #311EBE",
"u	c #2F1FB3",
"v	c #2F20B0",
"w	c #2F22AE",
"x	c #2F1FBA",
"y	c #2F1EC0",
"z	c #2F20B7",
"A	c #3021B1",
"B	c #2F1EB7",
"C	c #2F1FB9",
"D	c #2E1EBE",
"E	c #311FB8",
"F	c #2E1FBE",
"G	c #331EB4",
"H	c #2E1EBF",
"I	c #301EC0",
"J	c #371CB2",
"K	c #351DB6",
"L	c #3C1CAB",
"M	c #331EBA",
"                            ",
"                            ",
"                            ",
"                            ",
"                            ",
"                            ",
"                            ",
"       .+ @                 ",
"       #$%%&*=              ",
"       -;>,')!~{]^          ",
"        /(_:~<[}|12345      ",
"        6;7890abcdefgdhijk] ",
"         lmnocpachghqqrssts ",
"         uvwxtydgqhqhqqq    ",
"          zABrqqqgt         ",
"          CxpDqhh           ",
"          EFqDqhh           ",
"          GyHadI            ",
"           gqhhh            ",
"           rhqqg            ",
"            qqh^            ",
"            qqIIr           ",
"             ggI            ",
"             sht            ",
"              JK            ",
"              LM            ",
"                            ",
"                            "};
