/* XPM */
static char * nave2_300g_xpm[] = {
"28 28 82 1",
" 	c None",
".	c #331EBB",
"+	c #381CB1",
"@	c #371DB3",
"#	c #3E1BA8",
"$	c #311EBE",
"%	c #311EBD",
"&	c #2E1EC3",
"*	c #301EC0",
"=	c #2E1EC2",
"-	c #2F1EC1",
";	c #341DB9",
">	c #2F1EC2",
",	c #2E1EC1",
"'	c #2E1EBF",
")	c #2E1EC0",
"!	c #301EBF",
"~	c #2E1EBC",
"{	c #301EBE",
"]	c #301EC1",
"^	c #2E1EC4",
"/	c #2F1FBB",
"(	c #331DB6",
"_	c #301EBD",
":	c #2E1EB9",
"<	c #2F1FBC",
"[	c #2F1FB9",
"}	c #3020B8",
"|	c #2F1FBE",
"1	c #2F1EBE",
"2	c #2E1EBD",
"3	c #2F1EC0",
"4	c #2F1FB8",
"5	c #2F21B1",
"6	c #3020B6",
"7	c #2E1FBC",
"8	c #2E1FBD",
"9	c #2E1EBE",
"0	c #301EBA",
"a	c #3021B3",
"b	c #2F22AD",
"c	c #2F20B3",
"d	c #351EB2",
"e	c #321EB8",
"f	c #301EB9",
"g	c #2E1FBA",
"h	c #2E1FB9",
"i	c #3020B2",
"j	c #3223A5",
"k	c #3022AD",
"l	c #2E1FB3",
"m	c #2E1FB2",
"n	c #301EB5",
"o	c #311EBF",
"p	c #2F1FB6",
"q	c #2F21A6",
"r	c #3123A0",
"s	c #3022A6",
"t	c #2F21A7",
"u	c #2F20AC",
"v	c #30229B",
"w	c #3121A1",
"x	c #2F20A9",
"y	c #3021A4",
"z	c #30239D",
"A	c #2F21A2",
"B	c #2F1FAF",
"C	c #3122A5",
"D	c #3020AC",
"E	c #3022A2",
"F	c #312395",
"G	c #31229E",
"H	c #301FAC",
"I	c #2F1EA8",
"J	c #301FA1",
"K	c #30209D",
"L	c #301EB6",
"M	c #3020AE",
"N	c #3122A1",
"O	c #3420A9",
"P	c #331FAC",
"Q	c #331EA4",
"                            ",
"                            ",
"                .+          ",
"                @#          ",
"               $%&          ",
"               *=$          ",
"              $*-&          ",
"              ;-&&          ",
"              &&&&          ",
"             -&&&>          ",
"  $         &*,')=          ",
" $$ !&      ===~),          ",
"  *{{!=&&-]^&&,,&/          ",
"   (_,&&>&&&=>-:<[          ",
"     }|1{&,2)3$4566         ",
"       78|129=0abc          ",
"        defghijklmn         ",
"         ]opqrsttu          ",
"           uvwxyzAB         ",
"             CDEFGc         ",
"              HIJKL         ",
"                MNO         ",
"                 PQ         ",
"                            ",
"                            ",
"                            ",
"                            ",
"                            "};
