/* XPM */
static char * nave2_160g_xpm[] = {
"28 28 83 1",
" 	c None",
".	c #331DB6",
"+	c #301EC0",
"@	c #2F20B0",
"#	c #2E1FBC",
"$	c #2E1FBD",
"%	c #301FBA",
"&	c #2F1FBE",
"*	c #2E1EC0",
"=	c #311EBC",
"-	c #301EBE",
";	c #311EBE",
">	c #311EBD",
",	c #331EB4",
"'	c #2F1FA2",
")	c #311FAE",
"!	c #3021A8",
"~	c #31229D",
"{	c #30219F",
"]	c #301FB2",
"^	c #311EB9",
"/	c #321FB7",
"(	c #2E1FBE",
"_	c #2F1EBD",
":	c #2E1EC3",
"<	c #2F1EC0",
"[	c #331FA4",
"}	c #3122A1",
"|	c #2F20A1",
"1	c #2F1EA9",
"2	c #3021A7",
"3	c #2F20A9",
"4	c #3121A3",
"5	c #3023A1",
"6	c #2E1FB4",
"7	c #2E1FBA",
"8	c #2E1EC2",
"9	c #2F1EC1",
"0	c #2E1EC4",
"a	c #351EAD",
"b	c #301FAE",
"c	c #30219A",
"d	c #312394",
"e	c #30239E",
"f	c #2F20A8",
"g	c #3022A5",
"h	c #3222A4",
"i	c #2E1EBD",
"j	c #3021AA",
"k	c #2F21A0",
"l	c #2F22A0",
"m	c #2F21A9",
"n	c #3023A6",
"o	c #3120B2",
"p	c #2F1EC2",
"q	c #2E1FB1",
"r	c #3020A4",
"s	c #2E20AD",
"t	c #2E1FB5",
"u	c #3022AE",
"v	c #301EB4",
"w	c #2F1FB3",
"x	c #2E20AE",
"y	c #2F22AE",
"z	c #2F1FB8",
"A	c #2F1FB2",
"B	c #2F20B7",
"C	c #3021B1",
"D	c #2E1FB7",
"E	c #2E1EBC",
"F	c #2E1EC1",
"G	c #3020B6",
"H	c #2E1EBE",
"I	c #311FB9",
"J	c #2F1FBC",
"K	c #301EBC",
"L	c #321EBD",
"M	c #301EBF",
"N	c #301EC1",
"O	c #311EBF",
"P	c #381CB0",
"Q	c #3B1CAC",
"R	c #331EBA",
"                            ",
"                            ",
"                            ",
"                            ",
"                            ",
"                            ",
"                            ",
"                      . +   ",
"             @ + #$%&*=-;>  ",
"      , ')!~{]>^/(_::<;     ",
"     [}|1234567_899::90     ",
"     abcdefghiii8:::        ",
"       jklmno8**pp+         ",
"       qrstu%-<:0           ",
"        vwxyz-::8           ",
"         ABCDEF:8:          ",
"          Gz*:H8+           ",
"           IJFE*8:          ",
"            K:F80<          ",
"             +:::L          ",
"              8::+M         ",
"               0:<N         ",
"                O8;         ",
"                 :PL        ",
"                  QR        ",
"                            ",
"                            ",
"                            "};
