/* XPM */
static char * nave1_320g_xpm[] = {
"28 28 29 1",
" 	c None",
".	c #980B0B",
"+	c #990B0B",
"@	c #970B0B",
"#	c #950B0B",
"$	c #960B0B",
"%	c #940A0A",
"&	c #930A0A",
"*	c #930B0B",
"=	c #940B0B",
"-	c #900A0A",
";	c #910B0B",
">	c #8D0A0A",
",	c #9A0E0E",
"'	c #8E0A0A",
")	c #8F0A0A",
"!	c #8E0909",
"~	c #960E0E",
"{	c #920B0B",
"]	c #900808",
"^	c #8B0C0C",
"/	c #8A0808",
"(	c #960A0A",
"_	c #8C0D0D",
":	c #811C1C",
"<	c #821C1C",
"[	c #920A0A",
"}	c #880D0D",
"|	c #781313",
"                            ",
"                            ",
"            ..              ",
"            ..              ",
"            ...             ",
"            ...             ",
"           .+...            ",
"            ....            ",
"            .....           ",
"            .....           ",
"            ......          ",
"           ....@..          ",
"           ...@@#$          ",
"         ......$%&          ",
"    ++..+....$**=#@         ",
" .+...........-=;*$         ",
" .+..........-*=>-&,        ",
"      ......#');)>!~        ",
"          .@;)){;)]^/       ",
"              (.=*_:<       ",
"                 [ }|       ",
"                            ",
"                            ",
"                            ",
"                            ",
"                            ",
"                            ",
"                            "};
