/* XPM */
static char * nave2_040g_xpm[] = {
"28 28 79 1",
" 	c None",
".	c #2E1FB1",
"+	c #2E1FB4",
"@	c #2F1FB8",
"#	c #3320A7",
"$	c #331FA4",
"%	c #3020B6",
"&	c #301EB4",
"*	c #2F1FB1",
"=	c #3020A3",
"-	c #3122A2",
";	c #30209E",
">	c #30219D",
",	c #331EB1",
"'	c #301EBF",
")	c #2E1EC0",
"!	c #321EB7",
"~	c #2F1FBB",
"{	c #2F20B6",
"]	c #2E1FAF",
"^	c #2F21A1",
"/	c #302398",
"(	c #302199",
"_	c #2F20AB",
":	c #2E1EC3",
"<	c #2E1EC2",
"[	c #2E1EC1",
"}	c #2F20B4",
"|	c #2F21B0",
"1	c #2F22AE",
"2	c #2E1FB3",
"3	c #3022A3",
"4	c #3023A0",
"5	c #3021A6",
"6	c #2F1FA3",
"7	c #3C1CAC",
"8	c #381CB1",
"9	c #2E1EBD",
"0	c #2E1EB8",
"a	c #2F1FB9",
"b	c #3021B1",
"c	c #3023A7",
"d	c #2F21A8",
"e	c #2F20AA",
"f	c #3020AE",
"g	c #331EBB",
"h	c #361DB5",
"i	c #311EBF",
"j	c #301EC1",
"k	c #2E1EBF",
"l	c #2F1EC0",
"m	c #311EBE",
"n	c #301EBC",
"o	c #3222A7",
"p	c #3122A1",
"q	c #3121A3",
"r	c #3022A5",
"s	c #301EC0",
"t	c #331DBB",
"u	c #2F1EC1",
"v	c #2E1FBB",
"w	c #3023A4",
"x	c #30229C",
"y	c #31229B",
"z	c #2E1EBE",
"A	c #2E1EBB",
"B	c #2E1EC4",
"C	c #2E1FBC",
"D	c #311FBA",
"E	c #311EBB",
"F	c #301FBA",
"G	c #351EB5",
"H	c #2F1EC2",
"I	c #301EBD",
"J	c #2E1FBD",
"K	c #2F1EBF",
"L	c #321DBA",
"M	c #331DB5",
"N	c #301EBE",
"                            ",
"                            ",
"                            ",
"                            ",
"                            ",
"                            ",
"                            ",
"                            ",
"                 .+@#$      ",
"             % &*=-;>,      ",
"         ')!~%{]]^/(_       ",
"      ::<:<<[}|123456       ",
"  78:::::<9)[0abcdef        ",
"  ghij'<:<kk)lmnopqr        ",
"     s't::u:::l[vwxy        ",
"          l<::)zA2e         ",
"            :Bl9CnD         ",
"             :<[~E          ",
"             u<:FG          ",
"             :HIJ           ",
"             ::KJ           ",
"             ::K            ",
"             luk            ",
"             'lL            ",
"              mM            ",
"             Ns             ",
"             ms             ",
"                            "};
