/* XPM */
static char *_d54c2f5b44a4b56bf2902b45943157c[] = {
/* columns rows colors chars-per-pixel */
"28 28 217 2 ",
"   c #0B0B0B",
".  c #100F0F",
"X  c #100A10",
"o  c #120B12",
"O  c #100F10",
"+  c #101010",
"@  c gray7",
"#  c #131313",
"$  c #161616",
"%  c gray9",
"&  c #181818",
"*  c #191919",
"=  c #19191A",
"-  c gray11",
";  c #1D1D1D",
":  c #1E1E1E",
">  c gray12",
",  c #173019",
"<  c #211922",
"1  c #221922",
"2  c #251926",
"3  c #261926",
"4  c #301833",
"5  c #301F38",
"6  c #202020",
"7  c gray13",
"8  c #222222",
"9  c #232323",
"0  c gray14",
"q  c #252525",
"w  c #242724",
"e  c #252526",
"r  c gray15",
"t  c #272727",
"y  c #252B25",
"u  c #2D272E",
"i  c #2E272E",
"p  c #272B28",
"a  c #282828",
"s  c gray16",
"d  c #282B28",
"f  c #2A2A2A",
"g  c gray17",
"h  c #2B2D2C",
"j  c #2B2E2C",
"k  c #2C2C2C",
"l  c #2D2D2D",
"z  c gray18",
"x  c #2F2F2F",
"c  c #2A352B",
"v  c #2A362C",
"b  c #302032",
"n  c #312032",
"m  c #302038",
"M  c gray19",
"N  c #313131",
"B  c #323232",
"V  c #343434",
"C  c gray21",
"Z  c #373737",
"A  c #383738",
"S  c gray22",
"D  c #125118",
"F  c #106919",
"G  c #10691A",
"H  c #0B7F16",
"J  c #0A7F17",
"K  c #0E7618",
"L  c #0E7619",
"P  c #29452C",
"I  c #264F2A",
"U  c #264F2B",
"Y  c #265C2C",
"T  c #354637",
"R  c #364638",
"E  c #34753B",
"W  c #35753B",
"Q  c #350E45",
"!  c #400A44",
"~  c #410A45",
"^  c #470B4D",
"/  c #480B4E",
"(  c #4A0950",
")  c #4C0858",
"_  c #401156",
"`  c #401157",
"'  c #49125E",
"]  c #41294D",
"[  c #433744",
"{  c #4D2B50",
"}  c #532E56",
"|  c #470D63",
" . c #470E63",
".. c #480E63",
"X. c #480E64",
"o. c #5E106D",
"O. c #53196E",
"+. c #520B74",
"@. c #630473",
"#. c #630474",
"$. c #6D3074",
"%. c #6D3F70",
"&. c gray29",
"*. c #4F4E4F",
"=. c gray32",
"-. c #555555",
";. c #5F5F5F",
":. c #76457A",
">. c #606060",
",. c gray38",
"<. c #626262",
"1. c #6C6C6C",
"2. c gray46",
"3. c #767676",
"4. c gray47",
"5. c #797979",
"6. c gray48",
"7. c #7C7C7C",
"8. c #7E7E7E",
"9. c #3BAF47",
"0. c #3BAF48",
"q. c #53CD60",
"w. c #54CD60",
"e. c #6E039C",
"r. c #6E039D",
"t. c #7A0495",
"y. c #7104A3",
"u. c #7901A3",
"i. c #7E03A3",
"p. c #7E04A3",
"a. c #7A01A6",
"s. c #7A01A7",
"d. c #892797",
"f. c #8A2797",
"g. c #89239B",
"h. c #903A9A",
"j. c #913A9D",
"k. c #881AA9",
"l. c #8400BE",
"z. c #8C1AB8",
"x. c #8C29A6",
"c. c #8C28A7",
"v. c #9329BE",
"b. c #9D50A5",
"n. c #9D51A6",
"m. c #AC6CB6",
"M. c #8301C1",
"N. c #8301C2",
"B. c #8500C1",
"V. c #8500C2",
"C. c #8600C5",
"Z. c #8600C6",
"A. c #9328C0",
"S. c #AB5EC8",
"D. c #AB5ECA",
"F. c #BB7CD2",
"G. c #808080",
"H. c #848484",
"J. c #939294",
"K. c #949194",
"L. c #959595",
"P. c #989798",
"I. c #989898",
"U. c #9C9B9C",
"Y. c #A99CAA",
"T. c #A99DAA",
"R. c #A7A7A7",
"E. c #A2AAA3",
"W. c #A9A9A9",
"Q. c #AEAEAE",
"!. c #AFAFAF",
"~. c #C499C9",
"^. c #CBA4CD",
"/. c #CBA4CE",
"(. c #C1BFC1",
"). c #CEABD1",
"_. c #CFABD1",
"`. c gray77",
"'. c #C5C5C5",
"]. c #CECECE",
"[. c gray81",
"{. c #D0C5D1",
"}. c #D0D0D0",
"|. c gray83",
" X c gray85",
".X c #DADADA",
"XX c #DFCFE0",
"oX c #DFCFE1",
"OX c #E4D2EC",
"+X c #E4D2ED",
"@X c #E8DBE9",
"#X c #E8DFEB",
"$X c #E8DEEC",
"%X c #EAE0EE",
"&X c #EAE0EF",
"*X c gray91",
"=X c #E9ECE9",
"-X c #E9ECEA",
";X c #EEE9EE",
":X c #EFEAEF",
">X c #EFEBEF",
",X c gray93",
"<X c #EBE0F0",
"1X c #EFEBF0",
"2X c #F0EAF3",
"3X c #F3F1F3",
"4X c gray95",
"5X c #F3F2F3",
"6X c #F3F2F4",
"7X c #F4F4F4",
"8X c gray96",
"9X c #F6F5F5",
"0X c #F5F6F5",
"qX c #F6F5F6",
"wX c #F5F6F6",
"eX c none",
"rX c none",
/* pixels */
"rXeXeXeXeXeXeXeXeXeXeXeXeX4X4XeXeXeXeXeXeXeXeXeXeXeXeXrX",
"eXeXeXeXeXeXeXeXeXeXeXeX XG.G. XeXeXeXeXeXeXeXeXeXeXeXeX",
"eXeXeXeXeXeXeXeXeXeXeX4X6.@ @ 6.4XeXeXeXeXeXeXeXeXeXeXeX",
"eXeXeXeXeXeXeXeXeXeXeX4X>.6 6 >.4XeXeXeXeXeXeXeXeXeXeXeX",
"eXeXeXeXeXeXeXeXeXeX7XQ.Z 7 7 Z Q.7XeXeXeXeXeXeXeXeXeXeX",
"eXeXeXeXeXeXeXeXeXeX!.C - # # - Z !.eXeXeXeXeXeXeXeXeXeX",
"eXeXeXeXeXeXeXeXeXeXL.: ; + + ; > L.eXeXeXeXeXeXeXeXeXeX",
"eXeXeXeXeXeXqXqXeXeXL.> V 7 7 V 6 L.eXeXqXqXeXeXeXeXeXeX",
"eXeXeXeXeX5X~.F.<XeXL.> Z 7 7 Z 6 L.eX<XF.~.5XeXeXeXeXeX",
"eXeXeXeXeX6Xn.z.+XeXL.> Z 7 7 Z 6 L.eX+Xz.b.5XeXeXeXeXeX",
"eXeXeXeXeX6Xn.k.OX*X2.> Z 7 7 Z 6 2.*XOXk.b.5XeXeXeXeXeX",
"eXeXeXeXeX(.%.$.{.3.t s x $ $ x s a 3.{.$.%.(.8XeXeXeXeX",
"eX:X2XwXeX6.8 *.E.v - > $ X X $ > - c E.*.8 5.8X9X2X:XeX",
"1Xm.S.%XeX4.8 R 0.L y - o ) ) o - y K 9.T 8 4.8X&XD.m.>X",
">Xj.v.&XeXI.P Y F D j b Q e.r.Q n h D G Y P P.8X&XA.j.1X",
";Xh.x.#XeX=Xq.J , p ; ^ s.Z.C.a./ ; d , H w.-XeX$Xc.h.;X",
"U.{ } J.,XR.E I w g   ( u.+.+.u.(   g w U W R.,XK.} { U.",
"<.q Z -.W.x r B k q . ! #.4 4 @.~ O q k B r x W.-.A q <.",
"<.q Z &.3.f z a : a 7 < 3 e q 2 1 7 a : a z f 3.&.S q <.",
"<.9 f > l f f t * 5 O.] g # # g ] O.m = t f f l > f 9 <.",
"<.7 % : a 8 z N u _ M.| x * * x  .N.` i N x 8 a : % 7 <.",
"<.7 > 6 z z 6 [ o.y.Z...9 t r 9 X.Z.y.o.[ 6 z z 6 > 7 <.",
"<.7 % r k 8 =.T.g.B.l.' > a a > ' l.V.g.Y.=.8 k r % 7 <.",
"<.6 & g 7 =.'.@Xd.i.t.:.S Z Z S :.t.p.f.@X`.=.7 g & 6 <.",
"<.0 r : >.|.eX3X).^./.oX;.9 9 ;.XX^.^._.3X8X|.,.> r 0 <.",
"8.r M 1.].eXeXeX0X0X0X4X7.6 6 7.4X0X0X0X0XeXeX[.1.N r 8.",
".XH.7.}.eXeXeXeXeXeXeXeX XH.H. XeXeXeXeXeXeXeXeX}.7.H..X",
"rX4X4XeXeXeXeXeXeXeXeXeXeX4X4XeXeXeXeXeXeXeXeXeXeX4X4XrX"
};
