/* XPM */
static char * nave1_170g_xpm[] = {
"28 28 27 1",
" 	c None",
".	c #980B0B",
"+	c #990B0B",
"@	c #970B0B",
"#	c #910A0A",
"$	c #900A0A",
"%	c #930B0B",
"&	c #930A0A",
"*	c #960B0B",
"=	c #940B0B",
"-	c #8F0A0A",
";	c #740808",
">	c #7E1919",
",	c #841212",
"'	c #8E0C0C",
")	c #920B0B",
"!	c #900B0B",
"~	c #940A0A",
"{	c #831B1B",
"]	c #841616",
"^	c #8B0909",
"/	c #900909",
"(	c #8A0808",
"_	c #8D0B0B",
":	c #950B0B",
"<	c #9C1414",
"[	c #960A0A",
"                            ",
"                            ",
"                            ",
"                            ",
"                            ",
"                       .    ",
"                    ++...   ",
"                . .... .    ",
"              ........      ",
"          @#$%.......       ",
"       $&*=--=.....+        ",
"    ;>,')$!!-~+...          ",
"     {]-^--=%@...+          ",
"     /(=-#_:$%...           ",
"       <[=%==@...           ",
"         .:%**@.+.          ",
"          *~=.@...          ",
"           @@.....+         ",
"            .......         ",
"              ......        ",
"                ....        ",
"                .....       ",
"                  ...       ",
"                   ...      ",
"                            ",
"                            ",
"                            ",
"                            "};
