/* XPM */
static char * nave2_230g_xpm[] = {
"28 28 78 1",
" 	c None",
".	c #311EBF",
"+	c #311EBD",
"@	c #301EC1",
"#	c #311EBE",
"$	c #301EBE",
"%	c #311EBB",
"&	c #2E1EC3",
"*	c #2E1EC2",
"=	c #301EBF",
"-	c #3020B5",
";	c #2E1EC1",
">	c #2E1FBD",
",	c #2F1EC2",
"'	c #2E1FBC",
")	c #301EBC",
"!	c #301FBA",
"~	c #2F1EC1",
"{	c #321EBC",
"]	c #321FB7",
"^	c #301EB9",
"/	c #2F1EBE",
"(	c #311FBB",
"_	c #2E1FBA",
":	c #2E1EBC",
"<	c #2E1EBD",
"[	c #301EC0",
"}	c #351DB6",
"|	c #331EBA",
"1	c #3021A6",
"2	c #2E20B0",
"3	c #2E1EC0",
"4	c #2F1EC0",
"5	c #371CB2",
"6	c #3C1CAB",
"7	c #31229C",
"8	c #30229C",
"9	c #3023A0",
"0	c #3121AF",
"a	c #2E1EBE",
"b	c #3122A6",
"c	c #3021A4",
"d	c #3223A2",
"e	c #3021AF",
"f	c #2F1FBA",
"g	c #2F1EB7",
"h	c #2E1EBF",
"i	c #311FB1",
"j	c #2F20AA",
"k	c #2F21A8",
"l	c #2F21AA",
"m	c #2F21B0",
"n	c #2F22AE",
"o	c #3021B1",
"p	c #2E1FBE",
"q	c #2F1F9E",
"r	c #2F1FA8",
"s	c #30239F",
"t	c #30239D",
"u	c #2F21A6",
"v	c #2E1FB1",
"w	c #2F20B0",
"x	c #2F20B7",
"y	c #2F1FB9",
"z	c #311FB8",
"A	c #331EB4",
"B	c #312293",
"C	c #30229D",
"D	c #2F20A4",
"E	c #2E1FB4",
"F	c #2F1FB3",
"G	c #331EB1",
"H	c #30219B",
"I	c #3021A9",
"J	c #3020A8",
"K	c #3320A5",
"L	c #3221A6",
"M	c #301EB6",
"                            ",
"           .+               ",
"           @#               ",
"           $+               ",
"           %+&              ",
"           *=&              ",
"          -;&&              ",
"          >,&*              ",
"          ')*&              ",
"          !~,*#             ",
"         {];*&,             ",
"         .^//,&**    =      ",
"         (_:<;&**[*,{[[#}|  ",
"         12<34&&&;*&*[,*56  ",
"        7890/#=aa<*&&&,+    ",
"        bc1defg3&h&*&&      ",
"        ijklmnofp4,=        ",
"       qrstuvwxyzA          ",
"        rBCDEF              ",
"       GHDIJ                ",
"       KLM                  ",
"                            ",
"                            ",
"                            ",
"                            ",
"                            ",
"                            ",
"                            "};
