/* XPM */
static char * nave2_090g_xpm[] = {
"28 28 78 1",
" 	c None",
".	c #331EA4",
"+	c #341FA7",
"@	c #3123A1",
"#	c #331EB2",
"$	c #2E1FB1",
"%	c #302098",
"&	c #2F20AB",
"*	c #2E1FB0",
"=	c #31229F",
"-	c #312292",
";	c #2F1EAB",
">	c #2F1FA1",
",	c #3020A0",
"'	c #2F219E",
")	c #302499",
"!	c #3022A3",
"~	c #311FB0",
"{	c #301EB5",
"]	c #2E1FAF",
"^	c #2F21A1",
"/	c #3022A1",
"(	c #2F20AA",
"_	c #2F21A7",
":	c #3122A4",
"<	c #2F1FB2",
"[	c #2E1FAD",
"}	c #2F20AD",
"|	c #2F22A1",
"1	c #2F21A5",
"2	c #3121A2",
"3	c #302299",
"4	c #3020B6",
"5	c #2F20B7",
"6	c #2F22AD",
"7	c #3022AE",
"8	c #3124A0",
"9	c #332499",
"0	c #30239E",
"a	c #3021A3",
"b	c #2F1FBA",
"c	c #3021B1",
"d	c #2F20B3",
"e	c #301EBB",
"f	c #2E1EBE",
"g	c #2E20B2",
"h	c #2E20B1",
"i	c #311EBE",
"j	c #331EB4",
"k	c #2E1FBD",
"l	c #2E1EC1",
"m	c #2E1EB8",
"n	c #301EBF",
"o	c #2E1EC0",
"p	c #2E1EBD",
"q	c #2F20B2",
"r	c #311EB6",
"s	c #2E1EC2",
"t	c #2E1EC3",
"u	c #2F1EC1",
"v	c #2E1EBC",
"w	c #2F1EBD",
"x	c #3021AF",
"y	c #351EB0",
"z	c #2E1FB9",
"A	c #2E1FBC",
"B	c #301EC0",
"C	c #301EBC",
"D	c #3020B5",
"E	c #321EBC",
"F	c #351DB7",
"G	c #331DB6",
"H	c #301EBE",
"I	c #321EBB",
"J	c #3E1BA7",
"K	c #391CAF",
"L	c #361DB5",
"M	c #311EBD",
"                            ",
"                            ",
"                            ",
"                            ",
"              .             ",
"             +@#            ",
"             $%&            ",
"            *=-;>           ",
"            ,')!~           ",
"           {]^/(_:          ",
"           <[}|123          ",
"          4567890a}         ",
"          bcdbefghi         ",
"         jklminopqrn        ",
"         lstftuovwxy        ",
"        ntpvstttusfzA       ",
"        stlotsstttBCk       ",
"       ttttsns  istsuD      ",
"       ttsts      stto      ",
"      EtnBF        snlG     ",
"      tuBH          sIH     ",
"     JKE              HB    ",
"     LE               MM    ",
"                            ",
"                            ",
"                            ",
"                            ",
"                            "};
