/* XPM */
static char * nave2_210g_xpm[] = {
"28 28 83 1",
" 	c None",
".	c #311EBE",
"+	c #301EC0",
"@	c #331DB6",
"#	c #301EBE",
"$	c #301EBD",
"%	c #301EBF",
"&	c #3020B8",
"*	c #2E1EC1",
"=	c #2E1EC3",
"-	c #2F1FBE",
";	c #2E1EC2",
">	c #2E1FBC",
",	c #2F1EBE",
"'	c #351EB2",
")	c #2E1FBD",
"!	c #2F1EC2",
"~	c #301EC1",
"{	c #321EB8",
"]	c #2F1EC1",
"^	c #311EBF",
"/	c #301EB9",
"(	c #2F20AC",
"_	c #2F1FB6",
":	c #2E1FBA",
"<	c #2E1EBD",
"[	c #2E1EC4",
"}	c #30229B",
"|	c #2F21A6",
"1	c #2E1FB9",
"2	c #2E1EBE",
"3	c #2E1EC0",
"4	c #3122A5",
"5	c #3121A1",
"6	c #3123A0",
"7	c #3020B2",
"8	c #2F1EC0",
"9	c #301FAC",
"0	c #3020AC",
"a	c #2F20A9",
"b	c #3022A6",
"c	c #3223A5",
"d	c #301EBA",
"e	c #341DB9",
"f	c #2F1EA8",
"g	c #3022A2",
"h	c #3021A4",
"i	c #2F21A7",
"j	c #3022AD",
"k	c #3021B3",
"l	c #2F1FB8",
"m	c #2E1EB9",
"n	c #2E1EBC",
"o	c #2E1EBF",
"p	c #3020AE",
"q	c #301FA1",
"r	c #312395",
"s	c #30239D",
"t	c #2E1FB3",
"u	c #2F22AD",
"v	c #2F21B1",
"w	c #2F1FBC",
"x	c #311EBD",
"y	c #371DB3",
"z	c #331EBB",
"A	c #331FAC",
"B	c #3122A1",
"C	c #30209D",
"D	c #31229E",
"E	c #2F21A2",
"F	c #2E1FB2",
"G	c #2F20B3",
"H	c #3020B6",
"I	c #2F1FB9",
"J	c #2F1FBB",
"K	c #3E1BA8",
"L	c #381CB1",
"M	c #331EA4",
"N	c #3420A9",
"O	c #301EB6",
"P	c #2E20B3",
"Q	c #2F1FAF",
"R	c #301EB5",
"                            ",
"                .           ",
"               +..          ",
"              @#            ",
"              $#%           ",
"             &*%=           ",
"             -=;            ",
"            >,==            ",
"           ')#!=            ",
"          ~{-==]            ",
"          ^/,*=~            ",
"         (_:<<=[            ",
"         }|123;=;=          ",
"        4567;8!=;+]         ",
"       90abcd.]*;*==e.      ",
"       fghijklm*no==]++.    ",
"      pqrsituvw=33===];xyz  ",
"     ABCDE(FGHIJ*;!===.=KL  ",
"     MNOPQ R H              ",
"                            ",
"                            ",
"                            ",
"                            ",
"                            ",
"                            ",
"                            ",
"                            ",
"                            "};
