/* XPM */
static char * nave2_180g_xpm[] = {
"28 28 78 1",
" 	c None",
".	c #301EC0",
"+	c #311EBD",
"@	c #331DB6",
"#	c #301EBE",
"$	c #3020B5",
"%	c #2E1EC0",
"&	c #2E1EC1",
"*	c #321EBB",
"=	c #2E1FBC",
"-	c #2E1FBD",
";	c #2F1EC1",
">	c #2E1EC3",
",	c #301EBF",
"'	c #2E1EC2",
")	c #351EB0",
"!	c #2E1FB9",
"~	c #301EBC",
"{	c #2F20AD",
"]	c #311EBE",
"^	c #311EB6",
"/	c #3021AF",
"(	c #2E1EBE",
"_	c #3122A4",
":	c #302299",
"<	c #3021A3",
"[	c #2E20B1",
"}	c #2F20B2",
"|	c #2F1EBD",
"1	c #2F1FA1",
"2	c #311FB0",
"3	c #2F21A7",
"4	c #3121A2",
"5	c #30239E",
"6	c #2E20B2",
"7	c #2E1EBD",
"8	c #2E1EBC",
"9	c #331EB2",
"0	c #2F20AB",
"a	c #2F1EAB",
"b	c #3022A3",
"c	c #2F20AA",
"d	c #2F21A5",
"e	c #332499",
"f	c #331EA4",
"g	c #3123A1",
"h	c #302098",
"i	c #312292",
"j	c #302499",
"k	c #3022A1",
"l	c #2F22A1",
"m	c #3124A0",
"n	c #301EBB",
"o	c #341FA7",
"p	c #2E1FB1",
"q	c #31229F",
"r	c #2F219E",
"s	c #2F21A1",
"t	c #3022AE",
"u	c #2F1FBA",
"v	c #2E1FB0",
"w	c #3020A0",
"x	c #2E1FAF",
"y	c #2E1FAD",
"z	c #2F22AD",
"A	c #2F20B3",
"B	c #2E1EB8",
"C	c #301EB5",
"D	c #2F1FB2",
"E	c #2F20B7",
"F	c #3021B1",
"G	c #3020B6",
"H	c #351DB7",
"I	c #331EB4",
"J	c #321EBC",
"K	c #391CAF",
"L	c #3E1BA7",
"M	c #361DB5",
"                            ",
"                            ",
"                            ",
"                            ",
"                     .+     ",
"                   @##+     ",
"                 $%&*       ",
"               =-;>,'       ",
"             ,)!~'>'        ",
"           {]^/(.>'         ",
"         _:<[}|'>'          ",
"       12345678;>]          ",
"     90abcde(%%>>           ",
"    fghijklmn,;>'           ",
"     opqrs{tu]>>''          ",
"       vwxyzAB('>,          ",
"         CDEF&>8%''         ",
"           Gu-'7&>>H        ",
"             I&>>>'.#       ",
"               ,'>>,.       ",
"                 >>>;J      ",
"                   J>KJ     ",
"                     LM     ",
"                            ",
"                            ",
"                            ",
"                            ",
"                            "};
