/* XPM */
static char * nave2_240g_xpm[] = {
"28 28 78 1",
" 	c None",
".	c #301EC0",
"+	c #311EBE",
"@	c #301EBE",
"#	c #321DBA",
"$	c #321EBC",
"%	c #311DBB",
"&	c #2E1EC1",
"*	c #2F1EC1",
"=	c #2E1FBD",
"-	c #2E1EC2",
";	c #3020B8",
">	c #2E1EC3",
",	c #2F1EBF",
"'	c #2F1EBD",
")	c #311EBF",
"!	c #341EB3",
"~	c #2E1EC0",
"{	c #2F1EC2",
"]	c #321EBD",
"^	c #301EBF",
"/	c #331EBA",
"(	c #341EB9",
"_	c #321EB9",
":	c #2F1FBC",
"<	c #2F1EC0",
"[	c #2E1EC4",
"}	c #3B1CAC",
"|	c #3B1CAD",
"1	c #311EBC",
"2	c #2F1FBA",
"3	c #2E1EBD",
"4	c #2E1EBE",
"5	c #2F20B0",
"6	c #301FB8",
"7	c #2E1FB8",
"8	c #3021A2",
"9	c #2F22A8",
"0	c #2E1FB9",
"a	c #30229C",
"b	c #3122A1",
"c	c #33239F",
"d	c #3121AF",
"e	c #2F1FB7",
"f	c #3122A6",
"g	c #2F21A6",
"h	c #2F20A9",
"i	c #2F21A7",
"j	c #3022AC",
"k	c #3022AE",
"l	c #2F21B0",
"m	c #3021B2",
"n	c #2E1FBC",
"o	c #321EB6",
"p	c #3020AC",
"q	c #3022A3",
"r	c #2E1FB1",
"s	c #2E20AF",
"t	c #2F20B4",
"u	c #3020B7",
"v	c #2F1FA1",
"w	c #2F1FA9",
"x	c #30249A",
"y	c #2F229E",
"z	c #2E1FB4",
"A	c #2F1FB2",
"B	c #2F1FA3",
"C	c #312293",
"D	c #3022A1",
"E	c #3020A3",
"F	c #301EB3",
"G	c #331EB2",
"H	c #30219C",
"I	c #2E1FAE",
"J	c #2F20B1",
"K	c #331FA6",
"L	c #3221A5",
"M	c #331EB0",
"                            ",
"                            ",
"         .+                 ",
"         .@                 ",
"         #$.                ",
"         %&*                ",
"         =-*                ",
"         ;>>>               ",
"         =,>>               ",
"         ='.>)              ",
"         !~>>{      ]^ $/(  ",
"         _:<*[->*.-)^.*+}|  ",
"         1234->->&>>-*>*    ",
"        5673~<>-~4->>[      ",
"         890*+^3&3->>>      ",
"         abcd2e3>->.        ",
"        fghijklmno          ",
"         pgqrstu2           ",
"        vwxyhzA             ",
"         BCDEF              ",
"        GHIJz               ",
"        KLM                 ",
"                            ",
"                            ",
"                            ",
"                            ",
"                            ",
"                            "};
