/* XPM */
static char * nave2_010g_xpm[] = {
"28 28 82 1",
" 	c None",
".	c #3A1CAE",
"+	c #361DB5",
"@	c #2E1EC4",
"#	c #321EBB",
"$	c #321EBC",
"%	c #341DB8",
"&	c #2F1EC2",
"*	c #2E1EC3",
"=	c #301EBF",
"-	c #301EC1",
";	c #2E1EC2",
">	c #321EB6",
",	c #301EC0",
"'	c #2F1EC1",
")	c #2E1EC0",
"!	c #2E1EC1",
"~	c #2E1FBF",
"{	c #2F1FBB",
"]	c #3020B7",
"^	c #2F20B5",
"/	c #301EB4",
"(	c #361DB8",
"_	c #321EBD",
":	c #2E1EBD",
"<	c #2E1EBF",
"[	c #2F1FBA",
"}	c #3021B1",
"|	c #2F20B1",
"1	c #2E1FB0",
"2	c #2F1FAB",
"3	c #2F20A5",
"4	c #2E1FB1",
"5	c #2E1EB7",
"6	c #2F20B3",
"7	c #2F22AD",
"8	c #2F1FAC",
"9	c #2F21A2",
"0	c #2F219E",
"a	c #31229F",
"b	c #2F1FAA",
"c	c #3321A4",
"d	c #331EA4",
"e	c #2F1EC0",
"f	c #311EBE",
"g	c #3023A8",
"h	c #2F21A5",
"i	c #3022A0",
"j	c #302499",
"k	c #312294",
"l	c #30209C",
"m	c #3221A9",
"n	c #301EBE",
"o	c #32249E",
"p	c #2F22A2",
"q	c #2F20A9",
"r	c #3022A3",
"s	c #2F1EAA",
"t	c #2F20AC",
"u	c #331EB3",
"v	c #3123A1",
"w	c #3122A0",
"x	c #2F21A6",
"y	c #3020AE",
"z	c #301FA6",
"A	c #2E1EBE",
"B	c #2E1FB6",
"C	c #2F21A7",
"D	c #30229D",
"E	c #3122A6",
"F	c #2F1FB9",
"G	c #2F20B2",
"H	c #3021A5",
"I	c #2E1FBC",
"J	c #3021AF",
"K	c #311EB9",
"L	c #301EBD",
"M	c #2E1FB9",
"N	c #351EB0",
"O	c #2F1FBD",
"P	c #2F1FBC",
"Q	c #2F1FB8",
"                            ",
"                            ",
"                            ",
"                            ",
"                            ",
"                            ",
"    .                       ",
"    +.@#                    ",
"    $%&*** =                ",
"      -=***&;>              ",
"      =,'**)!~{]^/          ",
"       (_@;:<@[}|1234       ",
"         ;'!):567890abcd    ",
"          e***f[ghijklm     ",
"          *;*'=nopqrstu     ",
"           *@!)<vwxyz       ",
"           &*A:BCDwE        ",
"           &*!FGGH          ",
"           *'IJKf           ",
"          ;;LMN-            ",
"         ;@;OI              ",
"        *,;OP               ",
"        #=)Q                ",
"       fn#                  ",
"       f,                   ",
"                            ",
"                            ",
"                            "};
