/* XPM */
static char * nave2_330g_xpm[] = {
"28 28 78 1",
" 	c None",
".	c #341EB9",
"+	c #3B1CAD",
"@	c #331EBA",
"#	c #3B1CAC",
"$	c #321EBC",
"%	c #311EBE",
"&	c #2F1EC1",
"*	c #2E1EC3",
"=	c #301EBF",
"-	c #301EC0",
";	c #2E1EC4",
">	c #321EBD",
",	c #2E1EC2",
"'	c #311EBF",
")	c #2E1EC1",
"!	c #2E1EBE",
"~	c #2E1EBD",
"{	c #321EB6",
"]	c #2E1EC0",
"^	c #2E1FBC",
"/	c #2F1FBA",
"(	c #3021B2",
"_	c #3020B7",
":	c #2F1FB7",
"<	c #2F21B0",
"[	c #2F20B4",
"}	c #2F1FB2",
"|	c #2F1EC2",
"1	c #2F1EC0",
"2	c #3022AE",
"3	c #2E20AF",
"4	c #2E1FB4",
"5	c #301EB3",
"6	c #3121AF",
"7	c #3022AC",
"8	c #2E1FB1",
"9	c #2F20A9",
"0	c #3020A3",
"a	c #2E1FB9",
"b	c #33239F",
"c	c #2F21A7",
"d	c #3022A3",
"e	c #2F229E",
"f	c #3022A1",
"g	c #2F20B1",
"h	c #301EBE",
"i	c #2F1EBF",
"j	c #2F1EBD",
"k	c #2F1FBC",
"l	c #2E1FB8",
"m	c #2F22A8",
"n	c #3122A1",
"o	c #2F21A6",
"p	c #30249A",
"q	c #312293",
"r	c #2E1FAE",
"s	c #331EB0",
"t	c #321DBA",
"u	c #311DBB",
"v	c #2E1FBD",
"w	c #3020B8",
"x	c #341EB3",
"y	c #321EB9",
"z	c #311EBC",
"A	c #301FB8",
"B	c #3021A2",
"C	c #30229C",
"D	c #3020AC",
"E	c #2F1FA9",
"F	c #2F1FA3",
"G	c #30219C",
"H	c #3221A5",
"I	c #2F20B0",
"J	c #3122A6",
"K	c #2F1FA1",
"L	c #331EB2",
"M	c #331FA6",
"                            ",
"                            ",
"          .+                ",
"          @#                ",
"          $%&               ",
"           &*               ",
"          =-&;*             ",
"          >=,**             ",
"           '***-            ",
"           ,*,,*            ",
"           -)!~,{           ",
"           &*])*^/          ",
"           *,,~~(_          ",
"           ,**=:<[}         ",
"         '|;,1%/2345        ",
"       ****&!]&678904       ",
"    -&&**-*1~~abcdefg       ",
"  %h$),*ij]k/lmn9opqrs      ",
"  --tuvwvvxyzABCoDEFGH      ",
"             I  J K LM      ",
"                            ",
"                            ",
"                            ",
"                            ",
"                            ",
"                            ",
"                            ",
"                            "};
