/* XPM */
static char * nave2_310g_xpm[] = {
"28 28 79 1",
" 	c None",
".	c #331EBB",
"+	c #3C1CAC",
"@	c #361DB5",
"#	c #381CB1",
"$	c #311EBF",
"%	c #2E1EC3",
"&	c #301EC0",
"*	c #301EC1",
"=	c #301EBF",
"-	c #331DBB",
";	c #2E1EC2",
">	c #2F1EC0",
",	c #2F1EC1",
"'	c #2E1EBF",
")	c #2E1EBD",
"!	c #2E1EC0",
"~	c #321EB7",
"{	c #2E1EC1",
"]	c #2F1FBB",
"^	c #311EBE",
"/	c #301EBE",
"(	c #2E1EC4",
"_	c #2E1EB8",
":	c #2F20B4",
"<	c #3020B6",
"[	c #2F1EC2",
"}	c #2F1FB9",
"|	c #2F21B0",
"1	c #2F20B6",
"2	c #331DB5",
"3	c #321DBA",
"4	c #2F1EBF",
"5	c #301EBD",
"6	c #2E1EBE",
"7	c #301EBC",
"8	c #3021B1",
"9	c #2F22AE",
"0	c #2E1FAF",
"a	c #301EB4",
"b	c #2E1FBD",
"c	c #301FBA",
"d	c #2E1FBC",
"e	c #2E1EBB",
"f	c #2E1FBB",
"g	c #3222A7",
"h	c #3023A7",
"i	c #2E1FB3",
"j	c #2F1FB1",
"k	c #351EB5",
"l	c #311EBB",
"m	c #3023A4",
"n	c #3122A1",
"o	c #2F21A8",
"p	c #3022A3",
"q	c #2F21A1",
"r	c #3020A3",
"s	c #2E1FB1",
"t	c #311FBA",
"u	c #2F20AA",
"v	c #30229C",
"w	c #3121A3",
"x	c #3023A0",
"y	c #302398",
"z	c #3122A2",
"A	c #2E1FB4",
"B	c #31229B",
"C	c #3022A5",
"D	c #3020AE",
"E	c #3021A6",
"F	c #302199",
"G	c #30209E",
"H	c #2F1FB8",
"I	c #2F1FA3",
"J	c #2F20AB",
"K	c #30219D",
"L	c #3320A7",
"M	c #331EB1",
"N	c #331FA4",
"                            ",
"                            ",
"              .+            ",
"              @#            ",
"              $%            ",
"             &*%            ",
"             ==%%           ",
"             -;%%           ",
"             %%%;           ",
"             %;;%=          ",
"            >,');!          ",
"            ;%'!;~          ",
"           %%%!{{]          ",
" ^/ =>%%%,%(%%>_:<<         ",
" &&^>,%%[;;>!>^}|1          ",
"   23'445%{)6{7890a         ",
"       bbc]defghi0j         ",
"         kl7imnopqrs        ",
"           tuvwuxyzA        ",
"             BCDEFGH        ",
"                IJKL        ",
"                  MN        ",
"                            ",
"                            ",
"                            ",
"                            ",
"                            ",
"                            "};
