/* XPM */
static char * nave2_170g_xpm[] = {
"28 28 85 1",
" 	c None",
".	c #301EBF",
"+	c #341DB6",
"@	c #321EBB",
"#	c #311EBE",
"$	c #311EBD",
"%	c #2E1FBC",
"&	c #3020B8",
"*	c #2E1EBF",
"=	c #2E1EC1",
"-	c #311EBC",
";	c #351EB1",
">	c #2F1FBC",
",	c #2F1EC2",
"'	c #2E1EC3",
")	c #2F1EC1",
"!	c #3122A1",
"~	c #30229D",
"{	c #3020AF",
"]	c #311EB9",
"^	c #301FBB",
"/	c #301EBE",
"(	c #2E1EC2",
"_	c #2F1FA3",
":	c #301FA9",
"<	c #3020AD",
"[	c #3021A2",
"}	c #2F21AB",
"|	c #2E1FBA",
"1	c #2E1FBD",
"2	c #2F1EC0",
"3	c #331DA4",
"4	c #3220A9",
"5	c #3020A8",
"6	c #2F1FA9",
"7	c #3021A5",
"8	c #2F21A9",
"9	c #2F20A8",
"0	c #3123A0",
"a	c #2F21B0",
"b	c #2E1EBD",
"c	c #2E1EBC",
"d	c #2F1EBF",
"e	c #3321A7",
"f	c #3020A1",
"g	c #312293",
"h	c #302498",
"i	c #3022A1",
"j	c #2F21A7",
"k	c #3223A1",
"l	c #2F1FB9",
"m	c #2E1EC0",
"n	c #301EC0",
"o	c #341EAF",
"p	c #2E1FB9",
"q	c #3122A4",
"r	c #2F21A0",
"s	c #2F21A2",
"t	c #2E20B1",
"u	c #3023AA",
"v	c #301EBA",
"w	c #2E1FB2",
"x	c #3020A4",
"y	c #2E1FB0",
"z	c #2E1FB1",
"A	c #3022AE",
"B	c #301EB4",
"C	c #2F20B1",
"D	c #2F21B1",
"E	c #2F20B4",
"F	c #2E1EBA",
"G	c #3020B6",
"H	c #2F20B9",
"I	c #2E1EBE",
"J	c #2F1FBB",
"K	c #341EB2",
"L	c #2E1EC4",
"M	c #331DBB",
"N	c #301EC1",
"O	c #321EBD",
"P	c #321DBC",
"Q	c #361DB5",
"R	c #3E1BA8",
"S	c #391CB1",
"T	c #331EBA",
"                            ",
"                            ",
"                            ",
"                            ",
"                            ",
"                       .    ",
"                    +@.#$   ",
"                % &*=- $    ",
"              .;%>,'.)      ",
"          !~{#]^=/''(       ",
"       _:<[~}|12',''        ",
"    34567890abcd',          ",
"     efghijkl=m('n          ",
"     opqrstuv.)''           ",
"       wxyzAl#''(           ",
"         BCDEF*'')          ",
"          GGH'mI=2          ",
"           lJ=*I(',         ",
"            Kd'('LM         ",
"              n''(N/        ",
"                ''nn        ",
"                '''NO       ",
"                  nPQ       ",
"                   RST      ",
"                            ",
"                            ",
"                            ",
"                            "};
