/* XPM */
static char * nave1_110g_xpm[] = {
"28 28 29 1",
" 	c None",
".	c #740808",
"+	c #781F1F",
"@	c #890C0C",
"#	c #8D0909",
"$	c #821C1C",
"%	c #841111",
"&	c #8B0B0B",
"*	c #8E0A0A",
"=	c #8D0B0B",
"-	c #900A0A",
";	c #930B0B",
">	c #9C1414",
",	c #910A0A",
"'	c #8B0909",
")	c #900B0B",
"!	c #950B0B",
"~	c #990B0B",
"{	c #980B0B",
"]	c #920A0A",
"^	c #8F0A0A",
"/	c #970B0B",
"(	c #910B0B",
"_	c #960B0B",
":	c #940B0B",
"<	c #8E0909",
"[	c #940A0A",
"}	c #920B0B",
"|	c #930A0A",
"                            ",
"                            ",
"                            ",
"                            ",
"           .                ",
"           +@               ",
"          #$%&              ",
"          *=-;;             ",
"          >,')!~            ",
"          {]^*-,]           ",
"          /;=^(*^-          ",
"          _!(_:<,:/         ",
"          [::-}_{{{{        ",
"          !|/_:{{{{{{       ",
"          {{_{{{{{{{{{{     ",
"         {{//{{{{{{{{{{     ",
"         ~{{{{{~ {~{{{{{    ",
"         ~{{{{{      {{{{{  ",
"         {{{{{          {{  ",
"         {{{{               ",
"         {{{{               ",
"        {{{{                ",
"         {{                 ",
"        {{{                 ",
"        {{                  ",
"                            ",
"                            ",
"                            "};
