/* XPM */
static char * nave1_200g_xpm[] = {
"28 28 29 1",
" 	c None",
".	c #980B0B",
"+	c #970B0B",
"@	c #990B0B",
"#	c #900A0A",
"$	c #940B0B",
"%	c #920A0A",
"&	c #8F0A0A",
"*	c #910A0A",
"=	c #8E0A0A",
"-	c #8E0909",
";	c #960B0B",
">	c #930B0B",
",	c #950B0B",
"'	c #910B0B",
")	c #920B0B",
"!	c #8B0B0B",
"~	c #900B0B",
"{	c #890C0C",
"]	c #841111",
"^	c #8B0909",
"/	c #8D0B0B",
"(	c #740808",
"_	c #781F1F",
":	c #821C1C",
"<	c #930A0A",
"[	c #8D0909",
"}	c #9C1414",
"|	c #940A0A",
"                            ",
"                            ",
"                 ..         ",
"                 ..         ",
"                ..          ",
"              ....          ",
"              ....          ",
"             ....           ",
"            .....           ",
"           +....@           ",
"          #$.....           ",
"         %&*....            ",
"        @*=-;...@           ",
"       >,#'$)$....          ",
"      !>~=&;#;.....         ",
"     {]#^&/'$+;+.....       ",
"    (_:/*%>,$<.+......      ",
"      [=}.+;|,..........    ",
"               .@@.......   ",
"                     . ..   ",
"                            ",
"                            ",
"                            ",
"                            ",
"                            ",
"                            ",
"                            ",
"                            "};
