/* XPM */
static char * nave2_000g_xpm[] = {
"28 28 78 1",
" 	c None",
".	c #361DB5",
"+	c #3E1BA7",
"@	c #321EBC",
"#	c #391CAF",
"$	c #2E1EC3",
"%	c #2F1EC1",
"&	c #301EC0",
"*	c #301EBF",
"=	c #2E1EC2",
"-	c #301EBE",
";	c #2E1EC1",
">	c #331EB4",
",	c #351DB7",
"'	c #2E1EBD",
")	c #2E1FBD",
"!	c #2F1FBA",
"~	c #3020B6",
"{	c #2E1EC0",
"]	c #2E1EBC",
"^	c #3021B1",
"/	c #2F20B7",
"(	c #2F1FB2",
"_	c #301EB5",
":	c #2E1EBE",
"<	c #2E1EB8",
"[	c #2F20B3",
"}	c #2F22AD",
"|	c #2E1FAD",
"1	c #2E1FAF",
"2	c #3020A0",
"3	c #2E1FB0",
"4	c #311EBE",
"5	c #3022AE",
"6	c #2F20AD",
"7	c #2F21A1",
"8	c #2F219E",
"9	c #31229F",
"0	c #2E1FB1",
"a	c #341FA7",
"b	c #301EBB",
"c	c #3124A0",
"d	c #2F22A1",
"e	c #3022A1",
"f	c #302499",
"g	c #312292",
"h	c #302098",
"i	c #3123A1",
"j	c #331EA4",
"k	c #332499",
"l	c #2F21A5",
"m	c #2F20AA",
"n	c #3022A3",
"o	c #2F1EAB",
"p	c #2F20AB",
"q	c #331EB2",
"r	c #2E20B2",
"s	c #30239E",
"t	c #3121A2",
"u	c #2F21A7",
"v	c #311FB0",
"w	c #2F1FA1",
"x	c #2F1EBD",
"y	c #2F20B2",
"z	c #2E20B1",
"A	c #3021A3",
"B	c #302299",
"C	c #3122A4",
"D	c #3021AF",
"E	c #311EB6",
"F	c #301EBC",
"G	c #2E1FB9",
"H	c #351EB0",
"I	c #2E1FBC",
"J	c #321EBB",
"K	c #3020B5",
"L	c #311EBD",
"M	c #331DB6",
"                            ",
"                            ",
"                            ",
"                            ",
"                            ",
"     .+                     ",
"     @#$@                   ",
"      @%$$$                 ",
"       &*$$=*               ",
"       -&=$$$;>             ",
"        ,$$;'=)!~           ",
"         =={]$;^/(_         ",
"          *$=:<[}|123       ",
"          ==$$4!567890a     ",
"           =$%*bcdefghij    ",
"           $${{:klmnopq     ",
"          4$%]'rstuvw       ",
"          =$=xyzABC         ",
"         =$&:DE46           ",
"        =$=FGH*             ",
"       =*$%)I               ",
"       J;{K                 ",
"     L--M                   ",
"     L&                     ",
"                            ",
"                            ",
"                            ",
"                            "};
