/* XPM */
static char * nave2_060g_xpm[] = {
"28 28 78 1",
" 	c None",
".	c #331EB0",
"+	c #3221A5",
"@	c #331FA6",
"#	c #2E1FB4",
"$	c #2F20B1",
"%	c #2E1FAE",
"&	c #30219C",
"*	c #331EB2",
"=	c #301EB3",
"-	c #3020A3",
";	c #3022A1",
">	c #312293",
",	c #2F1FA3",
"'	c #2F1FB2",
")	c #2F20A9",
"!	c #2F229E",
"~	c #30249A",
"{	c #2F1FA9",
"]	c #2F1FA1",
"^	c #2F1FBA",
"/	c #3020B7",
"(	c #2F20B4",
"_	c #2E20AF",
":	c #2E1FB1",
"<	c #3022A3",
"[	c #2F21A6",
"}	c #3020AC",
"|	c #321EB6",
"1	c #2E1FBC",
"2	c #3021B2",
"3	c #2F21B0",
"4	c #3022AE",
"5	c #3022AC",
"6	c #2F21A7",
"7	c #3122A6",
"8	c #301EC0",
"9	c #2E1EC3",
"0	c #2E1EC2",
"a	c #2E1EBD",
"b	c #2F1FB7",
"c	c #3121AF",
"d	c #33239F",
"e	c #3122A1",
"f	c #30229C",
"g	c #2E1EC1",
"h	c #301EBF",
"i	c #311EBE",
"j	c #2F1EC1",
"k	c #2E1FB9",
"l	c #2F22A8",
"m	c #3021A2",
"n	c #2E1EC4",
"o	c #2E1EBE",
"p	c #2E1EC0",
"q	c #2F1EC0",
"r	c #2E1FB8",
"s	c #301FB8",
"t	c #2F20B0",
"u	c #311EBC",
"v	c #3B1CAD",
"w	c #3B1CAC",
"x	c #311EBF",
"y	c #2F1FBC",
"z	c #321EB9",
"A	c #341EB9",
"B	c #331EBA",
"C	c #321EBC",
"D	c #321EBD",
"E	c #2F1EC2",
"F	c #341EB3",
"G	c #2F1EBD",
"H	c #2E1FBD",
"I	c #2F1EBF",
"J	c #3020B8",
"K	c #311DBB",
"L	c #321DBA",
"M	c #301EBE",
"                            ",
"                            ",
"                            ",
"                            ",
"                            ",
"                            ",
"                 .+@        ",
"               #$%&*        ",
"              =-;>,         ",
"             '#)!~{]        ",
"           ^/(_:<[}         ",
"          |123456)[7        ",
"        8909ab^cdef         ",
"      9990agahijklm         ",
"      n990op09qparst        ",
"    j9j099g9090oa^u         ",
"  vwij8hx08j90njqyz         ",
"  ABC hD      E99pF         ",
"              x98GH         ",
"               99IH         ",
"               999J         ",
"                j0H         ",
"                jgK         ",
"                8CL         ",
"                 M8         ",
"                 i8         ",
"                            ",
"                            "};
