/* XPM */
static char * nave1_030g_xpm[] = {
"28 28 29 1",
" 	c None",
".	c #990B0B",
"+	c #980B0B",
"@	c #9C1313",
"#	c #961010",
"$	c #8A0909",
"%	c #861515",
"&	c #750A0A",
"*	c #950B0B",
"=	c #930A0A",
"-	c #970B0B",
";	c #940B0B",
">	c #920B0B",
",	c #920909",
"'	c #861313",
")	c #7D2424",
"!	c #801111",
"~	c #960B0B",
"{	c #910B0B",
"]	c #900A0A",
"^	c #8C0909",
"/	c #8E0808",
"(	c #8D0D0D",
"_	c #850C0C",
":	c #930B0B",
"<	c #8E0A0A",
"[	c #8F0A0A",
"}	c #8D0909",
"|	c #910A0A",
"                            ",
"                            ",
"                            ",
"                            ",
"                            ",
"                            ",
"                            ",
"                            ",
"                            ",
"              . + @#$%&     ",
"  +++++++++++*=*-;>,')!     ",
"  .++++++++++~;;{]^/(_      ",
"    .+++++++-~~:{<<{:       ",
"      ++++++++*[*>]*:       ",
"         .++++*;:[<+        ",
"          ++++++}[|         ",
"            .++.~{[         ",
"            +++++;          ",
"            .++++.          ",
"            +++++           ",
"            ++++            ",
"            +++             ",
"           ++++             ",
"           +++              ",
"            ++              ",
"          +++               ",
"           .                ",
"                            "};
