/* XPM */
static char * nave2_100g_xpm[] = {
"28 28 82 1",
" 	c None",
".	c #331EA4",
"+	c #3321A7",
"@	c #3221A9",
"#	c #331EB3",
"$	c #2F1FAE",
"%	c #30209B",
"&	c #2F20AC",
"*	c #2E1FB4",
"=	c #3122A2",
"-	c #312294",
";	c #2F1EAA",
">	c #301FA6",
",	c #2F20A8",
"'	c #2F21A0",
")	c #302499",
"!	c #3022A3",
"~	c #3020AE",
"{	c #3122A6",
"]	c #2F21A4",
"^	c #3022A0",
"/	c #2F20A9",
"(	c #2F21A6",
"_	c #3122A0",
":	c #301EB4",
"<	c #2E1FB2",
"[	c #2E1FB3",
"}	c #2F20AD",
"|	c #2F21A7",
"1	c #3122A3",
"2	c #30229D",
"3	c #3021A5",
"4	c #2F20B5",
"5	c #2F20B1",
"6	c #2F22AE",
"7	c #3022AB",
"8	c #3223A5",
"9	c #3122A7",
"0	c #2F21AC",
"a	c #2F1FB4",
"b	c #311EBD",
"c	c #3020B7",
"d	c #3021B1",
"e	c #2F20B3",
"f	c #2F1FBA",
"g	c #301EBE",
"h	c #2E1EC1",
"i	c #2E1EBB",
"j	c #2E1FBA",
"k	c #311EBB",
"l	c #301EC0",
"m	c #2F1FBB",
"n	c #2E1EB7",
"o	c #311EBE",
"p	c #301EBF",
"q	c #2E1EC0",
"r	c #2E1EBD",
"s	c #2F1EBD",
"t	c #351EB2",
"u	c #321EB6",
"v	c #2E1FBF",
"w	c #2E1EC4",
"x	c #2E1EC3",
"y	c #2F1EC1",
"z	c #2E1EBE",
"A	c #2E1EC2",
"B	c #2E1FBD",
"C	c #2E1EBF",
"D	c #2F1EC2",
"E	c #301EBD",
"F	c #2F1FBD",
"G	c #2F1FBC",
"H	c #2F1FB8",
"I	c #2F1EC0",
"J	c #321EBB",
"K	c #321EBD",
"L	c #361DB8",
"M	c #301EC1",
"N	c #3A1CAE",
"O	c #341DB8",
"P	c #361DB5",
"Q	c #321EBC",
"                            ",
"                            ",
"                            ",
"                            ",
"            .               ",
"            +@#             ",
"            $%&             ",
"           *=-;>            ",
"           ,')!~{           ",
"           $]^/(_           ",
"          :<[}|123          ",
"          4567890ab         ",
"          cdefghijkl        ",
"          mfnopqrsft        ",
"         uvwrxyhzhABB       ",
"         AhCqxxwxxDEFG      ",
"        pDqrhxAxDDxAAFH     ",
"         xxAyIx    AwAq     ",
"        xxxwA       AlpJ    ",
"        xxyK         xJgl   ",
"       JxplL           oo   ",
"       wDMp                 ",
"       NO                   ",
"      NPQ                   ",
"                            ",
"                            ",
"                            ",
"                            "};
