/* XPM */
static char * nave1_150g_xpm[] = {
"28 28 30 1",
" 	c None",
".	c #791010",
"+	c #890C0C",
"@	c #910A0A",
"#	c #990B0B",
"$	c #8F0A0A",
"%	c #7E1E1E",
"&	c #801F1F",
"*	c #8B0E0E",
"=	c #940B0B",
"-	c #960B0B",
";	c #910B0B",
">	c #980B0B",
",	c #8D0909",
"'	c #900909",
")	c #8C0909",
"!	c #8E0A0A",
"~	c #900B0B",
"{	c #920B0B",
"]	c #971010",
"^	c #8D0A0A",
"/	c #900A0A",
"(	c #930B0B",
"_	c #950A0A",
":	c #9D1515",
"<	c #970B0B",
"[	c #930A0A",
"}	c #8D0B0B",
"|	c #950B0B",
"1	c #940A0A",
"                            ",
"                            ",
"                            ",
"                            ",
"                            ",
"                            ",
"                            ",
"                            ",
"      .+ @ #  $             ",
"      %&*==-@$;->>>>>>>>>>  ",
"      ,+')!~!!{>>>>>>>>>>>  ",
"       ]{^//(@_#>>>>>>>#    ",
"       :<[}{((>>>>>>#       ",
"        ><|({(<>>>#         ",
"         <1|<>>>>           ",
"          |@<<>>>           ",
"          <<><>>>           ",
"           >>>>>>           ",
"            >>>>>           ",
"            #>>>>           ",
"             >>>>#          ",
"             >>>##          ",
"               >>           ",
"               >>>          ",
"                >>          ",
"                #>          ",
"                            ",
"                            "};
