/* XPM */
static char * nave1_140g_xpm[] = {
"28 28 29 1",
" 	c None",
".	c #781313",
"+	c #880D0D",
"@	c #920A0A",
"#	c #821C1C",
"$	c #811C1C",
"%	c #8C0D0D",
"&	c #930B0B",
"*	c #940B0B",
"=	c #980B0B",
"-	c #960A0A",
";	c #8A0808",
">	c #8B0C0C",
",	c #900808",
"'	c #8F0A0A",
")	c #910B0B",
"!	c #920B0B",
"~	c #970B0B",
"{	c #960E0E",
"]	c #8E0909",
"^	c #8D0A0A",
"/	c #8E0A0A",
"(	c #950B0B",
"_	c #9A0E0E",
":	c #930A0A",
"<	c #900A0A",
"[	c #990B0B",
"}	c #960B0B",
"|	c #940A0A",
"                            ",
"                            ",
"                            ",
"                            ",
"                            ",
"                            ",
"                            ",
"       .+ @                 ",
"       #$%&*=-              ",
"       ;>,')!'')~=          ",
"        {]^')'/(======      ",
"        _:<^*&<==========[= ",
"         }&)*<===========[= ",
"         ~(*&&}====[==[[    ",
"          :|}======         ",
"          }(~~===           ",
"          ==~====           ",
"          ======            ",
"           =====            ",
"           =====            ",
"            ====            ",
"            ===[=           ",
"             ===            ",
"             ===            ",
"              ==            ",
"              ==            ",
"                            ",
"                            "};
