/* XPM */
static char * nave1_340g_xpm[] = {
"28 28 31 1",
" 	c None",
".	c #980B0B",
"+	c #990B0B",
"@	c #970B0B",
"#	c #950B0B",
"$	c #960B0B",
"%	c #920A0A",
"&	c #940A0A",
"*	c #930B0B",
"=	c #910B0B",
"-	c #8F0B0B",
";	c #960A0A",
">	c #9C1414",
",	c #940B0B",
"'	c #8E0A0A",
")	c #900A0A",
"!	c #8F0A0A",
"~	c #950D0D",
"{	c #920B0B",
"]	c #8D0A0A",
"^	c #8E0808",
"/	c #8C0D0D",
"(	c #881010",
"_	c #8F0C0C",
":	c #861111",
"<	c #7D2424",
"[	c #771313",
"}	c #900B0B",
"|	c #950A0A",
"1	c #910A0A",
"2	c #8A0A0A",
"                            ",
"                            ",
"                            ",
"        ..                  ",
"        +..                 ",
"         ...                ",
"         +...               ",
"         .....              ",
"          .....             ",
"          ......            ",
"          +......           ",
"           ...@.#.          ",
"          ....$$%&@         ",
"           ...@$#$@.        ",
"           +.@*=*-*;>       ",
"         .....#*,')!~       ",
"        +.....){{!]^/(_     ",
"     +.......@!!]*{*:<[     ",
"     +.......#})|.,1 2      ",
"  .....+... . !             ",
"   . .                      ",
"                            ",
"                            ",
"                            ",
"                            ",
"                            ",
"                            ",
"                            "};
