/* XPM */
static char * nave2_200g_xpm[] = {
"28 28 80 1",
" 	c None",
".	c #301EC1",
"+	c #311EBE",
"@	c #301EBF",
"#	c #301EBE",
"$	c #311DBA",
"%	c #321EBB",
"&	c #3020B3",
"*	c #2E1EBF",
"=	c #2E1EC1",
"-	c #2F1EC1",
";	c #2F1FBC",
">	c #2F1EC2",
",	c #2E1FBC",
"'	c #2F1EBD",
")	c #2E1EC2",
"!	c #2E1EC3",
"~	c #351EB1",
"{	c #2E1FBD",
"]	c #311FB8",
"^	c #2E1EC0",
"/	c #2F1EC3",
"(	c #301FB3",
"_	c #301EBC",
":	c #2F1FBB",
"<	c #2F1EC0",
"[	c #30229A",
"}	c #3021A5",
"|	c #2E1FB7",
"1	c #2E1EBC",
"2	c #3122A6",
"3	c #31229F",
"4	c #3023A0",
"5	c #2F20B2",
"6	c #301FAB",
"7	c #3020AC",
"8	c #2F20A8",
"9	c #3122A3",
"0	c #3222A8",
"a	c #301EC0",
"b	c #2F1FAA",
"c	c #2F1EAA",
"d	c #3022A2",
"e	c #2F21A7",
"f	c #3123A8",
"g	c #301FBA",
"h	c #331EB3",
"i	c #3020A5",
"j	c #302198",
"k	c #302497",
"l	c #30229F",
"m	c #2E20AF",
"n	c #2F21B0",
"o	c #2F21B3",
"p	c #2F1FB7",
"q	c #2E1EBB",
"r	c #2E1EBE",
"s	c #351DB8",
"t	c #331EA4",
"u	c #3222A3",
"v	c #3021A1",
"w	c #3021A2",
"x	c #2F20A3",
"y	c #2E1FB0",
"z	c #2E20AE",
"A	c #3021B2",
"B	c #331EB0",
"C	c #2E1FB1",
"D	c #3020A4",
"E	c #2F1EB5",
"F	c #2F1FB2",
"G	c #2F20B7",
"H	c #3020B7",
"I	c #331EBC",
"J	c #321EB8",
"K	c #381CB0",
"L	c #341DB8",
"M	c #331EBB",
"N	c #3E1BA7",
"O	c #3B1CAE",
"                            ",
"                            ",
"                 .+         ",
"                 @#         ",
"                $%          ",
"              &*=-          ",
"              ;>>-          ",
"             ,')!           ",
"            ~{#)!           ",
"           #]^/!>           ",
"          (_:<)!+           ",
"         [}|11-!            ",
"        2345^^)!!           ",
"       67890<a>!))          ",
"      bcdeefg+)!!--         ",
"     hijklmnopq^r=!>s       ",
"    tuvwlxyznA)!1=!!-@      ",
"      B|CDEFGH,^)!!!-<aI    ",
"               J>a)!!-!KL   ",
"                     M NO   ",
"                            ",
"                            ",
"                            ",
"                            ",
"                            ",
"                            ",
"                            ",
"                            "};
