/* XPM */
static char * nave1_270g_xpm[] = {
"28 28 28 1",
" 	c None",
".	c #980B0B",
"+	c #970B0B",
"@	c #930B0B",
"#	c #960B0B",
"$	c #920B0B",
"%	c #8D0909",
"&	c #940B0B",
"*	c #8F0A0A",
"=	c #910A0A",
"-	c #930A0A",
";	c #920A0A",
">	c #8D0A0A",
",	c #910B0B",
"'	c #8E0A0A",
")	c #8D0B0B",
"!	c #900A0A",
"~	c #950B0B",
"{	c #8A0909",
"]	c #900909",
"^	c #9C1515",
"/	c #850D0D",
"(	c #841818",
"_	c #890909",
":	c #890C0C",
"<	c #7A2828",
"[	c #8D0C0C",
"}	c #750B0B",
"                            ",
"                            ",
"                            ",
"                            ",
"                            ",
"    ..               ..     ",
"    ..              ...     ",
"     ...          ....      ",
"     ....        .....      ",
"      ....      .....       ",
"      ......  .......       ",
"       .............        ",
"       .............        ",
"        .......++..         ",
"        .....@+#...         ",
"         $$%&*@+=#          ",
"         ***@#@&-.          ",
"          ;>,')##           ",
"          .#'!=~.           ",
"           &,{*+            ",
"           =@]-^            ",
"            /(_             ",
"            :<[             ",
"             }              ",
"                            ",
"                            ",
"                            ",
"                            "};
