/* XPM */
static char * nave2_130g_xpm[] = {
"28 28 79 1",
" 	c None",
".	c #331FA4",
"+	c #331EB1",
"@	c #3320A7",
"#	c #30219D",
"$	c #2F20AB",
"%	c #2F1FA3",
"&	c #2F1FB8",
"*	c #30209E",
"=	c #302199",
"-	c #3021A6",
";	c #3020AE",
">	c #3022A5",
",	c #31229B",
"'	c #2E1FB4",
")	c #3122A2",
"!	c #302398",
"~	c #3023A0",
"{	c #2F20AA",
"]	c #3121A3",
"^	c #30229C",
"/	c #311FBA",
"(	c #2E1FB1",
"_	c #3020A3",
":	c #2F21A1",
"<	c #3022A3",
"[	c #2F21A8",
"}	c #3122A1",
"|	c #3023A4",
"1	c #2E1FB3",
"2	c #301EBC",
"3	c #311EBB",
"4	c #351EB5",
"5	c #2F1FB1",
"6	c #2E1FAF",
"7	c #3023A7",
"8	c #3222A7",
"9	c #2E1FBB",
"0	c #2E1EBB",
"a	c #2E1FBC",
"b	c #2F1FBB",
"c	c #301FBA",
"d	c #2E1FBD",
"e	c #301EB4",
"f	c #2F22AE",
"g	c #3021B1",
"h	c #2E1EC1",
"i	c #2E1EBE",
"j	c #2E1EBD",
"k	c #2E1EC3",
"l	c #301EBD",
"m	c #2F1EBF",
"n	c #2E1EBF",
"o	c #321DBA",
"p	c #331DB5",
"q	c #2F20B6",
"r	c #2F21B0",
"s	c #2F1FB9",
"t	c #311EBE",
"u	c #2F1EC0",
"v	c #2E1EC0",
"w	c #2E1EC2",
"x	c #2F1EC2",
"y	c #2F1EC1",
"z	c #301EC0",
"A	c #3020B6",
"B	c #2F20B4",
"C	c #2E1EB8",
"D	c #2E1EC4",
"E	c #301EBF",
"F	c #301EBE",
"G	c #321EB7",
"H	c #331DBB",
"I	c #301EC1",
"J	c #311EBF",
"K	c #381CB1",
"L	c #361DB5",
"M	c #3C1CAC",
"N	c #331EBB",
"                            ",
"                            ",
"                            ",
"                            ",
"                            ",
"                            ",
"        .+                  ",
"        @#$%                ",
"        &*=-;>,             ",
"        ')!~{]^{/           ",
"        (_:<[}|1234         ",
"         5617890abcdd       ",
"         e6fg2hijhklmmnop   ",
"          qrstuvuwwxkkyutzz ",
"         AABCukkDkykkkuE Ft ",
"          bhhvkkk           ",
"          Gwvnkw            ",
"          vwjnyu            ",
"          Ekwwk             ",
"           wkkk             ",
"           kkwH             ",
"           kkEE             ",
"            kIz             ",
"            kJ              ",
"            KL              ",
"            MN              ",
"                            ",
"                            "};
