/* XPM */
static char * nave1_070g_xpm[] = {
"28 28 31 1",
" 	c None",
".	c #8F0C0C",
"+	c #771313",
"@	c #881010",
"#	c #7D2424",
"$	c #8A0A0A",
"%	c #9C1414",
"&	c #950D0D",
"*	c #8C0D0D",
"=	c #861111",
"-	c #980B0B",
";	c #960A0A",
">	c #8F0A0A",
",	c #8E0808",
"'	c #930B0B",
")	c #910A0A",
"!	c #970B0B",
"~	c #900A0A",
"{	c #8D0A0A",
"]	c #920B0B",
"^	c #940B0B",
"/	c #940A0A",
"(	c #960B0B",
"_	c #8F0B0B",
":	c #8E0A0A",
"<	c #950B0B",
"[	c #920A0A",
"}	c #950A0A",
"|	c #910B0B",
"1	c #900B0B",
"2	c #990B0B",
"                            ",
"                            ",
"                            ",
"                            ",
"                            ",
"                .+          ",
"                @#$         ",
"              %&*=          ",
"             -;>,')         ",
"            !!'~{]^         ",
"           -/(_:>'-         ",
"          -<[<'^]{}         ",
"         ---((|']>~         ",
"        ---!(!'<~>1>        ",
"       -------!--!<         ",
"      --------------        ",
"     ---------2----         ",
"    ------2 -  -----        ",
"   ---2-       -----        ",
"   -2           2---        ",
"                 --2        ",
"                 ---        ",
"                 22--       ",
"                   -        ",
"                   --       ",
"                   -        ",
"                            ",
"                            "};
