/* XPM */
static char * nave2_260g_xpm[] = {
"28 28 85 1",
" 	c None",
".	c #311EBD",
"+	c #301EBF",
"@	c #311EBE",
"#	c #321EBB",
"$	c #311EBC",
"%	c #2F1EC1",
"&	c #331EBA",
"*	c #341DB6",
"=	c #2E1EC1",
"-	c #2E1EC2",
";	c #321EBD",
">	c #361DB5",
",	c #391CB1",
"'	c #2E1EBF",
")	c #2E1EC3",
"!	c #301EBE",
"~	c #301EC0",
"{	c #301EC1",
"]	c #321DBC",
"^	c #3E1BA8",
"/	c #3020B8",
"(	c #2F1EC2",
"_	c #331DBB",
":	c #2F1FBC",
"<	c #2F1EC0",
"[	c #2E1EC4",
"}	c #2E1FBC",
"|	c #351EB1",
"1	c #301FBB",
"2	c #2F1EBF",
"3	c #2E1EBE",
"4	c #311EB9",
"5	c #2E1FBD",
"6	c #2E1EBC",
"7	c #2E1EC0",
"8	c #2E1FBA",
"9	c #2E1EBD",
"0	c #2E1EBA",
"a	c #3020AF",
"b	c #2F21AB",
"c	c #2F21B0",
"d	c #2F1FB9",
"e	c #301EBA",
"f	c #2F20B4",
"g	c #2F20B9",
"h	c #2F1FBB",
"i	c #341EB2",
"j	c #30229D",
"k	c #3123A0",
"l	c #3223A1",
"m	c #3023AA",
"n	c #3022AE",
"o	c #2F21B1",
"p	c #3020B6",
"q	c #3122A1",
"r	c #3021A2",
"s	c #2F20A8",
"t	c #2F21A7",
"u	c #2E20B1",
"v	c #2E1FB1",
"w	c #2F20B1",
"x	c #3020AD",
"y	c #2F21A9",
"z	c #3022A1",
"A	c #2F21A2",
"B	c #2E1FB0",
"C	c #301EB4",
"D	c #301FA9",
"E	c #3021A5",
"F	c #302498",
"G	c #2F21A0",
"H	c #3020A4",
"I	c #2F1FA3",
"J	c #2F1FA9",
"K	c #312293",
"L	c #3122A4",
"M	c #2E1FB2",
"N	c #3020A8",
"O	c #3020A1",
"P	c #2E1FB9",
"Q	c #3220A9",
"R	c #3321A7",
"S	c #341EAF",
"T	c #331DA4",
"                            ",
"                            ",
"                            ",
"      .                     ",
"     +@.                    ",
"      +                     ",
"      #$%              &    ",
"      *=+-           ;>,    ",
"       ')))        !~{]^    ",
"       /())      (_{~)~     ",
"        :!((~  %<)[-))      ",
"       }}=))))-)=-))))      ",
"        |1<2-)))33-)        ",
"        +4567%)'7')~        ",
"         @89=+@0)=2         ",
"         abcdedfghi         ",
"         jjklmnopd          ",
"         qrstuvwp           ",
"          xyzABC            ",
"          DEFGH             ",
"          IJKLM             ",
"           NOP              ",
"           QRS              ",
"           T                ",
"                            ",
"                            ",
"                            ",
"                            "};
