/* XPM */
static char * nave2_120g_xpm[] = {
"28 28 83 1",
" 	c None",
".	c #331EA4",
"+	c #331FAC",
"@	c #3420A9",
"#	c #3122A1",
"$	c #3020AE",
"%	c #301EB6",
"&	c #30209D",
"*	c #301FA1",
"=	c #2F1EA8",
"-	c #301FAC",
";	c #2E20B3",
">	c #31229E",
",	c #312395",
"'	c #3022A2",
")	c #3020AC",
"!	c #3122A5",
"~	c #2F1FAF",
"{	c #2F21A2",
"]	c #30239D",
"^	c #3021A4",
"/	c #2F20A9",
"(	c #3121A1",
"_	c #30229B",
":	c #2F20AC",
"<	c #2F21A7",
"[	c #3022A6",
"}	c #3123A0",
"|	c #2F21A6",
"1	c #2F1FB6",
"2	c #311EBF",
"3	c #301EC1",
"4	c #301EB5",
"5	c #2E1FB2",
"6	c #2E1FB3",
"7	c #3022AD",
"8	c #3223A5",
"9	c #3020B2",
"0	c #2E1FB9",
"a	c #2E1FBA",
"b	c #301EB9",
"c	c #321EB8",
"d	c #351EB2",
"e	c #2F20B3",
"f	c #2F22AD",
"g	c #3021B3",
"h	c #301EBA",
"i	c #2E1EC2",
"j	c #2E1EBE",
"k	c #2E1EBD",
"l	c #2F1EBE",
"m	c #2F1FBE",
"n	c #2E1FBD",
"o	c #2E1FBC",
"p	c #3020B6",
"q	c #2F21B1",
"r	c #2F1FB8",
"s	c #311EBE",
"t	c #2F1EC0",
"u	c #2E1EC0",
"v	c #2E1EC1",
"w	c #2E1EC3",
"x	c #301EBE",
"y	c #3020B8",
"z	c #2F1FB9",
"A	c #2F1FBC",
"B	c #2E1EB9",
"C	c #2F1EC1",
"D	c #2F1EC2",
"E	c #301EBD",
"F	c #331DB6",
"G	c #2F1FBB",
"H	c #2E1EC4",
"I	c #301EBF",
"J	c #301EC0",
"K	c #2E1EBC",
"L	c #2E1EBF",
"M	c #341DB9",
"N	c #311EBD",
"O	c #3E1BA8",
"P	c #371DB3",
"Q	c #381CB1",
"R	c #331EBB",
"                            ",
"                            ",
"                            ",
"                            ",
"                            ",
"         .+                 ",
"         @#$                ",
"         %&*=-              ",
"         ;>,')!             ",
"         ~{]^/(_:           ",
"          :<<[}|123         ",
"         4567890abcd        ",
"          efghijklmno       ",
"         ppqrstukvwxlmy     ",
"          zABCDiwwwDwwvEF   ",
"          GwvvwwH3CwwiIxxJ  ",
"          vuKiii      wI ss ",
"          iuLvJw         s  ",
"          DwwwC             ",
"          wwww              ",
"          wwCM              ",
"          wCJs              ",
"          siJ               ",
"          wNs               ",
"          OP                ",
"          QR                ",
"                            ",
"                            "};
