/* XPM */
static char * nave2_280g_xpm[] = {
"28 28 82 1",
" 	c None",
".	c #321EBC",
"+	c #361DB5",
"@	c #3A1CAE",
"#	c #341DB8",
"$	c #301EBF",
"%	c #301EC1",
"&	c #2F1EC2",
"*	c #2E1EC4",
"=	c #311EBE",
"-	c #361DB8",
";	c #301EC0",
">	c #2E1EC3",
",	c #321EBB",
"'	c #301EBE",
")	c #321EBD",
"!	c #2F1EC1",
"~	c #2E1EC2",
"{	c #2E1EC0",
"]	c #2F1EC0",
"^	c #2F1FB8",
"/	c #2F1FBD",
"(	c #2E1EC1",
"_	c #2E1EBD",
":	c #2F1FBC",
"<	c #301EBD",
"[	c #2E1EBF",
"}	c #2E1FBD",
"|	c #2E1EBE",
"1	c #2E1FBF",
"2	c #321EB6",
"3	c #351EB2",
"4	c #2F1FBA",
"5	c #2F1EBD",
"6	c #2E1EB7",
"7	c #2F1FBB",
"8	c #311EBB",
"9	c #2E1FBA",
"0	c #2E1EBB",
"a	c #2F20B3",
"b	c #3021B1",
"c	c #3020B7",
"d	c #311EBD",
"e	c #2F1FB4",
"f	c #2F21AC",
"g	c #3122A7",
"h	c #3223A5",
"i	c #3022AB",
"j	c #2F22AE",
"k	c #2F20B1",
"l	c #2F20B5",
"m	c #3021A5",
"n	c #30229D",
"o	c #3122A3",
"p	c #2F21A7",
"q	c #2F20AD",
"r	c #2E1FB3",
"s	c #2E1FB2",
"t	c #301EB4",
"u	c #3122A0",
"v	c #2F21A6",
"w	c #2F20A9",
"x	c #3022A0",
"y	c #2F21A4",
"z	c #2F1FAE",
"A	c #3122A6",
"B	c #3020AE",
"C	c #3022A3",
"D	c #302499",
"E	c #2F21A0",
"F	c #2F20A8",
"G	c #301FA6",
"H	c #2F1EAA",
"I	c #312294",
"J	c #3122A2",
"K	c #2E1FB4",
"L	c #2F20AC",
"M	c #30209B",
"N	c #331EB3",
"O	c #3221A9",
"P	c #3321A7",
"Q	c #331EA4",
"                            ",
"                            ",
"                            ",
"                            ",
"                   .+@      ",
"                   #@       ",
"                 $%&*       ",
"   ==           -;$>,       ",
"   ;',>         )!>>        ",
"    ,$;~       ~*>>>        ",
"     {~*~    >]!~>>         ",
"     ^/~~>&&>~>(_{&$        ",
"      :/<&>>*>>{[(~         ",
"       }}~(|(!>_*12         ",
"        345_{$=647          ",
"        ;890('4abc          ",
"         defghijkl          ",
"          mnopqrst          ",
"           uvwxyz           ",
"           ABCDEF           ",
"            GHIJK           ",
"             LMz            ",
"             NOP            ",
"               Q            ",
"                            ",
"                            ",
"                            ",
"                            "};
