/* XPM */
static char * nave2_250g_xpm[] = {
"28 28 83 1",
" 	c None",
".	c #311EBD",
"+	c #301EC0",
"@	c #311EBE",
"#	c #301EBE",
"$	c #331DB6",
"%	c #311EBC",
"&	c #2E1EC4",
"*	c #2E1EC0",
"=	c #2F1EC0",
"-	c #2F1EC1",
";	c #2F1FBE",
">	c #2E1EC3",
",	c #301FBA",
"'	c #321EBD",
")	c #331EBA",
"!	c #2E1FBD",
"~	c #2F1EBD",
"{	c #301EBF",
"]	c #301EC1",
"^	c #381CB0",
"/	c #3B1CAC",
"(	c #2E1FBC",
"_	c #2E1FBE",
":	c #2F1EC2",
"<	c #2E1EC2",
"[	c #321FB7",
"}	c #311EBF",
"|	c #311EB9",
"1	c #2E1EBD",
"2	c #2E1FBA",
"3	c #2E1EC1",
"4	c #2E1EBE",
"5	c #2E1EBC",
"6	c #2F20B0",
"7	c #301FB2",
"8	c #2E1FB4",
"9	c #30219F",
"0	c #3023A1",
"a	c #3222A4",
"b	c #3120B2",
"c	c #2F1FB8",
"d	c #2E1FB7",
"e	c #2F1FBC",
"f	c #301EBC",
"g	c #31229D",
"h	c #3121A3",
"i	c #3022A5",
"j	c #3023A6",
"k	c #3022AE",
"l	c #2F22AE",
"m	c #3021B1",
"n	c #311FB9",
"o	c #3021A8",
"p	c #2F20A9",
"q	c #2F20A8",
"r	c #2F21A9",
"s	c #2E1FB5",
"t	c #2E20AE",
"u	c #2F20B7",
"v	c #3020B6",
"w	c #311FAE",
"x	c #3021A7",
"y	c #30239E",
"z	c #2F22A0",
"A	c #2E20AD",
"B	c #2F1FB3",
"C	c #2F1FB2",
"D	c #2F1FA2",
"E	c #2F1EA9",
"F	c #312394",
"G	c #2F21A0",
"H	c #3020A4",
"I	c #301EB4",
"J	c #2F20A1",
"K	c #30219A",
"L	c #3021AA",
"M	c #2E1FB1",
"N	c #331EB4",
"O	c #3122A1",
"P	c #301FAE",
"Q	c #331FA4",
"R	c #351EAD",
"                            ",
"                            ",
"        .                   ",
"       +@                   ",
"        #                   ",
"       $%@&                 ",
"        *=-                 ",
"        ;>>                 ",
"        ,>>>           ')   ",
"        !~->+       {]@^/   ",
"        (_->:  > >='+=<>    ",
"         [<<:&<<+<&>>>}     ",
"        +|~1*>>><*<>>&      ",
"         .21*=>3453><       ",
"        6781<##5>3>+        ",
"         90ab,cd*ef         ",
"         ghijklmcn          ",
"         opqrstuv           ",
"         wxyzABC            ",
"         DEFGHI             ",
"          JKLM              ",
"         NOP                ",
"          QR                ",
"                            ",
"                            ",
"                            ",
"                            ",
"                            "};
