/* XPM */
static char * nave2_070g_xpm[] = {
"28 28 83 1",
" 	c None",
".	c #351EAD",
"+	c #331FA4",
"@	c #301FAE",
"#	c #3122A1",
"$	c #331EB4",
"%	c #2E1FB1",
"&	c #3021AA",
"*	c #30219A",
"=	c #2F20A1",
"-	c #301EB4",
";	c #3020A4",
">	c #2F21A0",
",	c #312394",
"'	c #2F1EA9",
")	c #2F1FA2",
"!	c #2F1FB2",
"~	c #2F1FB3",
"{	c #2E20AD",
"]	c #2F22A0",
"^	c #30239E",
"/	c #3021A7",
"(	c #311FAE",
"_	c #3020B6",
":	c #2F20B7",
"<	c #2E20AE",
"[	c #2E1FB5",
"}	c #2F21A9",
"|	c #2F20A8",
"1	c #2F20A9",
"2	c #3021A8",
"3	c #311FB9",
"4	c #2F1FB8",
"5	c #3021B1",
"6	c #2F22AE",
"7	c #3022AE",
"8	c #3023A6",
"9	c #3022A5",
"0	c #3121A3",
"a	c #31229D",
"b	c #301EBC",
"c	c #2F1FBC",
"d	c #2E1EC0",
"e	c #2E1FB7",
"f	c #301FBA",
"g	c #3120B2",
"h	c #3222A4",
"i	c #3023A1",
"j	c #30219F",
"k	c #301EC0",
"l	c #2E1EC3",
"m	c #2E1EC1",
"n	c #2E1EBC",
"o	c #301EBE",
"p	c #2E1EC2",
"q	c #2E1EBD",
"r	c #2E1FB4",
"s	c #301FB2",
"t	c #2F20B0",
"u	c #2E1EBE",
"v	c #2F1EC0",
"w	c #2E1FBA",
"x	c #311EBD",
"y	c #2E1EC4",
"z	c #2F1EBD",
"A	c #311EB9",
"B	c #311EBF",
"C	c #2F1EC2",
"D	c #321FB7",
"E	c #321EBD",
"F	c #2F1EC1",
"G	c #2E1FBE",
"H	c #2E1FBC",
"I	c #3B1CAC",
"J	c #381CB0",
"K	c #311EBE",
"L	c #301EC1",
"M	c #301EBF",
"N	c #2E1FBD",
"O	c #331EBA",
"P	c #2F1FBE",
"Q	c #311EBC",
"R	c #331DB6",
"                            ",
"                            ",
"                            ",
"                            ",
"                            ",
"                .+          ",
"                @#$         ",
"              %&*=          ",
"             -;>,')         ",
"            !~{]^/(         ",
"           _:<[}|12         ",
"          34567890a         ",
"         bcde4fghij         ",
"        klmlnoopqrst        ",
"       plmnumlvdqwx         ",
"      yllpdpllldqzAk        ",
"     BlllypkppyCppD         ",
"    lpvkEvl l  ClFGH        ",
"   IJKLM       klFzN        ",
"   OE           lllf        ",
"                 llP        ",
"                 Fvd        ",
"                 yKQR       ",
"                   o        ",
"                   Kk       ",
"                   x        ",
"                            ",
"                            "};
