/* XPM */
static char *_2472fb146254571a9be9f1c239b9adf[] = {
/* columns rows colors chars-per-pixel */
"28 28 222 2 ",
"   c #034E0F",
".  c #034710",
"X  c #034910",
"o  c #044A15",
"O  c #054B16",
"+  c #044D15",
"@  c #054C16",
"#  c #054C17",
"$  c #094A17",
"%  c #054B18",
"&  c #004E18",
"*  c #034E18",
"=  c #034F19",
"-  c #054C18",
";  c #054D18",
":  c #054E18",
">  c #054F18",
",  c #054E19",
"<  c #054F19",
"1  c #064E19",
"2  c #054E1A",
"3  c #035214",
"4  c #045516",
"5  c #05531A",
"6  c #05551B",
"7  c #05561A",
"8  c #05561B",
"9  c #05571B",
"0  c #09511D",
"q  c #0B511D",
"w  c #06591C",
"e  c #065A1C",
"r  c #055C1D",
"t  c #055D1D",
"y  c #065C1D",
"u  c #065D1D",
"i  c #055E1C",
"p  c #065E1D",
"a  c #065F1E",
"s  c #085A1C",
"d  c #0B5320",
"f  c #085826",
"g  c #145726",
"h  c #1E5E2F",
"j  c #076623",
"k  c #0A6021",
"l  c #0C6322",
"z  c #0F6226",
"x  c #036A20",
"c  c #026B21",
"v  c #066920",
"b  c #036F22",
"n  c #026F23",
"m  c #066D22",
"M  c #15662A",
"N  c #1A692F",
"B  c #077125",
"V  c #096030",
"C  c #0D6B3F",
"Z  c #1E6131",
"A  c #196B31",
"S  c #1B6A31",
"D  c #1A6E31",
"F  c #206130",
"G  c #206B34",
"H  c #206D35",
"J  c #2F6F31",
"K  c #27723B",
"L  c #2D703F",
"P  c #287E3F",
"I  c #6D6336",
"U  c #0E6F43",
"Y  c #2C7540",
"T  c #2E7441",
"R  c #327946",
"E  c #347C48",
"W  c #3B7D4D",
"Q  c #3B7F4D",
"!  c #4B7942",
"~  c #437A51",
"^  c #427F53",
"/  c #467C55",
"(  c #487E57",
")  c #A92E16",
"_  c #847A55",
"`  c #8D715C",
"'  c #E65949",
"]  c #C57666",
"[  c #EC776B",
"{  c #F97D6A",
"}  c #EE7E71",
"|  c #328245",
" . c #3C804D",
".. c #3C8B51",
"X. c #138661",
"o. c #148965",
"O. c #168D6B",
"+. c #48814C",
"@. c #428353",
"#. c #4F8B55",
"$. c #548F63",
"%. c #559767",
"&. c #579C69",
"*. c #638A69",
"=. c #69A97A",
"-. c #6BAB7C",
";. c #6CAA7C",
":. c #77A67C",
">. c #85835D",
",. c #C8847B",
"<. c #DA8176",
"1. c #FA8B77",
"2. c #FF8E76",
"3. c #1CA88E",
"4. c #20B8A2",
"5. c #22BEAB",
"6. c #71AF82",
"7. c #7DAD88",
"8. c #31F7F5",
"9. c #34FFFF",
"0. c #81A88C",
"q. c #81AA8C",
"w. c #84B392",
"e. c #91B99C",
"r. c #B2AF99",
"t. c #9ABDA4",
"y. c #A2BDA8",
"u. c #BDBAAD",
"i. c #E58C89",
"p. c #FB9587",
"a. c #F0928E",
"s. c #FFA48E",
"d. c #FFAA8C",
"f. c #FFB69D",
"g. c #DCAFA5",
"h. c #DABEB2",
"j. c #F9AAA9",
"k. c #FFBFA1",
"l. c #FFBAA6",
"z. c #E7B2B0",
"x. c #FFB4B4",
"c. c #F8B9B2",
"v. c #9FC0A7",
"b. c #A1C2AA",
"n. c #A9C3B0",
"m. c #ABC8B3",
"M. c #A9CEB3",
"N. c #A8CFB3",
"B. c #ABCEB4",
"V. c #B4CAB9",
"C. c #A9D0B5",
"Z. c #C0C3B0",
"A. c #FFC6AC",
"S. c #FFC5B1",
"D. c #FFC4B7",
"F. c #FEC0B8",
"G. c #FFD4BF",
"H. c #BED4C4",
"J. c #BEDAC6",
"K. c #C7DBCC",
"L. c #C8DBCD",
"P. c #C9DDCF",
"I. c #CADCCF",
"U. c #CEDFD2",
"Y. c #D8DDD1",
"T. c #FFC2C2",
"R. c #FFC7C7",
"E. c #FFDDCB",
"W. c #FFD8CC",
"Q. c #FFD3D3",
"!. c #FFD7D0",
"~. c #FFDCD3",
"^. c #FFDCDC",
"/. c #D0E0D4",
"(. c #D0E2D5",
"). c #D4E1D8",
"_. c #DDE5DC",
"`. c #DDE5DE",
"'. c #DCE7DF",
"]. c #FFE1D2",
"[. c #FFE0D6",
"{. c #FFE5D8",
"}. c #FFE6D9",
"|. c #FFE8DB",
" X c #FFEADE",
".X c #E3EFE7",
"XX c #FDE3E3",
"oX c #FFE6E6",
"OX c #FFE9E0",
"+X c #FFEBE2",
"@X c #FFECE3",
"#X c #FFEAE4",
"$X c #FFE8E8",
"%X c #FFE9E9",
"&X c #FFECEC",
"*X c #FFEEEE",
"=X c #E7F2EA",
"-X c #FFF0E7",
";X c #FFF1E9",
":X c #FFF1EA",
">X c #FFF2EA",
",X c #FFF2EB",
"<X c #FFF1ED",
"1X c #F2F7F2",
"2X c #FFF5F0",
"3X c #FFF5F2",
"4X c #FFF7F3",
"5X c #F5FAF7",
"6X c #FFF8F7",
"7X c #FFFBF7",
"8X c #FFFBFA",
"9X c #FAFCFB",
"0X c #FFFCFB",
"qX c #FFFDFB",
"wX c #FCFDFC",
"eX c #FFFCFC",
"rX c #FFFDFC",
"tX c #FCFEFC",
"yX c #FFFEFD",
"uX c #FFFEFE",
"iX c #FEFFFE",
"pX s None	c None",
/* pixels */
"pXpXpXpXpXpXpXpXpXpXpXpXpXpXpXpXpXpXpXpXpXpXpXpXpXpXpXpX",
"pXpXpXpXpXpXpXpXpXpXpXpXpXpXpXpXpXpXpXpXpXpXpXpXpXpXpXpX",
"pXpXpXpXpXpXpXpXpXpXpXpXpXpXpXpXpXpXpXpXpXpXpXpXpXpXpXpX",
"pXpXpXpXpXpXpXpXpXpXpXpXpXpXpXpXpXpXpXpXpXpXpXpXpXpXpXpX",
"pXpXpXpXpXpXpXpXpXpXpXpXpXeXuXpXpXpXpXpXpXpXpXpXpXpXpXpX",
"pXpXpXpXpXpXpXpXpXpXpXpXpXx.%XpXpXpXpXpXpXpXpXpXpXpXpXpX",
"pXpXpXpXpXpXpXpXpXpXpXpX`.` u.pXpXpXpXpXpXpXpXpXpXpXpXpX",
"pXpXpXpXpXpXpXpXuXpXpX'.( & Z V.pXpXpXpXpXpXpXpXpXpXpXpX",
"pXpXpXpXpXpXpX*XR.pX)./ @ o O F n.pXQ.^.pXpXpXpXpXpXpXpX",
"pXpXpXpXpXpXpXXXi.L.~ @ f C V ; h m.,.z.pXpXpXpXpXpXpXpX",
"pXpXpXpXpXpX9XH.*.d 1 . o.8.4.2 # 0 $ y.pXpXpXpXpXpXpXpX",
"pXpX&XoXpXwXb.G = ; > X O.9.5.; # ; * ^ I.pXpXpXpXpXpXpX",
"pXpXj.a.pXt.N w : ; : + U 3.X.< ; ; - 8 Q /.pX$XT.pXpXpX",
"pXpXZ.! w.S y w : ; : 5 4   3 7 , ; - 6 y  .(.h.<.pXpXpX",
"pXpXC.n l y y r 7 ; ; 9 u u u e < % 7 p y y R | :.pXpXpX",
"pXpXB.m a y N %...i q L M y k T g 7 P &.E y y v -.pXpXpX",
"pXpXB.m a H v.tXN.B A 0.Y t z q.W x 6.5XU.@.u v ;.pXpXpX",
"pXpXM.b j e.pXpX1X>._ _.$.s K P.r.I Y.pXpXK.D c =.pXpXpX",
"pXpX=X#.+..XpXpX~.1.p.8Xg.) ] iXF.{ D.qXpXtX7.J J.pXpXpX",
"pXpX<X} [ 6XpXpX3XA.G.7Xl.2.s.:X+Xk.OXpXpXpXc.' !.pXpXpX",
"pXpX#Xf.S.0XpXpXpX4X X2X{.|.}.;X>X-XpXpXpXpX[.d.W.pXpXpX",
"pXpXpX,XE.rXpXpXpXpXpXpXpXpXpXpXpXpXpXpXpXpX@X].yXpXpXpX",
"pXpXpXpXpXpXpXpXpXpXpXpXpXpXpXpXpXpXpXpXpXpXpXpXpXpXpXpX",
"pXpXpXpXpXpXpXpXpXpXpXpXpXpXpXpXpXpXpXpXpXpXpXpXpXpXpXpX",
"pXpXpXpXpXpXpXpXpXpXpXpXpXpXpXpXpXpXpXpXpXpXpXpXpXpXpXpX",
"pXpXpXpXpXpXpXpXpXpXpXpXpXpXpXpXpXpXpXpXpXpXpXpXpXpXpXpX",
"pXpXpXpXpXpXpXpXpXpXpXpXpXpXpXpXpXpXpXpXpXpXpXpXpXpXpXpX",
"pXpXpXpXpXpXpXpXpXpXpXpXpXpXpXpXpXpXpXpXpXpXpXpXpXpXpXpX"
};
