/* XPM */
static char * nave2_270g_xpm[] = {
"28 28 78 1",
" 	c None",
".	c #311EBD",
"+	c #321EBC",
"@	c #361DB5",
"#	c #301EC0",
"$	c #301EBE",
"%	c #391CAF",
"&	c #3E1BA7",
"*	c #321EBB",
"=	c #2E1EC2",
"-	c #2F1EC1",
";	c #2E1EC3",
">	c #331DB6",
",	c #2E1EC1",
"'	c #301EBF",
")	c #351DB7",
"!	c #2E1EC0",
"~	c #3020B5",
"{	c #311EBE",
"]	c #2E1FBD",
"^	c #301EBC",
"/	c #2E1FBC",
"(	c #2E1FB9",
"_	c #2E1EBE",
":	c #2E1EBC",
"<	c #2E1EBD",
"[	c #351EB0",
"}	c #3021AF",
"|	c #2F1EBD",
"1	c #311EB6",
"2	c #2F20B2",
"3	c #2E1EB8",
"4	c #331EB4",
"5	c #2E20B1",
"6	c #2E20B2",
"7	c #301EBB",
"8	c #2F1FBA",
"9	c #2F20B3",
"0	c #3021B1",
"a	c #2F20AD",
"b	c #3021A3",
"c	c #30239E",
"d	c #332499",
"e	c #3124A0",
"f	c #3022AE",
"g	c #2F22AD",
"h	c #2F20B7",
"i	c #3020B6",
"j	c #302299",
"k	c #3121A2",
"l	c #2F21A5",
"m	c #2F22A1",
"n	c #2E1FAD",
"o	c #2F1FB2",
"p	c #3122A4",
"q	c #2F21A7",
"r	c #2F20AA",
"s	c #3022A1",
"t	c #2F21A1",
"u	c #2E1FAF",
"v	c #301EB5",
"w	c #311FB0",
"x	c #3022A3",
"y	c #302499",
"z	c #2F219E",
"A	c #3020A0",
"B	c #2F1FA1",
"C	c #2F1EAB",
"D	c #312292",
"E	c #31229F",
"F	c #2E1FB0",
"G	c #2F20AB",
"H	c #302098",
"I	c #2E1FB1",
"J	c #331EB2",
"K	c #3123A1",
"L	c #341FA7",
"M	c #331EA4",
"                            ",
"                            ",
"                            ",
"                            ",
"                            ",
"    ..               +@     ",
"    #$              +%&     ",
"     $*=          $#-;      ",
"     >,'=        )#';+      ",
"      !;;=      =;=;;       ",
"      ~-=;={  ='=;;;;       ",
"       ]^#;;;==;!,;=        ",
"       /(_=-;;;=:<;'        ",
"        [}|:!-;_;=,         ",
"        '12<!'{3,]4         ",
"         {56_78908          ",
"         abcdefghi          ",
"          jklmano           ",
"          pqrstuv           ",
"           wxyzA            ",
"           BCDEF            ",
"            GHI             ",
"            JKL             ",
"             M              ",
"                            ",
"                            ",
"                            ",
"                            "};
