/* XPM */
static char * nave1_090g_xpm[] = {
"28 28 28 1",
" 	c None",
".	c #750B0B",
"+	c #8D0C0C",
"@	c #7A2828",
"#	c #890C0C",
"$	c #890909",
"%	c #841818",
"&	c #850D0D",
"*	c #9C1515",
"=	c #930A0A",
"-	c #900909",
";	c #930B0B",
">	c #910A0A",
",	c #970B0B",
"'	c #8F0A0A",
")	c #8A0909",
"!	c #910B0B",
"~	c #940B0B",
"{	c #980B0B",
"]	c #950B0B",
"^	c #900A0A",
"/	c #8E0A0A",
"(	c #960B0B",
"_	c #8D0B0B",
":	c #8D0A0A",
"<	c #920A0A",
"[	c #8D0909",
"}	c #920B0B",
"                            ",
"                            ",
"                            ",
"                            ",
"              .             ",
"             +@#            ",
"             $%&            ",
"            *=-;>           ",
"            ,')!~           ",
"           {]>^/({          ",
"           ((_/!:<          ",
"          {=~;(;'''         ",
"          (>,;'~[}}         ",
"         {{{(,;{{{{{        ",
"         {{,,{{{{{{{        ",
"        {{{{{{{{{{{{{       ",
"        {{{{{{{{{{{{{       ",
"       {{{{{{{  {{{{{{      ",
"       {{{{{      {{{{      ",
"      {{{{{        {{{{     ",
"      {{{{          {{{     ",
"     {{{              {{    ",
"     {{               {{    ",
"                            ",
"                            ",
"                            ",
"                            ",
"                            "};
