/* XPM */
static char * nave1_130g_xpm[] = {
"28 28 29 1",
" 	c None",
".	c #761010",
"+	c #880E0E",
"@	c #841A1A",
"#	c #801D1D",
"$	c #880D0D",
"%	c #910A0A",
"&	c #8A0808",
"*	c #8A0E0E",
"=	c #910909",
"-	c #930B0B",
";	c #950B0B",
">	c #980B0B",
",	c #960A0A",
"'	c #9A1313",
")	c #930A0A",
"!	c #8B0909",
"~	c #8D0A0A",
"{	c #8F0A0A",
"]	c #900A0A",
"^	c #910B0B",
"/	c #9C1414",
"(	c #960B0B",
"_	c #900B0B",
":	c #970B0B",
"<	c #8D0B0B",
"[	c #940B0B",
"}	c #990B0B",
"|	c #940A0A",
"                            ",
"                            ",
"                            ",
"                            ",
"                            ",
"                            ",
"        .+                  ",
"        @#$%                ",
"        &*=-;>,             ",
"        ')!~{{]{^           ",
"        /(]]__{^;>>         ",
"         :-<[[])>>>>>       ",
"         :(--{(}>>>>>>>}>   ",
"          );;[(>>>>>>>>}}>> ",
"         }|)(>>>>}>}}>>> }> ",
"          :>::>>>           ",
"          >>:>>>            ",
"          >>>>>>            ",
"          >>>>>             ",
"           >>>>             ",
"           >>>>             ",
"           >>>>             ",
"            >>}             ",
"            >>              ",
"            >}              ",
"            >>              ",
"                            ",
"                            "};
