/* XPM */
static char * coracao_xpm[] = {
"28 28 227 2",
"  	c None",
". 	c #2E2D2D",
"+ 	c #2F2F2E",
"@ 	c #2D2D2D",
"# 	c #2E2E2E",
"$ 	c #2F2F2F",
"% 	c #2F2E2E",
"& 	c #302F30",
"* 	c #201A1A",
"= 	c #140808",
"- 	c #130808",
"; 	c #140909",
"> 	c #2B2627",
", 	c #262121",
"' 	c #140809",
") 	c #140708",
"! 	c #170D0E",
"~ 	c #282323",
"{ 	c #4B2F2E",
"] 	c #6D1817",
"^ 	c #740608",
"/ 	c #750507",
"( 	c #750407",
"_ 	c #702222",
": 	c #532F2F",
"< 	c #572A2A",
"[ 	c #721C1C",
"} 	c #750607",
"| 	c #750506",
"1 	c #74090A",
"2 	c #6C1C1C",
"3 	c #322F2F",
"4 	c #4C1919",
"5 	c #9F0E10",
"6 	c #B60609",
"7 	c #B80509",
"8 	c #B70509",
"9 	c #9F1214",
"0 	c #571919",
"a 	c #1C1819",
"b 	c #1C1919",
"c 	c #621819",
"d 	c #A80F11",
"e 	c #B70608",
"f 	c #B90509",
"g 	c #B7070A",
"h 	c #9B1112",
"i 	c #3C1A1B",
"j 	c #302D2D",
"k 	c #472928",
"l 	c #5D0708",
"m 	c #A80508",
"n 	c #BF0307",
"o 	c #C00306",
"p 	c #AA0609",
"q 	c #690609",
"r 	c #460407",
"s 	c #710608",
"t 	c #B10609",
"u 	c #C00307",
"v 	c #C30306",
"w 	c #C70307",
"x 	c #AD0509",
"y 	c #5C0709",
"z 	c #512C2B",
"A 	c #2C2C2C",
"B 	c #452121",
"C 	c #7B1618",
"D 	c #940608",
"E 	c #AD0308",
"F 	c #B70207",
"G 	c #B60207",
"H 	c #B00308",
"I 	c #A20509",
"J 	c #9D0508",
"K 	c #A30408",
"L 	c #B10308",
"M 	c #B70206",
"N 	c #D90306",
"O 	c #CF0508",
"P 	c #B0070A",
"Q 	c #8C191A",
"R 	c #452122",
"S 	c #272727",
"T 	c #161616",
"U 	c #410809",
"V 	c #860709",
"W 	c #A30406",
"X 	c #AE0207",
"Y 	c #B40207",
"Z 	c #B30207",
"` 	c #B20107",
" .	c #B20207",
"..	c #B30107",
"+.	c #C10306",
"@.	c #DC0306",
"#.	c #D70307",
"$.	c #C30407",
"%.	c #98080A",
"&.	c #3F0809",
"*.	c #131312",
"=.	c #121111",
"-.	c #410506",
";.	c #870509",
">.	c #A40306",
",.	c #AF0207",
"'.	c #B40107",
").	c #BC0206",
"!.	c #CD0306",
"~.	c #C30307",
"{.	c #980609",
"].	c #3F0406",
"^.	c #0F0E0F",
"/.	c #420406",
"(.	c #880509",
"_.	c #A50307",
":.	c #B90206",
"<.	c #C20205",
"[.	c #C30205",
"}.	c #3F0506",
"|.	c #121212",
"1.	c #BD0206",
"2.	c #BF0306",
"3.	c #161515",
"4.	c #410A0B",
"5.	c #86070B",
"6.	c #A30306",
"7.	c #B50207",
"8.	c #B90207",
"9.	c #BE0407",
"0.	c #99080C",
"a.	c #141313",
"b.	c #482728",
"c.	c #7B181A",
"d.	c #930609",
"e.	c #A70307",
"f.	c #B00107",
"g.	c #AF0408",
"h.	c #AC070A",
"i.	c #8F1C1E",
"j.	c #49292A",
"k.	c #472525",
"l.	c #560607",
"m.	c #910508",
"n.	c #A50306",
"o.	c #B00207",
"p.	c #B00307",
"q.	c #980608",
"r.	c #5B0708",
"s.	c #542A2B",
"t.	c #2F2C2D",
"u.	c #431C1D",
"v.	c #851113",
"w.	c #9B0508",
"x.	c #AC0307",
"y.	c #B10207",
"z.	c #A7060A",
"A.	c #8D1012",
"B.	c #3A1A1A",
"C.	c #363233",
"D.	c #4B3839",
"E.	c #5F1D1E",
"F.	c #6E060A",
"G.	c #9C0509",
"H.	c #A90306",
"I.	c #A00509",
"J.	c #760A0B",
"K.	c #681E1E",
"L.	c #1F1A1A",
"M.	c #3E0809",
"N.	c #8D070B",
"O.	c #A20406",
"P.	c #AF0306",
"Q.	c #AE0308",
"R.	c #92080C",
"S.	c #3C0B0C",
"T.	c #231E1E",
"U.	c #483333",
"V.	c #701D1F",
"W.	c #83090B",
"X.	c #A00407",
"Y.	c #AD0306",
"Z.	c #A40408",
"`.	c #8B090C",
" +	c #782022",
".+	c #483030",
"++	c #3C292A",
"@+	c #540D0E",
"#+	c #8E0709",
"$+	c #B00206",
"%+	c #94070A",
"&+	c #412D2D",
"*+	c #333333",
"=+	c #4B2020",
"-+	c #7F1315",
";+	c #950609",
">+	c #A80407",
",+	c #AF0206",
"'+	c #A90308",
")+	c #9E050A",
"!+	c #871719",
"~+	c #4A2222",
"{+	c #363636",
"]+	c #462525",
"^+	c #940507",
"/+	c #A40305",
"(+	c #900508",
"_+	c #570608",
":+	c #4F2B2B",
"<+	c #343131",
"[+	c #4C1F1F",
"}+	c #881012",
"|+	c #970508",
"1+	c #970609",
"2+	c #831315",
"3+	c #401E1F",
"4+	c #353333",
"5+	c #5E1819",
"6+	c #600507",
"7+	c #600709",
"8+	c #5C1C1D",
"9+	c #1D1919",
"0+	c #100808",
"a+	c #130C0B",
"b+	c #211E1E",
"c+	c #303030",
"d+	c #343333",
"                                                        ",
"                                                        ",
"              . + @ #             $ % & $               ",
"            * = = - ; >         , ' ) = ! ~             ",
"          { ] ^ / ( ^ _ :     < [ } / | 1 2             ",
"        3 4 5 6 7 7 8 9 0 a b c d e 7 f g h i j         ",
"        k l m n o o o p q r r s t o u v w x y z         ",
"    A B C D E F F F G H I J J K L F M v N O P Q R S     ",
"    T U V W X Y Y Y Z `  . .Z  ...Y Y +.@.#.$.%.&.*.    ",
"    =.-.;.>.,.Y Y Y ..` ....'.......Y ).!.!.~.{.].^.    ",
"    =./.(._.,.Y ....` ` ` ......` ..'.:.<.[.+.{.}.^.    ",
"    |.-.(.>.X Z ..` ` ` ` ` ` ` ` ..Y F 1.2.o {.].^.    ",
"    3.4.5.6.X ..` ` ` ` ` ` ` ` ` ` ....7.8.9.0.4.a.    ",
"    @ b.c.d.e.f.` ..` ` ` ` ` ` ` ` ` `  .g.h.i.j.@     ",
"        k.l.m.n.o.Y ..` ` ` ` ` ` ` ` ..p.q.r.s.        ",
"        t.u.v.w.x.y.Z ..` ` ` ` ` ....H z.A.B.C.        ",
"          D.E.F.G.H.y.Y ..` ` ` ` .. .I.J.K.            ",
"            L.M.N.O.P.Z ....Z ..` y.Q.R.S.T.            ",
"              U.V.W.X.Y. .Y Y Z ` Z.`. +.+              ",
"                ++@+#+n.$+Z .. .p.%+@+&+                ",
"                *+=+-+;+>+,+,+'+)+!+~+{+                ",
"                    ]+y ^+/+6.(+_+:+                    ",
"                    <+[+}+|+1+2+3+4+                    ",
"                        5+6+7+8+                        ",
"                        9+0+a+b+                        ",
"                          c+d+                          ",
"                                                        ",
"                                                        "};
