/* XPM */
static char * coracao_xpm[] = {
"14 14 49 1",
" 	c None",
".	c #111111",
"+	c #0D0202",
"@	c #140203",
"#	c #170304",
"$	c #616161",
"%	c #000000",
"&	c #940A0A",
"*	c #AE0307",
"=	c #AE0104",
"-	c #630306",
";	c #7C070F",
">	c #AF0203",
",	c #BC0300",
"'	c #E70507",
")	c #010101",
"!	c #A50006",
"~	c #B40105",
"{	c #A40104",
"]	c #AB0104",
"^	c #B10305",
"/	c #CB0000",
"(	c #050000",
"_	c #040001",
":	c #A50001",
"<	c #B20205",
"[	c #B70304",
"}	c #060000",
"|	c #0E0003",
"1	c #BA000C",
"2	c #B30306",
"3	c #A90600",
"4	c #6B1312",
"5	c #9C0413",
"6	c #B30506",
"7	c #B50303",
"8	c #AC0806",
"9	c #404040",
"0	c #060606",
"a	c #8A0408",
"b	c #AF0204",
"c	c #9F0605",
"d	c #030303",
"e	c #523A3A",
"f	c #AA0815",
"g	c #970B13",
"h	c #2F2F2F",
"i	c #403636",
"j	c #322E2E",
"              ",
"              ",
"   .+@  ##$   ",
"  %&*=-;>,'%  ",
"  )!~~{]~^/(  ",
"  _:<<<<<<[}  ",
"   |12<<~34   ",
"    56~~789   ",
"    0ab]cd    ",
"     efgh     ",
"      ij      ",
"              ",
"              ",
"              "};
