/* XPM */
static char *_f357e81f4004390aa1820ed3651dffd[] = {
/* columns rows colors chars-per-pixel */
"40 40 185 2 ",
"   c None",
".  c #110000",
"X  c #250000",
"o  c #2A0100",
"O  c #340100",
"+  c #3B0100",
"@  c #3C1800",
"#  c #3C1300",
"$  c #440100",
"%  c #4C0100",
"&  c #400800",
"*  c #4E0A00",
"=  c #540100",
"-  c #5C0200",
";  c #530D00",
":  c #5C0A00",
">  c #4E1B00",
",  c #441900",
"<  c #541400",
"1  c #5C1300",
"2  c #581A00",
"3  c #640200",
"4  c #6B0200",
"5  c #630A00",
"6  c #6C0B00",
"7  c #740200",
"8  c #7B0100",
"9  c #730B00",
"0  c #7B0A00",
"q  c #611000",
"w  c #681C00",
"e  c #671800",
"r  c #741400",
"t  c #7D1400",
"y  c #751D00",
"u  c #7E1A00",
"i  c #523300",
"p  c #662700",
"a  c #6D2100",
"s  c #7B2C00",
"d  c #782200",
"f  c #683300",
"g  c #643400",
"h  c #7E3900",
"j  c #4D4200",
"k  c #6B4000",
"l  c #7E4100",
"z  c #6B5F00",
"x  c #725200",
"c  c #7D6600",
"v  c #830400",
"b  c #890300",
"n  c #820B00",
"m  c #8B0B00",
"M  c #920700",
"N  c #841400",
"B  c #8A1300",
"V  c #801C00",
"C  c #8B1D00",
"Z  c #951300",
"A  c #9A1600",
"S  c #931D00",
"D  c #A60F00",
"F  c #A71600",
"G  c #A81500",
"H  c #A41C00",
"J  c #AC1E00",
"K  c #B31F00",
"L  c #812000",
"P  c #8D2200",
"I  c #8C2B00",
"U  c #822D00",
"Y  c #932500",
"T  c #9B2400",
"R  c #932B00",
"E  c #9D2B00",
"W  c #893400",
"Q  c #8B3D00",
"!  c #9E3300",
"~  c #9F3E00",
"^  c #913600",
"/  c #A22600",
"(  c #AC2400",
")  c #A02B00",
"_  c #AC2B00",
"`  c #B42300",
"'  c #B42A00",
"]  c #B92F00",
"[  c #BA2400",
"{  c #A43500",
"}  c #AB3400",
"|  c #B23C00",
" . c None",
".. c #C12F00",
"X. c #C63600",
"o. c #C03F00",
"O. c #C93900",
"+. c #D63C00",
"@. c #8E4700",
"#. c #954C00",
"$. c #8B5F00",
"%. c #A94900",
"&. c #B74500",
"*. c #B54D00",
"=. c #A95800",
"-. c #BA5400",
";. c #B25900",
":. c #9C6100",
">. c #907200",
",. c #BB6400",
"<. c #C54300",
"1. c #C24B00",
"2. c #C94F00",
"3. c #CA4200",
"4. c #D64300",
"5. c #D74700",
"6. c #CF5D00",
"7. c #C85700",
"8. c #DF5300",
"9. c #DB5B00",
"0. c #E55D00",
"q. c #C76900",
"w. c #CF6900",
"e. c #C16400",
"r. c #DC6500",
"t. c #D36B00",
"y. c #D36100",
"u. c #C97600",
"i. c #C77800",
"p. c #C87D00",
"a. c #C57500",
"s. c #DD7B00",
"d. c #E76500",
"f. c #EB6600",
"g. c #E76B00",
"h. c #EA6B00",
"j. c #F06B00",
"k. c #E57200",
"l. c #E37D00",
"z. c #EE7D00",
"x. c #EB7300",
"c. c #F37300",
"v. c #CD8600",
"b. c #D88000",
"n. c #D48600",
"m. c #DC9400",
"M. c #DD9900",
"N. c #E58100",
"B. c #EB8300",
"V. c #ED8C00",
"C. c #F28400",
"Z. c #F98C00",
"A. c #F18E00",
"S. c #E29300",
"D. c #ED9900",
"F. c #F59300",
"G. c #FC9400",
"H. c #F49D00",
"J. c #FA9B00",
"K. c #EBA800",
"L. c #F5A300",
"P. c #FBA400",
"I. c #F5AD00",
"U. c #FDAD00",
"Y. c #E8B700",
"T. c #F2B400",
"R. c #FDB300",
"E. c #F5BC00",
"W. c #FDBC00",
"Q. c #FDC400",
"!. c #FECB00",
"~. c #F3C400",
"^. c #FFD300",
"/. c #FEDB00",
"(. c #FFE400",
"). c #FFEC00",
"_. c #FFF400",
"`. c #FFFD00",
"'. c #FFFF0F",
"]. c #FFFF12",
"[. c #FFFF1C",
"{. c #FFFF25",
"}. c #FFFF67",
"|. c #FFFF71",
" X c #FFFF89",
/* pixels */
"                                                                                ",
"                                                                                ",
"                                                                                ",
"                                                  r 0 9 4 3                     ",
"                                      4 0 4 : ; % 5 6 6 0 M 8               % % ",
"                                  + ; E _ N d a # X o ; r v 3 %               % ",
"                                    I 1. .R W U ; o O : C n 3 - 3 -             ",
"        3           $ =           w { &.} C r r ; o + 5 P Z 7 4 b A 9           ",
"    L S N y <       V 0 4 N       W %.| { { E N + . + r I C m v Z ' B           ",
"    I { Y r -     7.g. ._ 8.2.| -.w.y.r.N.I.F.x.E X O r R T A b 8 Z n           ",
"  w R P u : O # u.H.P.C.C.Q.!.F.V.D.D.W.!./.W.R.g.S = 9 / ` G b 4 4 7 =         ",
"  ; y y y : + > u.I.!.W.Q.).`.^.H.T.(._.(.)./.^.!.l./ H J K D v 3 % =           ",
"  + ; q : - = 6 -.E./.!.(.`.`.).I.Y._.`._.(.(.).`.^.k.+.A v b 7 3 % %           ",
"    , & $ $ = S S.)._.(.).`.`._.^.W._.`.`.).^._.`.`.Q.f.A 4 3 4 - = =           ",
"    @ < ; + u l./.`.`.).)._.`.`.).!.(.`.`._.)._._.`.`.Q.3.n = = = % $           ",
"      s I ! N.!.).`.`._._.`.`.`._._.`.`.`.`.`.`.^./.`.^.g._ = $ % %             ",
"      e I l.Q.^.(._._././._.`.`.`.`.`.`._.`.`.`.L.z.L.P.G.0.N +                 ",
"      g a.I.!./.).)./.R.R.).].'.`.`.`.`.`.`.`.).F.f.d.z.J.0.J 3                 ",
"    j c m.Q.(.)._.).^.Q.!.).`.`.`.`.`.`.].]._.^.P.J.F.L.F.s./ 7                 ",
"    j x p.~.)._._._.(.^.(.`.`.`.`.`.`.[.}.[._.^.^.(.(.(.I.t.m 7                 ",
"        v./._.)._._.).(._.`.`.`.`.`.`. X|.`.).(.`.`.`./.R.B.A 8                 ",
"        a.E./.)._._.`.`.`.`.`.`.`.`.`.{.'.`.(.)._.).).(.Q.Z.X.7                 ",
"        @.,.m.!.)._.`.`.`._.`.`.`.`.`.`.`._.^.^.).^.Q.^.Q.j.K                   ",
"        h ;.q.N.L.!._.`._.`.`.`.`.`.`.`._.).W.W.(./.U.J.Z.4.n                   ",
"        Q b.N.k.V.W.(.`._._._._._.`.`.`.`.).^.Q.(.^.P.f.9./ 3                   ",
"        #.K.~.Q.Q.^.(._._._.`._._.).`.`.`._./.!.(.^.U.f.(                       ",
"        :.Y.^./.^.(./._.`.`.).^./.(._.`.`._.^.^.(.!.P.j.'                       ",
"          @.,.K.W.R.R.(._.).!.Q.Q.(._.`.`.).^.!.^.U.c.4.J                       ",
"          X O a *.w.s.I.^./.(.(.(.)._._.(.Q.R.U.P.f.+.F 7                       ",
"          $ + o < @.=.n.E.~.W.!._.`._._.(.Q.U.G.h.X.A 7                         ",
"          : - = : > f :.v.M.l.C.R./.).(./.^.R.c.0.[ v %                         ",
"          ; = = $ o p %.*.6.5.4.0.F.W.Q.!.Q.J.8.] B                             ",
"                  O 2 s ! <.[ K 3.y.s.M.S.B.r.o.C =                             ",
"                    i $.e.2.' K H N   l ^ R Y Y r %                             ",
"                    z >.=.1.<.<.} N                                             ",
"                      k y P { | E 6                                             ",
"                          = 5 9 9                                               ",
"                                                                                ",
"                                                                                ",
"                                                                                "
};
