/* XPM */
static char *_0a27750a28f437f97611cf2244939da[] = {
/* columns rows colors chars-per-pixel */
"40 40 157 2 ",
"   c None",
".  c #1F0000",
"X  c #230000",
"o  c #2C0000",
"O  c #340000",
"+  c #3B0000",
"@  c #430100",
"#  c #4C0200",
"$  c #440A00",
"%  c #4D0C00",
"&  c #530200",
"*  c #5B0300",
"=  c #540C00",
"-  c #5A0A00",
";  c #4B1100",
":  c #561700",
">  c #5E1300",
",  c #620400",
"<  c #6A0300",
"1  c #630B00",
"2  c #6B0D00",
"3  c #730500",
"4  c #720E00",
"5  c #7C0D00",
"6  c #631400",
"7  c #6C1300",
"8  c #651900",
"9  c #691B00",
"0  c #731300",
"q  c #7C1200",
"w  c #761A00",
"e  c #7A1A00",
"r  c #462000",
"t  c #6F2600",
"y  c #742200",
"u  c #712C00",
"i  c #783B00",
"p  c #8E0600",
"a  c #840D00",
"s  c #8E0A00",
"d  c #841300",
"f  c #8B1400",
"g  c #811B00",
"h  c #8A1D00",
"j  c #921600",
"k  c #931A00",
"l  c #9D1B00",
"z  c #A00F00",
"x  c #A11600",
"c  c #A21F00",
"v  c #AC1C00",
"b  c #852000",
"n  c #8E2400",
"m  c #852B00",
"M  c #8D2C00",
"N  c #932300",
"B  c #9C2500",
"V  c #942C00",
"C  c #9A2B00",
"Z  c #8E3200",
"A  c #8E3B00",
"S  c #953100",
"D  c #993200",
"F  c #943B00",
"G  c #9F3E00",
"H  c #A22300",
"J  c #A92600",
"K  c #A52C00",
"L  c #AB2C00",
"P  c #B52500",
"I  c #BF2500",
"U  c #B02E00",
"Y  c #A43400",
"T  c #AC3400",
"R  c #A43C00",
"E  c #AC3C00",
"W  c #B43400",
"Q  c #BB3200",
"!  c #B43D00",
"~  c #BD3C00",
"^  c #C43D00",
"/  c #CD3C00",
"(  c #D83D00",
")  c #8E4100",
"_  c #944500",
"`  c #9D4200",
"'  c #954C00",
"]  c #9A4900",
"[  c #9F5800",
"{  c #A14400",
"}  c #AC4200",
"|  c #A04A00",
" . c None",
".. c #B34300",
"X. c #BB4400",
"o. c #B54B00",
"O. c #BE4D00",
"+. c #BB5100",
"@. c #B75800",
"#. c #BC5A00",
"$. c #B86600",
"%. c #C44400",
"&. c #CA4400",
"*. c #C34C00",
"=. c #CE4C00",
"-. c #D24C00",
";. c #C45300",
":. c #CC5400",
">. c #C25B00",
",. c #CD5C00",
"<. c #D55300",
"1. c #DC5000",
"2. c #D35B00",
"3. c #DA5B00",
"4. c #E04A00",
"5. c #C36100",
"6. c #CD6300",
"7. c #C56900",
"8. c #CD6A00",
"9. c #D26600",
"0. c #D86000",
"q. c #D36E00",
"w. c #DC6D00",
"e. c #CA7000",
"r. c #CF7800",
"t. c #D17400",
"y. c #DB7300",
"u. c #D27B00",
"i. c #DC7A00",
"p. c #E36200",
"a. c #E36D00",
"s. c #E96C00",
"d. c #E47500",
"f. c #EB7400",
"g. c #E47A00",
"h. c #E97900",
"j. c #F47100",
"k. c #F57800",
"l. c #E48500",
"z. c #E28900",
"x. c #EC8B00",
"c. c #F78000",
"v. c #F48B00",
"b. c #FA8A00",
"n. c #E39500",
"m. c #EC9400",
"M. c #ED9D00",
"N. c #F49200",
"B. c #F49A00",
"V. c #F99B00",
"C. c #ECA200",
"Z. c #E9A800",
"A. c #F2A100",
"S. c #F6AE00",
"D. c #F8A800",
"F. c #F6B000",
"G. c #F8BC00",
/* pixels */
"                                                                                ",
"                                                                                ",
"                                                                                ",
"                                                                                ",
"                                                                                ",
"                                                                                ",
"                                      O         @ o X o + # @                   ",
"                                          - , # = = X o # # O                   ",
"                                          0 h 5 , - O X # # O + &               ",
"              & 1 q 2                 $ % V ..T q O . o - 1 # + @               ",
"    + O         2 h f * o - 7       = e D :.>.:.~ 8 + @ 2 < , + X O             ",
"    o X         = e a 3 # w V h 1 & m $.8.2...} 6.#.4 0 g 4 < & o O             ",
"                @ 0 d l H E 9.Y , 0 N @.u.q.&.%.T C +.,.R 2 , , & &             ",
"              X o > Y a.<.! o.m > e f T z.z.3.f.T g l.N.Y - & & * &             ",
"              7 V w Y d.3.~ S ` { } %.&.v.B.a.x.,.f *.y.M @     +               ",
"        + # B 2.3.R R 6.p.p.6.n.m.l.s.4.&.O.i.l.;.d a 5 &                       ",
"      $ - g 3.f.2.E { 5.y.g.N.B.N.V.j.( L o.Z.C.} h l s g 2                     ",
"        0 o.g.y.O.K o.>.y.A.F.V.v.b.j./ ,.M.n.u.V 2 N c c d                     ",
"        m ;.y.q.O.J K ;.d.a.d.M.V.k.p./ l.C.5.V 1 # e N E k                     ",
"        y V R | } W U *.2.<.a.l.N.b.f.a.G.z.V 1 @ # Z E V 2                     ",
"          8 : i A K ^ ,.5.w.h.h.V.h.g.F.S.#.1 & < 4 @.&.B 1                     ",
"          @ ; F C a C #.r.x.D.v.A.7.@.B.v.u.y 2 c z k k a 2                     ",
"        # @ ; V J 5 + >  .y.g.d.,.V +.d.h.B.>.D -.^ l f , *                     ",
"          % y { L q + O w D 2.2.W h o.,.:.6.;.X.&./ ^ f   * *                   ",
"        % 6 _  .B q & @ - 1 ..! j 4 { +.*.5.6.=.&.p.-.h   , *                   ",
"        y e V Y 5 * @ @ - y { Y 3 3 { 8.t.6.w.=.3.k.1.k                         ",
"        u 2 5 4 *     + 2 m A M 5 p l r.m.p.<.W %.-.P 3                         ",
"            -         _ R { A Z B v Q 9.g.p.^ N k d 3 ,                         ",
"                      [ ] ] ' F Y ~ 2.m.i.2.%.H d * @                           ",
"                      % = _ ' M ! -.:.q.6.X.T H s , @                           ",
"                        o = 9 V L U f 2 b n h 5 3 *                             ",
"                        X X X 8 7 - &   @ % 8 , &                               ",
"                        + + o X o O         = - #                               ",
"                        + = & O +                                               ",
"                        ; 6 , * #                                               ",
"                            - & $                                               ",
"                                                                                ",
"                                                                                ",
"                                                                                ",
"                                                                                "
};
