/* XPM */
static char *dbcb79c7bfbf4bc8ffa12bd35ce738cd[] = {
/* columns rows colors chars-per-pixel */
"40 40 188 2 ",
"   c None",
".  c #080000",
"X  c #270000",
"o  c #2B0000",
"O  c #350000",
"+  c #3B0100",
"@  c #3D1700",
"#  c #450100",
"$  c #4D0000",
"%  c #4D0F00",
"&  c #530100",
"*  c #5C0100",
"=  c #520D00",
"-  c #5B0C00",
";  c #4D1100",
":  c #4B1F00",
">  c #591900",
",  c #640200",
"<  c #6B0300",
"1  c #640C00",
"2  c #690C00",
"3  c #730100",
"4  c #7B0200",
"5  c #7A0C00",
"6  c #740D00",
"7  c #641200",
"8  c #621A00",
"9  c #6D1B00",
"0  c #6C1200",
"q  c #741500",
"w  c #781400",
"e  c #7A1C00",
"r  c #452900",
"t  c #592800",
"y  c #512B00",
"u  c #4C3200",
"i  c #632100",
"p  c #6D2300",
"a  c #6B2D00",
"s  c #7D2300",
"d  c #7A2900",
"f  c #7A3500",
"g  c #7A3800",
"h  c #5D5100",
"j  c #7B4700",
"k  c #7B5900",
"l  c #7D6100",
"z  c #860400",
"x  c #820A00",
"c  c #8C0B00",
"v  c #8A0300",
"b  c #940500",
"n  c #940B00",
"m  c #9A0D00",
"M  c #9A0600",
"N  c #821600",
"B  c #8A1300",
"V  c #841A00",
"C  c #8B1C00",
"Z  c #931600",
"A  c #9D1600",
"S  c #961900",
"D  c #A31200",
"F  c #A31D00",
"G  c #AC1A00",
"H  c #B21F00",
"J  c #832400",
"K  c #8C2200",
"L  c #872C00",
"P  c #932300",
"I  c #9D2400",
"U  c #942C00",
"Y  c #9A2B00",
"T  c #823500",
"R  c #8E3300",
"E  c #993400",
"W  c #983700",
"Q  c #A22600",
"!  c #AA2200",
"~  c #A72E00",
"^  c #B22A00",
"/  c #BB2900",
"(  c #AB3200",
")  c #A53A00",
"_  c #AD3B00",
"`  c #B43300",
"'  c #BC3500",
"]  c #B33B00",
"[  c #C82B00",
"{  c #C93D00",
"}  c #C13F00",
"|  c #DA3C00",
" . c None",
".. c #9D4C00",
"X. c #965700",
"o. c #A14500",
"O. c #A94300",
"+. c #AF4E00",
"@. c #B84700",
"#. c #AB5100",
"$. c #8F6400",
"%. c #887800",
"&. c #997300",
"*. c #B46900",
"=. c #B57100",
"-. c #CE4600",
";. c #C14B00",
":. c #CA4A00",
">. c #DA4F00",
",. c #CD5400",
"<. c #C55A00",
"1. c #C95700",
"2. c #DD5300",
"3. c #D95A00",
"4. c #E14E00",
"5. c #E75900",
"6. c #CD6B00",
"7. c #C56000",
"8. c #DF6600",
"9. c #D76700",
"0. c #C77C00",
"q. c #D77300",
"w. c #DC7600",
"e. c #EA6600",
"r. c #E06600",
"t. c #F26C00",
"y. c #EC7200",
"u. c #E37B00",
"i. c #E87800",
"p. c #F27400",
"a. c #F27800",
"s. c #9E8C00",
"d. c #BD8300",
"f. c #B38500",
"g. c #C89300",
"h. c #DE9200",
"j. c #EC8100",
"k. c #E48800",
"l. c #FA8B00",
"z. c #F58600",
"x. c #E69900",
"c. c #F49200",
"v. c #F29B00",
"b. c #FA9A00",
"n. c #DBA400",
"m. c #D4A600",
"M. c #E3A300",
"N. c #EFA700",
"B. c #E4A900",
"V. c #F2A300",
"C. c #FDA300",
"Z. c #F2AE00",
"A. c #FDAD00",
"S. c #EEBA00",
"D. c #FEB500",
"F. c #FEBA00",
"G. c #F3B800",
"H. c #E9C100",
"J. c #FEC500",
"K. c #F4CD00",
"L. c #FDCB00",
"P. c #FED400",
"I. c #FEDC00",
"U. c #F3DD00",
"Y. c #FEE300",
"T. c #FFEC00",
"R. c #FFF400",
"E. c #FFFE00",
"W. c #FFFF0A",
"Q. c #FFFF14",
"!. c #FFFE1C",
"~. c #FFFF25",
"^. c #FFFF2C",
"/. c #FFFF30",
"(. c #FFFF3A",
"). c #FFFF42",
"_. c #FFFF48",
"`. c #FFFF57",
"'. c #FFFF63",
"]. c #FFFF6F",
"[. c #FFFF74",
"{. c #FFFF84",
"}. c #FFFF88",
"|. c #FFFF98",
" X c #FFFFBD",
".X c #FFFFC7",
"XX c #FFFFED",
"oX c ivory",
/* pixels */
"                                                                                ",
"                                                                                ",
"                                                                                ",
"                                              0 N 5 5 V B                       ",
"                                    Q I K e 9 9 - * 5 V D M                     ",
"                                e } 2.-._ ..T % X X 1 N v 4 ,               $   ",
"                                E 9.r.,.@...R = X X 7 P Z 4 , 3 3 ,             ",
"          3 2 =         , 3   9 o.1.;.] Y C w + . X 7 Y Q n 4 c ! S &           ",
"      s ( F U d       7 c S ` <.6.9.,.1.;.( C O . X 7 U Y F n A ' ^ 2           ",
"      ) ;.] Y J -   ) <.i.j.C.D.G.A.c.b.V.v.a.@.; O 7 U ~ ^ A m ! F ,           ",
"    d O.) E C , % d.S.L.D.P.R.Y.Y.P.L.P.Y.T.L.J.q.C w U ! H D z 4 4 &           ",
"    9 L U R J , ..U.E.Y.I.R.E.E.R.Y.R.I.Y.R.T.Y.A.y./ Z c M M 3 + O             ",
"    % 8 s s q V h.R.R.T.R.E.E.E.E.T.R.R.T.E.E.R.I.D.p.F < 4 v < o O             ",
"    @ t 8 - 7 ) Z.T.R.R.E.E.E.E.E.E.E.E.E.R.R.E.R.P.C.-.< * < , O $             ",
"    @ y > > - +.L.E.E.E.E.E.E.E.E.E.E.E.E.E.E.E.E.E.I.c.( * & $ O +             ",
"      y g W E M.R.E.E.E.E.E.E.E.E.E.E.E.E.E.E.E.W.!.R.J.y.Z & + O               ",
"        T O.q.I.E.E.E.E.E.E.E.E.W./.Q.E.E.W.Q.E.R.!.E.I.C.>.x # +               ",
"        i #.Z.R.E.E.E.E.E.E.E./.|.{.~.E.E.).[.E.I.J.J.P.A.e./ <                 ",
"      u k n.P.R.E.E.E.E.R.R.E.'. XW.E.E./.).Q.E.I.J.J.P.N./ ! 5                 ",
"      h %.H.R.E.E.E.E.E.E.E.E.'.[.E.E.(..X_.E.E.R.E.R.T.G._ 4 <                 ",
"        &.H.R.E.E.E.E.E.E.E.E.'.{.^.}.XXoX(.E.E.E.E.E.R.I.w.z 3                 ",
"        X.M.I.R.E.E.E.E.E.E.E.!.!.^.{.`.(.W.E.E.E.E.E.R.P.a.G 4                 ",
"          =.M.K.E.E.E.E.E.E.E.E.E.E.E.E.E.E.E.E.E.E.E.R.P.e.M ,                 ",
"          f 0.N.Y.E.E.E.E.E.E.E.E.E.E.W.E.E.E.E.E.R.T.I.c.A &                   ",
"          a g.V.U.R.E.E.E.E.E.E.E.E.E.W.E.E.R.T.T.T.F.l.:.&                     ",
"          j m.J.Y.R.E.E.E.!.~.E.E.E.E.E.E.E.R.T.R.Y.C.t.'                       ",
"            =.K.R.E.R.E.E.Q.!.E.E.E.E.E.E.E.R.T.T.P.b.4.F                       ",
"            a g.Y.Y.I.I.Y.R.E.E.E.E.E.E.E.R.R.T.Y.F.a.| m                       ",
"          # > ..n.G.G.J.I.R.E.E.E.E.E.E.E.Y.Y.P.D.l.5.[ m                       ",
"          + - V T =.x.L.T.T.T.R.E.E.E.E.E.T.P.J.C.t.[ x <                       ",
"          r p q & i *.x.K.I.F.F.I.E.E.R.R.T.L.C.a.{ x $                         ",
"            ; 1 0 t T o.w.v.z.p.c.L.T.T.Y.I.D.p.{ B                             ",
"                8 f $.d.k.8.2.5.5.k.M.B.k.k.u.,.I *                             ",
"                  k s.f.6.3.3.3.,._ e L Q Q P P 6 $                             ",
"                    l  .U _ 1.,.@.S & # <                                       ",
"                        2 , N P C < &                                           ",
"                                                                                ",
"                                                                                ",
"                                                                                ",
"                                                                                "
};
