/* XPM */
static char *_c6720c86dc4499cd6cbd8cc0ec3e20e[] = {
/* columns rows colors chars-per-pixel */
"40 40 129 2 ",
"   c None",
".  c #060000",
"X  c #0E0000",
"o  c #140000",
"O  c #1A0000",
"+  c #250000",
"@  c #2B0000",
"#  c #340000",
"$  c #3C0100",
"%  c #430100",
"&  c #4C0200",
"*  c #4D0B00",
"=  c #540200",
"-  c #5B0300",
";  c #540A00",
":  c #5C0B00",
">  c #441400",
",  c #4A1000",
"<  c #531000",
"1  c #5C1400",
"2  c #531800",
"3  c #5C1A00",
"4  c #650500",
"5  c #6A0500",
"6  c #630C00",
"7  c #6C0B00",
"8  c #740700",
"9  c #7B0600",
"0  c #740C00",
"q  c #7A0D00",
"w  c #631300",
"e  c #6E1400",
"r  c #661D00",
"t  c #6D1E00",
"y  c #761300",
"u  c #7B1400",
"i  c #7A1C00",
"p  c #602300",
"a  c #6B2200",
"s  c #6F2900",
"d  c #762100",
"f  c #7F2400",
"g  c #7E2B00",
"h  c #753800",
"j  c #8E0600",
"k  c #840A00",
"l  c #8A0F00",
"z  c #831400",
"x  c #8D1200",
"c  c #841B00",
"v  c #8B1A00",
"b  c #921200",
"n  c #931F00",
"m  c #981F00",
"M  c #A11E00",
"N  c #AC1800",
"B  c #842300",
"V  c #8B2400",
"C  c #852C00",
"Z  c #8B2D00",
"A  c #922600",
"S  c #9A2300",
"D  c #962B00",
"F  c #9C2F00",
"G  c #8B3100",
"H  c #963300",
"J  c #9C3200",
"K  c #933D00",
"L  c #9C3C00",
"P  c #A32400",
"I  c #AB2600",
"U  c #A42C00",
"Y  c #AA2B00",
"T  c #B12700",
"R  c #BA2700",
"E  c #BC2A00",
"W  c #A33300",
"Q  c #AB3400",
"!  c #A33C00",
"~  c #AC3B00",
"^  c #B33400",
"/  c #BE3200",
"(  c #B33C00",
")  c #BE3C00",
"_  c #9D4B00",
"`  c #A24400",
"'  c #AE4500",
"]  c #A44E00",
"[  c #A94B00",
"{  c #B24200",
"}  c #BD4100",
"|  c #B74A00",
" . c None",
".. c #AD5600",
"X. c #B25300",
"o. c #BE5500",
"O. c #BA5A00",
"+. c #AF6D00",
"@. c #BE6500",
"#. c #C34200",
"$. c #C54B00",
"%. c #CB4C00",
"&. c #D74C00",
"*. c #C35400",
"=. c #CD5400",
"-. c #C85D00",
";. c #D15200",
":. c #D95500",
">. c #D55D00",
",. c #E05C00",
"<. c #CB6500",
"1. c #D46300",
"2. c #DB6100",
"3. c #D46A00",
"4. c #DD6800",
"5. c #C17A00",
"6. c #D77300",
"7. c #D87500",
"8. c #D57A00",
"9. c #DE7D00",
"0. c #E56600",
"q. c #EC6500",
"w. c #EB6B00",
"e. c #E47700",
"r. c #EF7300",
"t. c #E47A00",
"y. c #F37800",
"u. c #E58000",
"i. c #F78800",
/* pixels */
"                                                                                ",
"                                                                                ",
"                                                                                ",
"                                                                                ",
"                                                                                ",
"                                                                                ",
"                                                                                ",
"                                              % % $ O + $ #                     ",
"                                          ; u y - & O o $ $ @                   ",
"                  4                       i W Y 0 + . X $ & % # #               ",
"      @         & 7 4                 ; e J ! ~ V * o @ & - = @ @               ",
"                  : 5 $ o @   - &   3 s H ( V c ' L & : 6 : - # +               ",
"                  & 7 - % : V i - 4 4 3 K o.Q S i w J ~ i & % $ #               ",
"                  # = c S 0 C w & 7 8 c o.-.$.;.c & o.4.c $ # @ #               ",
"                0 % * W ^ q e g g V m I 0.3.$.3.{ 7 W *.i                       ",
"              U Q e e | %.^ f @.7.6.&.E Y A ` O.H 5 - =                         ",
"        # & W =.( y y [ =.=.*.<.e.i.q.R l i +.+.g 7 8 - - ;                     ",
"          B  .-.! u c [ -.9.u.3.4.y.w.E S _ .._ 1 % y k 5 ;                     ",
"        6 B H L W 9 8 ! *.%.{ 7.u.r.:.I | O.C w # O & 4 i e                     ",
"          - * 3 C A v Q ( ( ( *.4.0.#.W 8.X.; + X o < y 6 :                     ",
"            + > a c P { [ o.$.#.>.>.*.<.X.t $ & % # C S q                       ",
"              w - = 7 Z _ X.t.2.7.[ Z 1.$._ w 7 x 9 7 9 5 -                     ",
"          @ $ y 0 % + @ ; H =.$.Q 6 i %.=.9.` c ) N k 5                         ",
"          # 2 C v & @ O @ 1 W U u & C { ( *.' W } E P 5   &                     ",
"          $ a C 7 - $ @ @ % Z V 4 $ G ! A [ X.( } ;.^ q   & %                   ",
"        ; & : e %       @ % r i & $ C [ ! J ' Q $.,./ q                         ",
"        < = = &           $ , ; & & : ] <.) Q v Q T k                           ",
"                        C d r t v j k Z o.%.Y q y 5 =                           ",
"                      h g g h s V M P X...( Q v 9 - %                           ",
"                        % 3 p : A ^ S H H B c v 9 -                             ",
"                              : 0 c 5     & & = = %                             ",
"                              :             % $ %                               ",
"                                              %                                 ",
"                          % %                                                   ",
"                          & & %                                                 ",
"                                                                                ",
"                                                                                ",
"                                                                                ",
"                                                                                ",
"                                                                                "
};
