/* XPM */
static char *_574442248416[] = {
/* columns rows colors chars-per-pixel */
"40 40 54 1 ",
"  c #220000",
". c #250000",
"X c #280000",
"o c #2A0000",
"O c #2B0000",
"+ c #2C0000",
"@ c #2F0000",
"# c #310000",
"$ c #320000",
"% c #330000",
"& c #380000",
"* c #390000",
"= c #3A0000",
"- c #3C0000",
"; c #3E0000",
": c #400000",
"> c #410000",
", c #430000",
"< c #470000",
"1 c #470100",
"2 c #480100",
"3 c #4B0000",
"4 c #4B0300",
"5 c #4D0100",
"6 c #4F0300",
"7 c #530100",
"8 c #530200",
"9 c #540000",
"0 c #560100",
"q c #540300",
"w c #560300",
"e c #570300",
"r c #540700",
"t c #560700",
"y c #5F0300",
"u c #530B00",
"i c #580C00",
"p c #610300",
"a c #680700",
"s c #630F00",
"d c #6F0900",
"f c #740E00",
"g c #611600",
"h c #6A1A00",
"j c #711700",
"k c #791D00",
"l c #7B2200",
"z c #821500",
"x c #861900",
"c c #931B00",
"v c #A42100",
"b c #A83100",
"n c #A93100",
"m c None",
/* pixels */
"mmmmmmmmmmmmmmmmmmmmmmmmmmmmmmmmmmmmmmmm",
"mmmmmmmmmmmmmmmmmmmmmmmmmmmmmmmmmmmmmmmm",
"mmmmmmmmmmmmmmmmmmmmmmmmmmmmmmmmmmmmmmmm",
"mmmmmmmmmmmmmmmmmmmmmmmmmmmmmmmmmmmmmmmm",
"mmmmmmmmmmmmmmmmmmmmmmmmmmmmmmmmmmmmmmmm",
"mmmmmmmmmmmmmmmmmmmmmmmmmmmmmmmmmmmmmmmm",
"mmmmmmmmmmmmmmmmmmmmmmmmmmmmmmmmmmmmmmmm",
"mmmmmmmmmmmmmmmmmmmmmmmmmmmmmmmmmmmmmmmm",
"mmmmmmmmmmmmmmmmmmmmmmmmmmmmmmmmmmmmmmmm",
"mmmmmmmmmmmmmmmmmmmmmmmemmmmmmmmmmmmmmmm",
"mmmmmmmmmmmmmmmmmmmmmm>6mmmmmmmmmmmmmmmm",
"mmmmmmmmmmmmmmmmmmmmmmO$>mmmmmmmmmmmmmmm",
"mmmmmmmmmmmmmmmmmmmmmm*-mmmmmmmmmmmmmmmm",
"mmmmmmmmmmmmmmmmmmmmm46<mmuimmmmmmmmmmmm",
"mmmmmmmmmmmmmmmmm*mmmmmmmmmmmmmmmmmmmmmm",
"mmmmmmmmmmmmmmmmgjdemmmmmmmmmmmmmmmmmmmm",
"mmmmmmmmmmmm*mmmkbvpmmmmmmmmmmmmmmmmmmmm",
"mmmmmmmm%mmm44mmlbcemmmmmmmmmmmmmmmmmmmm",
"mmmmmmmmmmmm*-mmhxammmmmmmmmmmmmmmmmmmmm",
"mmmmmmmmmmmm .@mmemmmmmmmmmmmmmmmmmmmmmm",
"mmmmmmmmmmmmmmOmemmmmmmmmmmmmmmmmmmmmmmm",
"mmmmmmmmmmmmmmmmmmmmmmmmmmmmmmmmmmmmmmmm",
"mmmmmmmmmmmmmmmmmmmmmmmtfemmmmmmmmmmmmmm",
"mmmmmmmmmmmmmmmmmmm$-mmszpmmmmmmmmmmmmmm",
"mmmmmmmmmmmmmmm*mmmOmmmreymmmmmmmmmmmmmm",
"mmmmmmmmmmmmmmmmmmmmmmmmO<mmmmmmmmmmmmmm",
"mmmmmmmmmmmmmmmmmmmmmmmmmmmmmmmmmmmmmmmm",
"mmmmmmmmmmmmmmmmmmmmmm4*$mmmmmmmmmmmmmmm",
"mmmmmmmmmmmmmmmmmmmmmmmm*mmmmmmmmmmmmmmm",
"mmmmmmmmmmmmmmmmmmmmmmmmmmmmmmmmmmmmmmmm",
"mmmmmmmmmmmmmmmmmmmmmmmmmmmmmmmmmmmmmmmm",
"mmmmmmmmmmmmmmmmmmmmmmmmmmmmmmmmmmmmmmmm",
"mmmmmmmmmmmmmmmmmmmmmmmmmmmmmmmmmmmmmmmm",
"mmmmmmmmmmmmmmmmmmmmmmmmmmmmmmmmmmmmmmmm",
"mmmmmmmmmmmmmmmmmmmmmmmmmmmmmmmmmmmmmmmm",
"mmmmmmmmmmmmmmmmmmmmmmmmmmmmmmmmmmmmmmmm",
"mmmmmmmmmmmmmmmmmmmmmmmmmmmmmmmmmmmmmmmm",
"mmmmmmmmmmmmmmmmmmmmmmmmmmmmmmmmmmmmmmmm",
"mmmmmmmmmmmmmmmmmmmmmmmmmmmmmmmmmmmmmmmm",
"mmmmmmmmmmmmmmmmmmmmmmmmmmmmmmmmmmmmmmmm"
};
