/* XPM */
static char *bd34c2b35e994ff1a0cee80562ef55a7[] = {
/* columns rows colors chars-per-pixel */
"40 40 178 2 ",
"   c None",
".  c #140000",
"X  c #1C0000",
"o  c #250000",
"O  c #2D0000",
"+  c #340100",
"@  c #3C0100",
"#  c #3F0800",
"$  c #3D2F00",
"%  c #440100",
"&  c #4B0100",
"*  c #400D00",
"=  c #4A0B00",
"-  c #530200",
";  c #5C0200",
":  c #530A00",
">  c #5B0B00",
",  c #5B1400",
"<  c #581700",
"1  c #630200",
"2  c #6C0500",
"3  c #640B00",
"4  c #6B0B00",
"5  c #730500",
"6  c #7B0400",
"7  c #730C00",
"8  c #7A0B00",
"9  c #671000",
"0  c #6B1400",
"q  c #651C00",
"w  c #6C1C00",
"e  c #731300",
"r  c #7E1200",
"t  c #741D00",
"y  c #7E1C00",
"u  c #5B2600",
"i  c #4E3D00",
"p  c #6A2100",
"a  c #652A00",
"s  c #692A00",
"d  c #732200",
"f  c #7A2400",
"g  c #793E00",
"h  c #524300",
"j  c #7E4400",
"k  c #840600",
"l  c #880600",
"z  c #840D00",
"x  c #8A0C00",
"c  c #910C00",
"v  c #831300",
"b  c #8B1000",
"n  c #841D00",
"m  c #8C1B00",
"M  c #941C00",
"N  c #9C1D00",
"B  c #852600",
"V  c #8E2400",
"C  c #882F00",
"Z  c #942100",
"A  c #9A2400",
"S  c #922C00",
"D  c #9C2B00",
"F  c #873000",
"G  c #913500",
"H  c #9B3400",
"J  c #943E00",
"K  c #9C3B00",
"L  c #A42300",
"P  c #AC2400",
"I  c #A22C00",
"U  c #AD2C00",
"Y  c #B62C00",
"T  c #B82D00",
"R  c #A63000",
"E  c #AA3200",
"W  c #AD3A00",
"Q  c #B23100",
"!  c #BB3500",
"~  c #B33D00",
"^  c #BB3C00",
"/  c #C93300",
"(  c #C43C00",
")  c #CD3E00",
"_  c #D03D00",
"`  c #974400",
"'  c #9E4400",
"]  c #9A4B00",
"[  c #9B5000",
"{  c #9E5800",
"}  c #A64100",
"|  c #AE4500",
" . c None",
".. c #AE4900",
"X. c #B14600",
"o. c #BD4100",
"O. c #B94800",
"+. c #AD5A00",
"@. c #A55C00",
"#. c #B05400",
"$. c #B55B00",
"%. c #BC6100",
"&. c #B86900",
"*. c #CB4400",
"=. c #C44A00",
"-. c #CD4900",
";. c #D54700",
":. c #D44D00",
">. c #DC4D00",
",. c #C45600",
"<. c #CB5200",
"1. c #C35E00",
"2. c #CB5C00",
"3. c #D15400",
"4. c #DF5500",
"5. c #D65900",
"6. c #DF5900",
"7. c #E74F00",
"8. c #E25700",
"9. c #E25800",
"0. c #C56100",
"q. c #CD6200",
"w. c #C56E00",
"e. c #D26400",
"r. c #DC6300",
"t. c #D56C00",
"y. c #DC6A00",
"u. c #C67400",
"i. c #D17000",
"p. c #DD7200",
"a. c #DE7C00",
"s. c #E26400",
"d. c #EA6400",
"f. c #E46D00",
"g. c #EB6D00",
"h. c #F16C00",
"j. c #E67300",
"k. c #EB7500",
"l. c #E57B00",
"z. c #ED7B00",
"x. c #F37500",
"c. c #F37C00",
"v. c #DF8C00",
"b. c #DD8400",
"n. c #D89400",
"m. c #D49800",
"M. c #E48200",
"N. c #EC8400",
"B. c #E48A00",
"V. c #ED8C00",
"C. c #F48400",
"Z. c #FA8100",
"A. c #F48D00",
"S. c #FA8C00",
"D. c #E49700",
"F. c #EC9300",
"G. c #EC9C00",
"H. c #F49400",
"J. c #FA9400",
"K. c #F69D00",
"L. c #FB9C00",
"P. c #E3A000",
"I. c #E6AB00",
"U. c #F5A300",
"Y. c #FAA300",
"T. c #FCAB00",
"R. c #F6B600",
"E. c #FCB300",
"W. c #F5BB00",
"Q. c #FDBB00",
"!. c #FEC300",
"~. c #FECC00",
"^. c #FED300",
"/. c #FEDA00",
"(. c #FFE300",
"). c #FFEB00",
"_. c #FFF200",
"`. c #FFFB00",
/* pixels */
"                                                                                ",
"                                                                                ",
"                                                                                ",
"                                                      O                         ",
"                                                    - % % %                     ",
"                                    & % %       % @ % & - 1 1                   ",
"                                      & e Z 2 > p = o @ 4 2 1 &                 ",
"                                      , S D r 3 f 0 O + 0 7 - & 1 1             ",
"      %           v b                 p S V Z D r > @ @ > 4 - - 2 k             ",
"    7 ; &     t H *.Q r 4 -         f H | q.t.s.A @ & 0 n m 5 - & 2 ;           ",
"  > 3 - @     t | ,.! U ! W $.D n F w.a.N.L.U.C.5.V ; v D L c 1 + & ;           ",
"o @ & % @       G ,.^ ;.h.K.!.j.W ..U./.E.H.C.L.E.B.M M L N x 6 - - 1           ",
"    O O O O o @ n ,.j.c.S.Q.!.p.D } G.^./.T.g.c.Y.Y.a.5.) A x c l 5 1           ",
"    X X . X @ 2 W D.Q.Q.!.E.H.1.K ..p.G.^.^.L.A.c.B./.W.<.M 7 5 x k ;           ",
"    + # o O r >.A.!.E.Q.~.E.C.M.M.i.N.L./.(.!.!.V.<.W./.,.7 - % 1 1 %           ",
"      > 1 Z y.L.E.E.M.V.E.Q.~././.W.E.Y.Q.Q./.(.K.! =.j.( v       %             ",
"      < S r.L.L.Y.U.l.M.T.~.).).(./.Q.J.L.!._./.p.L T / 8.^                     ",
"    $ g q.V.Y.Y.Y.V.l.V.U.(._.).^.^.Q.T.(._.).!.y.E o.*.6.:.v                   ",
"      s i.H.Q.Q.K.z.x.A.T.!././.~.~.Q.!._.`.Q.j.<.X.,.y.j.( U                   ",
"        #.B.L.U.A.c.x.A.L.T.(.).(.^.^.).`._.U.s.*.2.B.A.l.E z ;                 ",
"        ] F.F.G.V.z.C.H.Y.Q.)._.).(.).`.`.^.f.<.4.C.~.Y.s.^ 2                   ",
"        K %.&.n.H.c.K.Q.^.(.).^.(.).)._.).^.p.=.s.g.A.c.;.U 2                   ",
"      > B G ' i.C.h.z.R.~.~.~.E.T.Q.Q.W.!.^.F.k.x.7.>.h.s.U 1                   ",
"        p F } 2.6._ P 1.F.L.E.Y.T.H.A.Y.Y.H.j.x.c.c.g.:.^ A z                   ",
"      , ] +.w.V.g.) N R 0.a.F.C.J.N.F.T.K.H.C.Z.L.L.c.U 1 m 8                   ",
"      d $.v.n.V.r.*.~ 5.M.B.F.x.g.k.H.^.(.~.T.J.Y.Y.Z.( ;                       ",
"      s @.$.a.j.! A O.H.K.K.F.l.5.4.Z./._.!.J.C.J.J.h._ 7                       ",
"        s y D R r 1 u.^.R.M.e.q.3.s.H.^.^.L.x.g.k.s.( P 7                       ",
"                  :  .m.n.u.u.q.r.A.Q.^.!.A.d.6.-.L 8 -                         ",
"                  & : p @.m.I.p.k.L.!.~.T.C.d.>.Y k 1                           ",
"        @ +         + # < { 1.N.V.s.l.V.A.c.8.! L x ;                           ",
"                      # : : e W o.^ U Q q.t.o.N 8 1                             ",
"                      < w 7 - & 2 v 1 d ] J B v 1                               ",
"                        q m 8 1 1 ;     q , : 4 ;                               ",
"                      h j D b x 2 &                                             ",
"                      i u e B Z e &                                             ",
"                            - > -                                               ",
"                                                                                ",
"                                                                                ",
"                                                                                "
};
